STARTFONT 2.1
FONT -HP-Song-Medium-R-Normal--18-180-75-75-C-160-GB2312.1980-1
SIZE 18 75 75
FONTBOUNDINGBOX 16 18 0 -2

STARTPROPERTIES 23
FONTNAME_REGISTRY ""
FOUNDRY "HP"
FAMILY_NAME "Song"
WEIGHT_NAME "Medium"
SLANT "R"
SETWIDTH_NAME "Normal"
ADD_STYLE_NAME ""
PIXEL_SIZE 18
POINT_SIZE 180
RESOLUTION_X 75
RESOLUTION_Y 75
SPACING "C"
AVERAGE_WIDTH 160
CHARSET_REGISTRY "GB2312.1980"
CHARSET_ENCODING "1"
COPYRIGHT "Copyright (c) 1988, 1989, 1990, 1994 Hewlett-Packard Company."
_HP_ASXVERSION "@(#) ASX 3.00 $Revision: 13.9 $ song18h"
WEIGHT 10
X_HEIGHT 16
QUAD_WIDTH 16
DEFAULT_CHAR 41633
FONT_DESCENT 2
FONT_ASCENT 16
ENDPROPERTIES

CHARS 7452

STARTCHAR chs_A1A1
ENCODING 41377
SWIDTH 854 0
DWIDTH 16 0
BBX 16 18 0 -2
BITMAP
0000
0000
0000
0000
0000
0000
0000
0000
0000
0000
0000
0000
0000
0000
0000
0000
0000
0000
ENDCHAR

STARTCHAR chs_A1A2
ENCODING 41378
SWIDTH 854 0
DWIDTH 16 0
BBX 16 18 0 -2
BITMAP
0000
0000
0000
0000
0000
0000
0000
0000
0000
0000
2000
1800
0C00
0400
0000
0000
0000
0000
ENDCHAR

STARTCHAR chs_A1A3
ENCODING 41379
SWIDTH 854 0
DWIDTH 16 0
BBX 16 18 0 -2
BITMAP
0000
0000
0000
0000
0000
0000
0000
0000
0000
0000
1800
2400
2400
1800
0000
0000
0000
0000
ENDCHAR

STARTCHAR chs_A1A4
ENCODING 41380
SWIDTH 854 0
DWIDTH 16 0
BBX 16 18 0 -2
BITMAP
0000
0000
0000
0000
0000
0000
0000
0000
0180
0180
0000
0000
0000
0000
0000
0000
0000
0000
ENDCHAR

STARTCHAR chs_A1A5
ENCODING 41381
SWIDTH 854 0
DWIDTH 16 0
BBX 16 18 0 -2
BITMAP
0000
0000
0000
0FE0
0000
0000
0000
0000
0000
0000
0000
0000
0000
0000
0000
0000
0000
0000
ENDCHAR

STARTCHAR chs_A1A6
ENCODING 41382
SWIDTH 854 0
DWIDTH 16 0
BBX 16 18 0 -2
BITMAP
0000
0820
0440
0280
0100
0000
0000
0000
0000
0000
0000
0000
0000
0000
0000
0000
0000
0000
ENDCHAR

STARTCHAR chs_A1A7
ENCODING 41383
SWIDTH 854 0
DWIDTH 16 0
BBX 16 18 0 -2
BITMAP
0000
0000
0000
0C60
0C60
0000
0000
0000
0000
0000
0000
0000
0000
0000
0000
0000
0000
0000
ENDCHAR

STARTCHAR chs_A1A8
ENCODING 41384
SWIDTH 854 0
DWIDTH 16 0
BBX 16 18 0 -2
BITMAP
0000
0000
0000
0000
0240
0240
0240
0480
0480
0900
0000
0000
0000
0000
0000
0000
0000
0000
ENDCHAR

STARTCHAR chs_A1A9
ENCODING 41385
SWIDTH 854 0
DWIDTH 16 0
BBX 16 18 0 -2
BITMAP
0000
0000
0400
0400
0420
0FF0
0820
1040
2080
0500
0200
0100
0100
0000
0000
0000
0000
0000
ENDCHAR

STARTCHAR chs_A1AA
ENCODING 41386
SWIDTH 854 0
DWIDTH 16 0
BBX 16 18 0 -2
BITMAP
0000
0000
0000
0000
0000
0000
0000
FFFE
0000
0000
0000
0000
0000
0000
0000
0000
0000
0000
ENDCHAR

STARTCHAR chs_A1AB
ENCODING 41387
SWIDTH 854 0
DWIDTH 16 0
BBX 16 18 0 -2
BITMAP
0000
0000
0000
0000
0000
0000
1802
2702
40E4
4018
0000
0000
0000
0000
0000
0000
0000
0000
ENDCHAR

STARTCHAR chs_A1AC
ENCODING 41388
SWIDTH 854 0
DWIDTH 16 0
BBX 16 18 0 -2
BITMAP
0240
0240
0240
0240
0240
0240
0240
0240
0240
0240
0240
0240
0240
0240
0240
0240
0000
0000
ENDCHAR

STARTCHAR chs_A1AD
ENCODING 41389
SWIDTH 854 0
DWIDTH 16 0
BBX 16 18 0 -2
BITMAP
0000
0000
0000
0000
0000
0000
6318
6318
0000
0000
0000
0000
0000
0000
0000
0000
0000
0000
ENDCHAR

STARTCHAR chs_A1AE
ENCODING 41390
SWIDTH 854 0
DWIDTH 16 0
BBX 16 18 0 -2
BITMAP
0000
0004
0008
0010
0018
0018
0000
0000
0000
0000
0000
0000
0000
0000
0000
0000
0000
0000
ENDCHAR

STARTCHAR chs_A1AF
ENCODING 41391
SWIDTH 854 0
DWIDTH 16 0
BBX 16 18 0 -2
BITMAP
0000
3000
3000
1000
2000
4000
0000
0000
0000
0000
0000
0000
0000
0000
0000
0000
0000
0000
ENDCHAR

STARTCHAR chs_A1B0
ENCODING 41392
SWIDTH 854 0
DWIDTH 16 0
BBX 16 18 0 -2
BITMAP
0000
0044
0088
0110
0198
0198
0000
0000
0000
0000
0000
0000
0000
0000
0000
0000
0000
0000
ENDCHAR

STARTCHAR chs_A1B1
ENCODING 41393
SWIDTH 854 0
DWIDTH 16 0
BBX 16 18 0 -2
BITMAP
0000
3300
3300
1100
2200
4400
0000
0000
0000
0000
0000
0000
0000
0000
0000
0000
0000
0000
ENDCHAR

STARTCHAR chs_A1B2
ENCODING 41394
SWIDTH 854 0
DWIDTH 16 0
BBX 16 18 0 -2
BITMAP
0000
0004
0008
0010
0010
0010
0010
0010
0010
0010
0010
0010
0010
0008
0004
0000
0000
0000
ENDCHAR

STARTCHAR chs_A1B3
ENCODING 41395
SWIDTH 854 0
DWIDTH 16 0
BBX 16 18 0 -2
BITMAP
0000
4000
2000
1000
1000
1000
1000
1000
1000
1000
1000
1000
1000
2000
4000
0000
0000
0000
ENDCHAR

STARTCHAR chs_A1B4
ENCODING 41396
SWIDTH 854 0
DWIDTH 16 0
BBX 16 18 0 -2
BITMAP
0000
0004
0008
0010
0020
0040
0080
0100
0080
0040
0020
0010
0008
0004
0000
0000
0000
0000
ENDCHAR

STARTCHAR chs_A1B5
ENCODING 41397
SWIDTH 854 0
DWIDTH 16 0
BBX 16 18 0 -2
BITMAP
0000
4000
2000
1000
0800
0400
0200
0100
0200
0400
0800
1000
2000
4000
0000
0000
0000
0000
ENDCHAR

STARTCHAR chs_A1B6
ENCODING 41398
SWIDTH 854 0
DWIDTH 16 0
BBX 16 18 0 -2
BITMAP
0010
0024
0048
0090
0120
0240
0480
0900
0480
0240
0120
0090
0048
0024
0010
0000
0000
0000
ENDCHAR

STARTCHAR chs_A1B7
ENCODING 41399
SWIDTH 854 0
DWIDTH 16 0
BBX 16 18 0 -2
BITMAP
1000
4800
2400
1200
0900
0480
0240
0120
0240
0480
0900
1200
2400
4800
1000
0000
0000
0000
ENDCHAR

STARTCHAR chs_A1B8
ENCODING 41400
SWIDTH 854 0
DWIDTH 16 0
BBX 16 18 0 -2
BITMAP
0000
003C
0020
0020
0020
0020
0020
0020
0020
0020
0020
0020
0000
0000
0000
0000
0000
0000
ENDCHAR

STARTCHAR chs_A1B9
ENCODING 41401
SWIDTH 854 0
DWIDTH 16 0
BBX 16 18 0 -2
BITMAP
0000
0000
0000
0000
0800
0800
0800
0800
0800
0800
0800
0800
0800
0800
7800
0000
0000
0000
ENDCHAR

STARTCHAR chs_A1BA
ENCODING 41402
SWIDTH 854 0
DWIDTH 16 0
BBX 16 18 0 -2
BITMAP
0000
00FC
0084
00BC
00A0
00A0
00A0
00A0
00A0
00A0
00A0
00E0
0000
0000
0000
0000
0000
0000
ENDCHAR

STARTCHAR chs_A1BB
ENCODING 41403
SWIDTH 854 0
DWIDTH 16 0
BBX 16 18 0 -2
BITMAP
0000
0000
0000
0000
0E00
0A00
0A00
0A00
0A00
0A00
0A00
0A00
7A00
4200
7E00
0000
0000
0000
ENDCHAR

STARTCHAR chs_A1BC
ENCODING 41404
SWIDTH 854 0
DWIDTH 16 0
BBX 16 18 0 -2
BITMAP
0000
01FC
0108
0110
0110
0120
0120
0120
0120
0120
0120
0110
0110
0108
01FC
0000
0000
0000
ENDCHAR

STARTCHAR chs_A1BD
ENCODING 41405
SWIDTH 854 0
DWIDTH 16 0
BBX 16 18 0 -2
BITMAP
0000
7F00
2100
1100
1100
0900
0900
0900
0900
0900
0900
1100
1100
2100
7F00
0000
0000
0000
ENDCHAR

STARTCHAR chs_A1BE
ENCODING 41406
SWIDTH 854 0
DWIDTH 16 0
BBX 16 18 0 -2
BITMAP
0000
01FC
01F8
01F0
01E0
01E0
01C0
01C0
01C0
01C0
01E0
01E0
01F0
01F8
01FC
0000
0000
0000
ENDCHAR

STARTCHAR chs_A1BF
ENCODING 41407
SWIDTH 854 0
DWIDTH 16 0
BBX 16 18 0 -2
BITMAP
0000
7F00
3F00
1F00
0F00
0F00
0700
0700
0700
0700
0F00
0F00
1F00
3F00
7F00
0000
0000
0000
ENDCHAR

STARTCHAR chs_A1C0
ENCODING 41408
SWIDTH 854 0
DWIDTH 16 0
BBX 16 18 0 -2
BITMAP
0000
0000
0100
0100
0100
0100
1FF0
0100
0100
0100
0100
0000
1FF0
0000
0000
0000
0000
0000
ENDCHAR

STARTCHAR chs_A1C1
ENCODING 41409
SWIDTH 854 0
DWIDTH 16 0
BBX 16 18 0 -2
BITMAP
0000
0000
0000
1010
0820
0440
0280
0100
0280
0440
0820
1010
0000
0000
0000
0000
0000
0000
ENDCHAR

STARTCHAR chs_A1C2
ENCODING 41410
SWIDTH 854 0
DWIDTH 16 0
BBX 16 18 0 -2
BITMAP
0000
0000
0000
0300
0300
0000
0000
3FF0
0000
0000
0300
0300
0000
0000
0000
0000
0000
0000
ENDCHAR

STARTCHAR chs_A1C3
ENCODING 41411
SWIDTH 854 0
DWIDTH 16 0
BBX 16 18 0 -2
BITMAP
0000
0000
0000
0000
0300
0300
0000
0000
0000
0300
0300
0000
0000
0000
0000
0000
0000
0000
ENDCHAR

STARTCHAR chs_A1C4
ENCODING 41412
SWIDTH 854 0
DWIDTH 16 0
BBX 16 18 0 -2
BITMAP
0000
0100
0280
0280
0440
0440
0820
0820
1010
1010
2008
2008
2008
4004
4004
0000
0000
0000
ENDCHAR

STARTCHAR chs_A1C5
ENCODING 41413
SWIDTH 854 0
DWIDTH 16 0
BBX 16 18 0 -2
BITMAP
0000
4004
4004
2008
2008
2008
1010
1010
0820
0820
0440
0440
0280
0280
0100
0000
0000
0000
ENDCHAR

STARTCHAR chs_A1C6
ENCODING 41414
SWIDTH 854 0
DWIDTH 16 0
BBX 16 18 0 -2
BITMAP
0000
7FFC
2004
1004
0800
0400
0200
0100
0200
0400
0800
1000
2004
4004
7FFC
0000
0000
0000
ENDCHAR

STARTCHAR chs_A1C7
ENCODING 41415
SWIDTH 854 0
DWIDTH 16 0
BBX 16 18 0 -2
BITMAP
0000
3FF8
0820
0820
0820
0820
0820
0820
0820
0820
0820
0820
0820
0820
1C70
0000
0000
0000
ENDCHAR

STARTCHAR chs_A1C8
ENCODING 41416
SWIDTH 854 0
DWIDTH 16 0
BBX 16 18 0 -2
BITMAP
0000
2008
2008
2008
2008
2008
2008
2008
2008
2008
2008
2008
1010
0820
07C0
0000
0000
0000
ENDCHAR

STARTCHAR chs_A1C9
ENCODING 41417
SWIDTH 854 0
DWIDTH 16 0
BBX 16 18 0 -2
BITMAP
0000
07C0
0820
1010
2008
2008
2008
2008
2008
2008
2008
2008
2008
2008
2008
0000
0000
0000
ENDCHAR

STARTCHAR chs_A1CA
ENCODING 41418
SWIDTH 854 0
DWIDTH 16 0
BBX 16 18 0 -2
BITMAP
0000
01E0
0600
0800
0800
1000
1000
1FE0
1000
1000
1000
0800
0800
0600
01E0
0000
0000
0000
ENDCHAR

STARTCHAR chs_A1CB
ENCODING 41419
SWIDTH 854 0
DWIDTH 16 0
BBX 16 18 0 -2
BITMAP
0000
0000
0000
1830
1830
0000
0000
0000
0000
0000
1830
1830
0000
0000
0000
0000
0000
0000
ENDCHAR

STARTCHAR chs_A1CC
ENCODING 41420
SWIDTH 854 0
DWIDTH 16 0
BBX 16 18 0 -2
BITMAP
0002
0004
0008
0008
0010
0020
0040
0040
0080
0100
4200
A200
1400
0800
0000
0000
0000
0000
ENDCHAR

STARTCHAR chs_A1CD
ENCODING 41421
SWIDTH 854 0
DWIDTH 16 0
BBX 16 18 0 -2
BITMAP
0000
0100
0100
0100
0100
0100
0100
0100
0100
0100
0100
0100
0100
0100
3FF8
0000
0000
0000
ENDCHAR

STARTCHAR chs_A1CE
ENCODING 41422
SWIDTH 854 0
DWIDTH 16 0
BBX 16 18 0 -2
BITMAP
0240
0240
0240
0240
0240
0240
0480
0480
0480
0480
0480
0900
0900
0900
0900
0900
0000
0000
ENDCHAR

STARTCHAR chs_A1CF
ENCODING 41423
SWIDTH 854 0
DWIDTH 16 0
BBX 16 18 0 -2
BITMAP
0000
0004
0008
0010
0020
0040
0080
0100
0200
0400
0800
1000
2000
7FFC
0000
0000
0000
0000
ENDCHAR

STARTCHAR chs_A1D0
ENCODING 41424
SWIDTH 854 0
DWIDTH 16 0
BBX 16 18 0 -2
BITMAP
0000
0000
0000
0000
0000
0780
1860
2010
2010
4008
4008
4008
0000
0000
0000
0000
0000
0000
ENDCHAR

STARTCHAR chs_A1D1
ENCODING 41425
SWIDTH 854 0
DWIDTH 16 0
BBX 16 18 0 -2
BITMAP
0000
0000
0780
1860
2010
2010
4008
4308
4308
4008
2010
2010
1860
0780
0000
0000
0000
0000
ENDCHAR

STARTCHAR chs_A1D2
ENCODING 41426
SWIDTH 854 0
DWIDTH 16 0
BBX 16 18 0 -2
BITMAP
0000
00C0
0120
0100
0100
0100
0100
0100
0200
0200
0200
0200
0200
1200
0C00
0000
0000
0000
ENDCHAR

STARTCHAR chs_A1D3
ENCODING 41427
SWIDTH 854 0
DWIDTH 16 0
BBX 16 18 0 -2
BITMAP
00C0
0120
0100
0100
0100
0780
0940
0940
0A40
0A40
0780
0200
0200
0200
1200
0C00
0000
0000
ENDCHAR

STARTCHAR chs_A1D4
ENCODING 41428
SWIDTH 854 0
DWIDTH 16 0
BBX 16 18 0 -2
BITMAP
0000
0000
0000
0000
0000
7FFC
0000
7FFC
0000
7FFC
0000
0000
0000
0000
0000
0000
0000
0000
ENDCHAR

STARTCHAR chs_A1D5
ENCODING 41429
SWIDTH 854 0
DWIDTH 16 0
BBX 16 18 0 -2
BITMAP
0000
0000
1870
2088
4104
4104
4204
2208
1C30
0000
7FFC
0000
7FFC
0000
0000
0000
0000
0000
ENDCHAR

STARTCHAR chs_A1D6
ENCODING 41430
SWIDTH 854 0
DWIDTH 16 0
BBX 16 18 0 -2
BITMAP
0000
0000
0000
0000
0000
3804
4708
00F0
3804
4708
00F0
0000
0000
0000
0000
0000
0000
0000
ENDCHAR

STARTCHAR chs_A1D7
ENCODING 41431
SWIDTH 854 0
DWIDTH 16 0
BBX 16 18 0 -2
BITMAP
0000
0000
0000
0000
3878
4084
4102
8102
8102
4102
4204
3C38
0000
0000
0000
0000
0000
0000
ENDCHAR

STARTCHAR chs_A1D8
ENCODING 41432
SWIDTH 854 0
DWIDTH 16 0
BBX 16 18 0 -2
BITMAP
0000
0000
0000
0000
3C7E
4280
4100
8100
8100
4100
4280
3C7E
0000
0000
0000
0000
0000
0000
ENDCHAR

STARTCHAR chs_A1D9
ENCODING 41433
SWIDTH 854 0
DWIDTH 16 0
BBX 16 18 0 -2
BITMAP
0000
0020
0020
0040
0040
7FFC
0100
0100
0200
7FFC
0400
0800
0800
1000
1000
0000
0000
0000
ENDCHAR

STARTCHAR chs_A1DA
ENCODING 41434
SWIDTH 854 0
DWIDTH 16 0
BBX 16 18 0 -2
BITMAP
0000
0418
0460
0580
0600
1C00
6400
8400
6400
1C00
0600
0580
0460
0418
0000
0000
0000
0000
ENDCHAR

STARTCHAR chs_A1DB
ENCODING 41435
SWIDTH 854 0
DWIDTH 16 0
BBX 16 18 0 -2
BITMAP
0000
3040
0C40
0340
00C0
0070
004C
0042
004C
0070
00C0
0340
0C40
3040
0000
0000
0000
0000
ENDCHAR

STARTCHAR chs_A1DC
ENCODING 41436
SWIDTH 854 0
DWIDTH 16 0
BBX 16 18 0 -2
BITMAP
0018
0060
0180
0600
1800
6000
8000
6000
9800
6600
1980
0660
0198
0060
0018
0000
0000
0000
ENDCHAR

STARTCHAR chs_A1DD
ENCODING 41437
SWIDTH 854 0
DWIDTH 16 0
BBX 16 18 0 -2
BITMAP
3000
0C00
0300
00C0
0030
000C
0002
000C
0032
00CC
0330
0CC0
3300
0C00
3000
0000
0000
0000
ENDCHAR

STARTCHAR chs_A1DE
ENCODING 41438
SWIDTH 854 0
DWIDTH 16 0
BBX 16 18 0 -2
BITMAP
0000
0000
0000
0000
3C78
4284
8102
8102
8102
4284
3C78
0000
0000
0000
0000
0000
0000
0000
ENDCHAR

STARTCHAR chs_A1DF
ENCODING 41439
SWIDTH 854 0
DWIDTH 16 0
BBX 16 18 0 -2
BITMAP
0000
0000
0000
3030
3030
0000
0000
0000
0000
0000
0000
0300
0300
0000
0000
0000
0000
0000
ENDCHAR

STARTCHAR chs_A1E0
ENCODING 41440
SWIDTH 854 0
DWIDTH 16 0
BBX 16 18 0 -2
BITMAP
0000
0000
0000
0300
0300
0000
0000
0000
0000
0000
0000
3030
3030
0000
0000
0000
0000
0000
ENDCHAR

STARTCHAR chs_A1E1
ENCODING 41441
SWIDTH 854 0
DWIDTH 16 0
BBX 16 18 0 -2
BITMAP
0000
0100
0380
0540
0920
1110
0100
0100
0100
0100
0380
0440
0440
0440
0380
0000
0000
0000
ENDCHAR

STARTCHAR chs_A1E2
ENCODING 41442
SWIDTH 854 0
DWIDTH 16 0
BBX 16 18 0 -2
BITMAP
0000
0380
0440
0440
0440
0380
0100
0100
3FF8
0100
0100
0100
0100
0100
0100
0000
0000
0000
ENDCHAR

STARTCHAR chs_A1E3
ENCODING 41443
SWIDTH 854 0
DWIDTH 16 0
BBX 16 18 0 -2
BITMAP
0000
1800
2400
2400
1800
0000
0000
0000
0000
0000
0000
0000
0000
0000
0000
0000
0000
0000
ENDCHAR

STARTCHAR chs_A1E4
ENCODING 41444
SWIDTH 854 0
DWIDTH 16 0
BBX 16 18 0 -2
BITMAP
0000
0800
0800
1000
1000
2000
0000
0000
0000
0000
0000
0000
0000
0000
0000
0000
0000
0000
ENDCHAR

STARTCHAR chs_A1E5
ENCODING 41445
SWIDTH 854 0
DWIDTH 16 0
BBX 16 18 0 -2
BITMAP
0000
1200
1200
2400
2400
4800
0000
0000
0000
0000
0000
0000
0000
0000
0000
0000
0000
0000
ENDCHAR

STARTCHAR chs_A1E6
ENCODING 41446
SWIDTH 854 0
DWIDTH 16 0
BBX 16 18 0 -2
BITMAP
6000
93F4
940C
6804
0804
1000
1000
1000
1000
1000
1000
0804
0804
0408
03F0
0000
0000
0000
ENDCHAR

STARTCHAR chs_A1E7
ENCODING 41447
SWIDTH 854 0
DWIDTH 16 0
BBX 16 18 0 -2
BITMAP
0100
0FE8
1118
2108
2108
2100
1100
0F00
01E0
0110
0108
2108
2108
3110
2FE0
0100
0000
0000
ENDCHAR

STARTCHAR chs_A1E8
ENCODING 41448
SWIDTH 854 0
DWIDTH 16 0
BBX 16 18 0 -2
BITMAP
0000
4002
2004
17E8
0810
1008
1008
1008
1008
1008
1008
0810
17E8
2004
4002
0000
0000
0000
ENDCHAR

STARTCHAR chs_A1E9
ENCODING 41449
SWIDTH 854 0
DWIDTH 16 0
BBX 16 18 0 -2
BITMAP
0010
0020
0FE8
1058
2048
4080
4100
4100
4200
4200
4400
2808
1810
17E0
1000
2000
0000
0000
ENDCHAR

STARTCHAR chs_A1EA
ENCODING 41450
SWIDTH 854 0
DWIDTH 16 0
BBX 16 18 0 -2
BITMAP
01C0
0220
0220
0200
0200
0200
3FE0
0200
0200
0200
3A00
4600
4204
4504
38F8
0000
0000
0000
ENDCHAR

STARTCHAR chs_A1EB
ENCODING 41451
SWIDTH 854 0
DWIDTH 16 0
BBX 16 18 0 -2
BITMAP
0008
3010
4820
4840
4880
4900
3200
0400
0800
130C
2492
4492
8492
0492
030C
0000
0000
0000
ENDCHAR

STARTCHAR chs_A1EC
ENCODING 41452
SWIDTH 854 0
DWIDTH 16 0
BBX 16 18 0 -2
BITMAP
0780
0840
08C0
0400
0200
0300
0480
0840
0840
0580
0200
0100
0080
0C40
0840
0780
0000
0000
ENDCHAR

STARTCHAR chs_A1ED
ENCODING 41453
SWIDTH 854 0
DWIDTH 16 0
BBX 16 18 0 -2
BITMAP
6080
2140
3100
3100
2918
2924
2924
2924
2524
2524
2524
2524
2318
2300
A17E
4100
0000
0000
ENDCHAR

STARTCHAR chs_A1EE
ENCODING 41454
SWIDTH 854 0
DWIDTH 16 0
BBX 16 18 0 -2
BITMAP
0100
0100
0280
0280
0280
0440
FC7E
4004
3018
0820
0820
1190
1650
1830
2008
0000
0000
0000
ENDCHAR

STARTCHAR chs_A1EF
ENCODING 41455
SWIDTH 854 0
DWIDTH 16 0
BBX 16 18 0 -2
BITMAP
0100
0100
0380
0380
0380
07C0
FFFE
3FF8
1FF0
0FE0
0FE0
1FF0
1EF0
1830
2008
0000
0000
0000
ENDCHAR

STARTCHAR chs_A1F0
ENCODING 41456
SWIDTH 854 0
DWIDTH 16 0
BBX 16 18 0 -2
BITMAP
0000
07C0
1830
2008
2008
4004
4004
4004
4004
4004
2008
2008
1830
07C0
0000
0000
0000
0000
ENDCHAR

STARTCHAR chs_A1F1
ENCODING 41457
SWIDTH 854 0
DWIDTH 16 0
BBX 16 18 0 -2
BITMAP
0000
07C0
1FF0
3FF8
3FF8
7FFC
7FFC
7FFC
7FFC
7FFC
3FF8
3FF8
1FF0
07C0
0000
0000
0000
0000
ENDCHAR

STARTCHAR chs_A1F2
ENCODING 41458
SWIDTH 854 0
DWIDTH 16 0
BBX 16 18 0 -2
BITMAP
0000
0FE0
1010
27C8
4824
5014
5014
5014
5014
5014
4824
27C8
1010
0FE0
0000
0000
0000
0000
ENDCHAR

STARTCHAR chs_A1F3
ENCODING 41459
SWIDTH 854 0
DWIDTH 16 0
BBX 16 18 0 -2
BITMAP
0100
0280
0440
0820
1010
2008
4004
8002
4004
2008
1010
0820
0440
0280
0100
0000
0000
0000
ENDCHAR

STARTCHAR chs_A1F4
ENCODING 41460
SWIDTH 854 0
DWIDTH 16 0
BBX 16 18 0 -2
BITMAP
0100
0380
07C0
0FE0
1FF0
3FF8
7FFC
FFFE
7FFC
3FF8
1FF0
0FE0
07C0
0380
0100
0000
0000
0000
ENDCHAR

STARTCHAR chs_A1F5
ENCODING 41461
SWIDTH 854 0
DWIDTH 16 0
BBX 16 18 0 -2
BITMAP
0000
7FFC
4004
4004
4004
4004
4004
4004
4004
4004
4004
4004
4004
7FFC
0000
0000
0000
0000
ENDCHAR

STARTCHAR chs_A1F6
ENCODING 41462
SWIDTH 854 0
DWIDTH 16 0
BBX 16 18 0 -2
BITMAP
0000
7FFC
7FFC
7FFC
7FFC
7FFC
7FFC
7FFC
7FFC
7FFC
7FFC
7FFC
7FFC
7FFC
0000
0000
0000
0000
ENDCHAR

STARTCHAR chs_A1F7
ENCODING 41463
SWIDTH 854 0
DWIDTH 16 0
BBX 16 18 0 -2
BITMAP
0000
0100
0280
0440
0440
0820
0820
1010
1010
2008
2008
4004
4004
FFFE
0000
0000
0000
0000
ENDCHAR

STARTCHAR chs_A1F8
ENCODING 41464
SWIDTH 854 0
DWIDTH 16 0
BBX 16 18 0 -2
BITMAP
0000
0100
0380
07C0
07C0
0FE0
0FE0
1FF0
1FF0
3FF8
3FF8
7FFC
7FFC
FFFE
0000
0000
0000
0000
ENDCHAR

STARTCHAR chs_A1F9
ENCODING 41465
SWIDTH 854 0
DWIDTH 16 0
BBX 16 18 0 -2
BITMAP
0000
4304
2308
1010
0820
0440
0280
610C
628C
0440
0820
1010
2308
4304
8002
0000
0000
0000
ENDCHAR

STARTCHAR chs_A1FA
ENCODING 41466
SWIDTH 854 0
DWIDTH 16 0
BBX 16 18 0 -2
BITMAP
0000
0000
0000
0000
0000
0020
0038
FFFE
0038
0020
0000
0000
0000
0000
0000
0000
0000
0000
ENDCHAR

STARTCHAR chs_A1FB
ENCODING 41467
SWIDTH 854 0
DWIDTH 16 0
BBX 16 18 0 -2
BITMAP
0000
0000
0000
0000
0000
0800
3800
FFFE
3800
0800
0000
0000
0000
0000
0000
0000
0000
0000
ENDCHAR

STARTCHAR chs_A1FC
ENCODING 41468
SWIDTH 854 0
DWIDTH 16 0
BBX 16 18 0 -2
BITMAP
0100
0100
0380
0380
07C0
0100
0100
0100
0100
0100
0100
0100
0100
0100
0100
0100
0000
0000
ENDCHAR

STARTCHAR chs_A1FD
ENCODING 41469
SWIDTH 854 0
DWIDTH 16 0
BBX 16 18 0 -2
BITMAP
0100
0100
0100
0100
0100
0100
0100
0100
0100
0100
0100
07C0
0380
0380
0100
0100
0000
0000
ENDCHAR

STARTCHAR chs_A1FE
ENCODING 41470
SWIDTH 854 0
DWIDTH 16 0
BBX 16 18 0 -2
BITMAP
0000
0000
0000
FFFE
FFFE
FFFE
0000
0000
0000
FFFE
FFFE
FFFE
0000
0000
0000
0000
0000
0000
ENDCHAR

STARTCHAR chs_A2A1
ENCODING 41633
SWIDTH 854 0
DWIDTH 16 0
BBX 16 18 0 -2
BITMAP
0000
2002
0000
0000
0000
0000
0000
0000
0000
0000
0000
0000
0000
0000
2002
0000
0000
0000
ENDCHAR

STARTCHAR chs_A2B1
ENCODING 41649
SWIDTH 854 0
DWIDTH 16 0
BBX 16 18 0 -2
BITMAP
0000
0100
0300
0500
0100
0100
0100
0100
0100
0100
0100
0100
0100
0118
0118
0000
0000
0000
ENDCHAR

STARTCHAR chs_A2B2
ENCODING 41650
SWIDTH 854 0
DWIDTH 16 0
BBX 16 18 0 -2
BITMAP
0000
0F00
1080
1080
0080
0080
0100
0100
0200
0200
0400
0800
1000
1018
1F98
0000
0000
0000
ENDCHAR

STARTCHAR chs_A2B3
ENCODING 41651
SWIDTH 854 0
DWIDTH 16 0
BBX 16 18 0 -2
BITMAP
0000
0F00
1080
0080
0080
0100
0600
0100
0080
0080
0080
0080
0100
0218
1C18
0000
0000
0000
ENDCHAR

STARTCHAR chs_A2B4
ENCODING 41652
SWIDTH 854 0
DWIDTH 16 0
BBX 16 18 0 -2
BITMAP
0000
0100
0300
0500
0500
0900
0900
0900
1100
1100
1FC0
0100
0100
0118
0118
0000
0000
0000
ENDCHAR

STARTCHAR chs_A2B5
ENCODING 41653
SWIDTH 854 0
DWIDTH 16 0
BBX 16 18 0 -2
BITMAP
0000
1F80
1000
1000
1000
1000
1700
1880
1080
0080
0080
0080
0100
0218
1C18
0000
0000
0000
ENDCHAR

STARTCHAR chs_A2B6
ENCODING 41654
SWIDTH 854 0
DWIDTH 16 0
BBX 16 18 0 -2
BITMAP
0000
0200
0400
0400
0800
0800
1000
1700
1880
1080
1080
1080
1080
1098
0F18
0000
0000
0000
ENDCHAR

STARTCHAR chs_A2B7
ENCODING 41655
SWIDTH 854 0
DWIDTH 16 0
BBX 16 18 0 -2
BITMAP
0000
1FC0
1040
1040
0040
0080
0080
0080
0100
0100
0200
0200
0200
0218
0218
0000
0000
0000
ENDCHAR

STARTCHAR chs_A2B8
ENCODING 41656
SWIDTH 854 0
DWIDTH 16 0
BBX 16 18 0 -2
BITMAP
0000
0F00
1080
1080
1080
1080
0900
0600
0900
1080
1080
1080
1080
1098
0F18
0000
0000
0000
ENDCHAR

STARTCHAR chs_A2B9
ENCODING 41657
SWIDTH 854 0
DWIDTH 16 0
BBX 16 18 0 -2
BITMAP
0000
0F00
1080
1080
1080
1080
1080
1180
0E80
0080
0100
0100
0200
0218
0418
0000
0000
0000
ENDCHAR

STARTCHAR chs_A2BA
ENCODING 41658
SWIDTH 854 0
DWIDTH 16 0
BBX 16 18 0 -2
BITMAP
0000
23C0
6420
A420
2420
2420
2420
2420
2420
2420
2420
2420
2420
242C
23CC
0000
0000
0000
ENDCHAR

STARTCHAR chs_A2BB
ENCODING 41659
SWIDTH 854 0
DWIDTH 16 0
BBX 16 18 0 -2
BITMAP
0000
2080
6180
A280
2080
2080
2080
2080
2080
2080
2080
2080
2080
208C
208C
0000
0000
0000
ENDCHAR

STARTCHAR chs_A2BC
ENCODING 41660
SWIDTH 854 0
DWIDTH 16 0
BBX 16 18 0 -2
BITMAP
0000
23C0
6420
A420
2020
2020
2040
2040
2080
2080
2100
2200
2400
240C
27EC
0000
0000
0000
ENDCHAR

STARTCHAR chs_A2BD
ENCODING 41661
SWIDTH 854 0
DWIDTH 16 0
BBX 16 18 0 -2
BITMAP
0000
23C0
6420
A020
2020
2040
2180
2040
2020
2020
2020
2020
2040
208C
270C
0000
0000
0000
ENDCHAR

STARTCHAR chs_A2BE
ENCODING 41662
SWIDTH 854 0
DWIDTH 16 0
BBX 16 18 0 -2
BITMAP
0000
2040
60C0
A140
2140
2240
2240
2240
2440
2440
27F0
2040
2040
204C
204C
0000
0000
0000
ENDCHAR

STARTCHAR chs_A2BF
ENCODING 41663
SWIDTH 854 0
DWIDTH 16 0
BBX 16 18 0 -2
BITMAP
0000
27E0
6400
A400
2400
2400
25C0
2620
2420
2020
2020
2020
2040
208C
270C
0000
0000
0000
ENDCHAR

STARTCHAR chs_A2C0
ENCODING 41664
SWIDTH 854 0
DWIDTH 16 0
BBX 16 18 0 -2
BITMAP
0000
2080
6100
A100
2200
2200
2400
25C0
2620
2420
2420
2420
2420
242C
23CC
0000
0000
0000
ENDCHAR

STARTCHAR chs_A2C1
ENCODING 41665
SWIDTH 854 0
DWIDTH 16 0
BBX 16 18 0 -2
BITMAP
0000
27F0
6410
A410
2010
2020
2020
2020
2040
2040
2080
2080
2080
208C
208C
0000
0000
0000
ENDCHAR

STARTCHAR chs_A2C2
ENCODING 41666
SWIDTH 854 0
DWIDTH 16 0
BBX 16 18 0 -2
BITMAP
0000
23C0
6420
A420
2420
2420
2240
2180
2240
2420
2420
2420
2420
242C
23CC
0000
0000
0000
ENDCHAR

STARTCHAR chs_A2C3
ENCODING 41667
SWIDTH 854 0
DWIDTH 16 0
BBX 16 18 0 -2
BITMAP
0000
23C0
6420
A420
2420
2420
2420
2460
23A0
2020
2040
2040
2080
208C
210C
0000
0000
0000
ENDCHAR

STARTCHAR chs_A2C4
ENCODING 41668
SWIDTH 854 0
DWIDTH 16 0
BBX 16 18 0 -2
BITMAP
0000
78E0
8510
8510
0510
0510
0910
0910
1110
1110
2110
4110
8110
8116
FCE6
0000
0000
0000
ENDCHAR

STARTCHAR chs_A2C5
ENCODING 41669
SWIDTH 854 0
DWIDTH 16 0
BBX 16 18 0 -2
BITMAP
2008
4004
8102
8102
8102
8102
8102
8102
8102
8102
8102
8102
8102
8102
4004
2008
0000
0000
ENDCHAR

STARTCHAR chs_A2C6
ENCODING 41670
SWIDTH 854 0
DWIDTH 16 0
BBX 16 18 0 -2
BITMAP
2008
4004
8782
8842
8042
8042
8042
8082
8082
8102
8202
8402
8802
8FC2
4004
2008
0000
0000
ENDCHAR

STARTCHAR chs_A2C7
ENCODING 41671
SWIDTH 854 0
DWIDTH 16 0
BBX 16 18 0 -2
BITMAP
2008
4004
8382
8442
8042
8042
8082
8102
8082
8042
8042
8042
8082
8702
4004
2008
0000
0000
ENDCHAR

STARTCHAR chs_A2C8
ENCODING 41672
SWIDTH 854 0
DWIDTH 16 0
BBX 16 18 0 -2
BITMAP
2008
4004
8082
8182
8182
8282
8282
8482
8482
8882
8FE2
8082
8082
8082
4004
2008
0000
0000
ENDCHAR

STARTCHAR chs_A2C9
ENCODING 41673
SWIDTH 854 0
DWIDTH 16 0
BBX 16 18 0 -2
BITMAP
2008
4004
87C2
8402
8402
8402
8402
8782
8442
8022
8022
8042
8082
8702
4004
2008
0000
0000
ENDCHAR

STARTCHAR chs_A2CA
ENCODING 41674
SWIDTH 854 0
DWIDTH 16 0
BBX 16 18 0 -2
BITMAP
2008
4004
8102
8202
8402
8402
8802
8B82
8C42
8842
8842
8842
8842
8782
4004
2008
0000
0000
ENDCHAR

STARTCHAR chs_A2CB
ENCODING 41675
SWIDTH 854 0
DWIDTH 16 0
BBX 16 18 0 -2
BITMAP
2008
4004
8FC2
8842
8042
8042
8082
8082
8082
8102
8102
8102
8102
8102
4004
2008
0000
0000
ENDCHAR

STARTCHAR chs_A2CC
ENCODING 41676
SWIDTH 854 0
DWIDTH 16 0
BBX 16 18 0 -2
BITMAP
2008
4004
8782
8842
8842
8842
8842
8782
8482
8842
8842
8842
8842
8782
4004
2008
0000
0000
ENDCHAR

STARTCHAR chs_A2CD
ENCODING 41677
SWIDTH 854 0
DWIDTH 16 0
BBX 16 18 0 -2
BITMAP
2008
4004
83C2
8422
8422
8422
8422
8462
83A2
8022
8042
8042
8082
8102
4004
2008
0000
0000
ENDCHAR

STARTCHAR chs_A2CE
ENCODING 41678
SWIDTH 854 0
DWIDTH 16 0
BBX 16 18 0 -2
BITMAP
2008
4004
88E2
8912
8912
8912
8912
8912
8912
8912
8912
8912
8912
88E2
4004
2008
0000
0000
ENDCHAR

STARTCHAR chs_A2CF
ENCODING 41679
SWIDTH 854 0
DWIDTH 16 0
BBX 16 18 0 -2
BITMAP
2008
4004
8822
8822
8822
8822
8822
8822
8822
8822
8822
8822
8822
8822
4004
2008
0000
0000
ENDCHAR

STARTCHAR chs_A2D0
ENCODING 41680
SWIDTH 854 0
DWIDTH 16 0
BBX 16 18 0 -2
BITMAP
2008
4004
91E2
9212
9012
9012
9012
9022
9022
9042
9082
9102
9202
93F2
4004
2008
0000
0000
ENDCHAR

STARTCHAR chs_A2D1
ENCODING 41681
SWIDTH 854 0
DWIDTH 16 0
BBX 16 18 0 -2
BITMAP
2008
4004
91C2
9222
9022
9022
9042
9082
9042
9022
9022
9022
9042
9382
4004
2008
0000
0000
ENDCHAR

STARTCHAR chs_A2D2
ENCODING 41682
SWIDTH 854 0
DWIDTH 16 0
BBX 16 18 0 -2
BITMAP
2008
4004
9042
90C2
90C2
9142
9142
9242
9242
9442
97F2
9042
9042
9042
4004
2008
0000
0000
ENDCHAR

STARTCHAR chs_A2D3
ENCODING 41683
SWIDTH 854 0
DWIDTH 16 0
BBX 16 18 0 -2
BITMAP
2008
4004
93F2
9202
9202
9202
9202
93C2
9222
9012
9012
9012
9022
93C2
4004
2008
0000
0000
ENDCHAR

STARTCHAR chs_A2D4
ENCODING 41684
SWIDTH 854 0
DWIDTH 16 0
BBX 16 18 0 -2
BITMAP
2008
4004
9042
9082
9102
9102
9202
92E2
9312
9212
9212
9212
9212
91E2
4004
2008
0000
0000
ENDCHAR

STARTCHAR chs_A2D5
ENCODING 41685
SWIDTH 854 0
DWIDTH 16 0
BBX 16 18 0 -2
BITMAP
2008
4004
93F2
9212
9012
9012
9022
9022
9022
9042
9042
9042
9042
9042
4004
2008
0000
0000
ENDCHAR

STARTCHAR chs_A2D6
ENCODING 41686
SWIDTH 854 0
DWIDTH 16 0
BBX 16 18 0 -2
BITMAP
2008
4004
91E2
9212
9212
9212
9212
91E2
9122
9212
9212
9212
9212
91E2
4004
2008
0000
0000
ENDCHAR

STARTCHAR chs_A2D7
ENCODING 41687
SWIDTH 854 0
DWIDTH 16 0
BBX 16 18 0 -2
BITMAP
2008
4004
91E2
9212
9212
9212
9212
9232
91D2
9012
9022
9022
9042
9082
4004
2008
0000
0000
ENDCHAR

STARTCHAR chs_A2D8
ENCODING 41688
SWIDTH 854 0
DWIDTH 16 0
BBX 16 18 0 -2
BITMAP
2008
4004
9C72
A28A
828A
828A
828A
848A
848A
888A
908A
A08A
A08A
BE72
4004
2008
0000
0000
ENDCHAR

STARTCHAR chs_A2D9
ENCODING 41689
SWIDTH 854 0
DWIDTH 16 0
BBX 16 18 0 -2
BITMAP
07C0
1830
2008
4104
4104
8102
8102
8102
8102
8102
4104
4104
2008
1830
07C0
0000
0000
0000
ENDCHAR

STARTCHAR chs_A2DA
ENCODING 41690
SWIDTH 854 0
DWIDTH 16 0
BBX 16 18 0 -2
BITMAP
07C0
1830
2008
4384
4444
8042
8042
8082
8102
8202
4404
47C4
2008
1830
07C0
0000
0000
0000
ENDCHAR

STARTCHAR chs_A2DB
ENCODING 41691
SWIDTH 854 0
DWIDTH 16 0
BBX 16 18 0 -2
BITMAP
07C0
1830
2008
4384
4444
8042
8082
8102
8082
8042
4444
4384
2008
1830
07C0
0000
0000
0000
ENDCHAR

STARTCHAR chs_A2DC
ENCODING 41692
SWIDTH 854 0
DWIDTH 16 0
BBX 16 18 0 -2
BITMAP
07C0
1830
2008
4084
4184
8282
8282
8482
8882
8FE2
4084
4084
2008
1830
07C0
0000
0000
0000
ENDCHAR

STARTCHAR chs_A2DD
ENCODING 41693
SWIDTH 854 0
DWIDTH 16 0
BBX 16 18 0 -2
BITMAP
07C0
1830
2008
47C4
4404
8402
8782
8442
8042
8042
4084
4704
2008
1830
07C0
0000
0000
0000
ENDCHAR

STARTCHAR chs_A2DE
ENCODING 41694
SWIDTH 854 0
DWIDTH 16 0
BBX 16 18 0 -2
BITMAP
07C0
1830
2008
4184
4204
8402
8402
8782
8442
8442
4444
4384
2008
1830
07C0
0000
0000
0000
ENDCHAR

STARTCHAR chs_A2DF
ENCODING 41695
SWIDTH 854 0
DWIDTH 16 0
BBX 16 18 0 -2
BITMAP
07C0
1830
2008
47C4
4444
8042
8082
8082
8102
8102
4104
4104
2008
1830
07C0
0000
0000
0000
ENDCHAR

STARTCHAR chs_A2E0
ENCODING 41696
SWIDTH 854 0
DWIDTH 16 0
BBX 16 18 0 -2
BITMAP
07C0
1830
2008
4384
4444
8442
8442
8382
8442
8442
4444
4384
2008
1830
07C0
0000
0000
0000
ENDCHAR

STARTCHAR chs_A2E1
ENCODING 41697
SWIDTH 854 0
DWIDTH 16 0
BBX 16 18 0 -2
BITMAP
07C0
1830
2008
4384
4444
8442
8442
83C2
8042
8042
4084
4304
2008
1830
07C0
0000
0000
0000
ENDCHAR

STARTCHAR chs_A2E2
ENCODING 41698
SWIDTH 854 0
DWIDTH 16 0
BBX 16 18 0 -2
BITMAP
07C0
1830
2008
49C4
4A24
8A22
8A22
8A22
8A22
8A22
4A24
49C4
2008
1830
07C0
0000
0000
0000
ENDCHAR

STARTCHAR chs_A2E5
ENCODING 41701
SWIDTH 854 0
DWIDTH 16 0
BBX 16 18 0 -2
BITMAP
1010
2008
4004
8002
8002
8002
8012
BFFA
8002
8002
8002
8002
8002
4004
2008
1010
0000
0000
ENDCHAR

STARTCHAR chs_A2E6
ENCODING 41702
SWIDTH 854 0
DWIDTH 16 0
BBX 16 18 0 -2
BITMAP
1010
2008
4004
8022
9FF2
8002
8002
8002
8002
8012
BFFA
8002
8002
4004
2008
1010
0000
0000
ENDCHAR

STARTCHAR chs_A2E7
ENCODING 41703
SWIDTH 854 0
DWIDTH 16 0
BBX 16 18 0 -2
BITMAP
1010
2008
4024
9FF2
8002
8002
8042
8FE2
8002
8002
8012
BFFA
8002
4004
2008
1010
0000
0000
ENDCHAR

STARTCHAR chs_A2E8
ENCODING 41704
SWIDTH 854 0
DWIDTH 16 0
BBX 16 18 0 -2
BITMAP
1010
2008
4004
8002
BFFA
A44A
A44A
A44A
A87A
B00A
A00A
BFFA
8002
4004
2008
1010
0000
0000
ENDCHAR

STARTCHAR chs_A2E9
ENCODING 41705
SWIDTH 854 0
DWIDTH 16 0
BBX 16 18 0 -2
BITMAP
1010
2008
4024
9FF2
8202
8202
8222
9FF2
8422
8422
8422
8422
BFFA
4004
2008
1010
0000
0000
ENDCHAR

STARTCHAR chs_A2EA
ENCODING 41706
SWIDTH 854 0
DWIDTH 16 0
BBX 16 18 0 -2
BITMAP
1010
2008
4004
8202
8102
8012
BFFA
8002
8002
8442
8422
8812
9012
4004
2008
1010
0000
0000
ENDCHAR

STARTCHAR chs_A2EB
ENCODING 41707
SWIDTH 854 0
DWIDTH 16 0
BBX 16 18 0 -2
BITMAP
1010
2008
4204
8202
8202
8202
8222
83F2
BE02
8202
8202
8222
8222
41E4
2008
1010
0000
0000
ENDCHAR

STARTCHAR chs_A2EC
ENCODING 41708
SWIDTH 854 0
DWIDTH 16 0
BBX 16 18 0 -2
BITMAP
1010
2008
4084
8482
8482
8482
8482
8442
8842
8822
901A
A012
8002
4004
2008
1010
0000
0000
ENDCHAR

STARTCHAR chs_A2ED
ENCODING 41709
SWIDTH 854 0
DWIDTH 16 0
BBX 16 18 0 -2
BITMAP
1010
2008
4204
8202
8242
9FE2
8242
8242
8242
8442
844A
884A
903A
4004
2008
1010
0000
0000
ENDCHAR

STARTCHAR chs_A2EE
ENCODING 41710
SWIDTH 854 0
DWIDTH 16 0
BBX 16 18 0 -2
BITMAP
1010
2008
4104
8102
8102
8102
8112
BFFA
8102
8102
8102
8102
8102
4004
2008
1010
0000
0000
ENDCHAR

STARTCHAR chs_A2F1
ENCODING 41713
SWIDTH 854 0
DWIDTH 16 0
BBX 16 18 0 -2
BITMAP
0000
0380
0100
0100
0100
0100
0100
0100
0100
0100
0100
0100
0100
0100
0380
0000
0000
0000
ENDCHAR

STARTCHAR chs_A2F2
ENCODING 41714
SWIDTH 854 0
DWIDTH 16 0
BBX 16 18 0 -2
BITMAP
0000
0EE0
0440
0440
0440
0440
0440
0440
0440
0440
0440
0440
0440
0440
0EE0
0000
0000
0000
ENDCHAR

STARTCHAR chs_A2F3
ENCODING 41715
SWIDTH 854 0
DWIDTH 16 0
BBX 16 18 0 -2
BITMAP
0000
3BB8
1110
1110
1110
1110
1110
1110
1110
1110
1110
1110
1110
1110
3BB8
0000
0000
0000
ENDCHAR

STARTCHAR chs_A2F4
ENCODING 41716
SWIDTH 854 0
DWIDTH 16 0
BBX 16 18 0 -2
BITMAP
0000
771C
2208
2208
2208
2110
2110
2110
2110
20A0
20A0
20A0
20A0
2040
7040
0000
0000
0000
ENDCHAR

STARTCHAR chs_A2F5
ENCODING 41717
SWIDTH 854 0
DWIDTH 16 0
BBX 16 18 0 -2
BITMAP
0000
701C
2008
1010
1010
0820
0820
0820
0440
0440
0440
0280
0280
0100
0100
0000
0000
0000
ENDCHAR

STARTCHAR chs_A2F6
ENCODING 41718
SWIDTH 854 0
DWIDTH 16 0
BBX 16 18 0 -2
BITMAP
0000
71DC
2088
2088
2088
1108
1108
1108
1108
0A08
0A08
0A08
0A08
0408
041C
0000
0000
0000
ENDCHAR

STARTCHAR chs_A2F7
ENCODING 41719
SWIDTH 854 0
DWIDTH 16 0
BBX 16 18 0 -2
BITMAP
0000
E3FE
4124
4124
4124
2224
2224
2224
2224
1424
1424
1424
1424
0824
087E
0000
0000
0000
ENDCHAR

STARTCHAR chs_A2F8
ENCODING 41720
SWIDTH 854 0
DWIDTH 16 0
BBX 16 18 0 -2
BITMAP
0000
E3FE
4154
4154
4154
2254
2254
2254
2254
1454
1454
1454
1454
0854
08FE
0000
0000
0000
ENDCHAR

STARTCHAR chs_A2F9
ENCODING 41721
SWIDTH 854 0
DWIDTH 16 0
BBX 16 18 0 -2
BITMAP
0000
EE0E
4404
4208
4208
4110
40A0
4040
40A0
40A0
4110
4110
4208
4404
EE0E
0000
0000
0000
ENDCHAR

STARTCHAR chs_A2FA
ENCODING 41722
SWIDTH 854 0
DWIDTH 16 0
BBX 16 18 0 -2
BITMAP
0000
701C
2008
1010
0820
0440
0280
0100
0280
0280
0440
0820
1010
2008
701C
0000
0000
0000
ENDCHAR

STARTCHAR chs_A2FB
ENCODING 41723
SWIDTH 854 0
DWIDTH 16 0
BBX 16 18 0 -2
BITMAP
0000
E0EE
4044
2084
1104
1104
0A04
0404
0A04
0A04
1104
2084
2084
4044
E0EE
0000
0000
0000
ENDCHAR

STARTCHAR chs_A2FC
ENCODING 41724
SWIDTH 854 0
DWIDTH 16 0
BBX 16 18 0 -2
BITMAP
0000
E0FE
4054
2094
1114
1114
0A14
0414
0A14
0A14
1114
2094
2094
4054
E0FE
0000
0000
0000
ENDCHAR

STARTCHAR chs_A3A1
ENCODING 41889
SWIDTH 854 0
DWIDTH 16 0
BBX 16 18 0 -2
BITMAP
0000
1800
1800
1800
1800
1800
1800
1800
1800
1800
1800
0000
1800
1800
0000
0000
0000
0000
ENDCHAR

STARTCHAR chs_A3A2
ENCODING 41890
SWIDTH 854 0
DWIDTH 16 0
BBX 16 18 0 -2
BITMAP
0000
0240
0240
0240
0240
0000
0000
0000
0000
0000
0000
0000
0000
0000
0000
0000
0000
0000
ENDCHAR

STARTCHAR chs_A3A3
ENCODING 41891
SWIDTH 854 0
DWIDTH 16 0
BBX 16 18 0 -2
BITMAP
0000
0220
0220
0220
0220
3FFC
0440
0440
0440
0440
3FFC
0880
0880
0880
0880
0000
0000
0000
ENDCHAR

STARTCHAR chs_A3A4
ENCODING 41892
SWIDTH 854 0
DWIDTH 16 0
BBX 16 18 0 -2
BITMAP
0000
3838
1010
0820
0440
0280
0280
0100
0100
0FE0
0100
0100
0100
0100
0380
0000
0000
0000
ENDCHAR

STARTCHAR chs_A3A5
ENCODING 41893
SWIDTH 854 0
DWIDTH 16 0
BBX 16 18 0 -2
BITMAP
0000
1804
2408
2410
2420
2440
2480
1900
0260
0490
0890
1090
2090
4090
0060
0000
0000
0000
ENDCHAR

STARTCHAR chs_A3A6
ENCODING 41894
SWIDTH 854 0
DWIDTH 16 0
BBX 16 18 0 -2
BITMAP
0000
0600
0900
1080
1080
0900
0A00
0400
1C00
2270
4120
40A0
4044
21A4
1E18
0000
0000
0000
ENDCHAR

STARTCHAR chs_A3A7
ENCODING 41895
SWIDTH 854 0
DWIDTH 16 0
BBX 16 18 0 -2
BITMAP
0000
1000
1000
1000
2000
2000
4000
0000
0000
0000
0000
0000
0000
0000
0000
0000
0000
0000
ENDCHAR

STARTCHAR chs_A3A8
ENCODING 41896
SWIDTH 854 0
DWIDTH 16 0
BBX 16 18 0 -2
BITMAP
000C
0010
0020
0040
0040
0080
0080
0080
0080
0080
0080
0040
0040
0020
0010
000C
0000
0000
ENDCHAR

STARTCHAR chs_A3A9
ENCODING 41897
SWIDTH 854 0
DWIDTH 16 0
BBX 16 18 0 -2
BITMAP
6000
1000
0800
0400
0400
0200
0200
0200
0200
0200
0200
0400
0400
0800
1000
6000
0000
0000
ENDCHAR

STARTCHAR chs_A3AA
ENCODING 41898
SWIDTH 854 0
DWIDTH 16 0
BBX 16 18 0 -2
BITMAP
0000
0100
0100
0100
2108
1110
0920
0540
0380
0280
0440
0820
1010
0000
0000
0000
0000
0000
ENDCHAR

STARTCHAR chs_A3AB
ENCODING 41899
SWIDTH 854 0
DWIDTH 16 0
BBX 16 18 0 -2
BITMAP
0000
0000
0100
0100
0100
0100
0100
3FF8
0100
0100
0100
0100
0100
0000
0000
0000
0000
0000
ENDCHAR

STARTCHAR chs_A3AC
ENCODING 41900
SWIDTH 854 0
DWIDTH 16 0
BBX 16 18 0 -2
BITMAP
0000
0000
0000
0000
0000
0000
0000
0000
0000
0000
0000
0000
3000
3000
1000
2000
0000
0000
ENDCHAR

STARTCHAR chs_A3AD
ENCODING 41901
SWIDTH 854 0
DWIDTH 16 0
BBX 16 18 0 -2
BITMAP
0000
0000
0000
0000
0000
0000
0000
1FF0
0000
0000
0000
0000
0000
0000
0000
0000
0000
0000
ENDCHAR

STARTCHAR chs_A3AE
ENCODING 41902
SWIDTH 854 0
DWIDTH 16 0
BBX 16 18 0 -2
BITMAP
0000
0000
0000
0000
0000
0000
0000
0000
0000
0000
0000
0000
3000
3000
0000
0000
0000
0000
ENDCHAR

STARTCHAR chs_A3AF
ENCODING 41903
SWIDTH 854 0
DWIDTH 16 0
BBX 16 18 0 -2
BITMAP
0000
0002
0004
0008
0010
0020
0040
0080
0100
0200
0400
0800
1000
2000
4000
0000
0000
0000
ENDCHAR

STARTCHAR chs_A3B0
ENCODING 41904
SWIDTH 854 0
DWIDTH 16 0
BBX 16 18 0 -2
BITMAP
0000
07C0
0820
1010
1010
1010
1010
1010
1010
1010
1010
1010
1010
0820
07C0
0000
0000
0000
ENDCHAR

STARTCHAR chs_A3B1
ENCODING 41905
SWIDTH 854 0
DWIDTH 16 0
BBX 16 18 0 -2
BITMAP
0000
0100
0300
0500
0100
0100
0100
0100
0100
0100
0100
0100
0100
0100
07C0
0000
0000
0000
ENDCHAR

STARTCHAR chs_A3B2
ENCODING 41906
SWIDTH 854 0
DWIDTH 16 0
BBX 16 18 0 -2
BITMAP
0000
0780
0840
1020
1020
0020
0020
0040
0080
0100
0200
0400
0810
1010
1FF0
0000
0000
0000
ENDCHAR

STARTCHAR chs_A3B3
ENCODING 41907
SWIDTH 854 0
DWIDTH 16 0
BBX 16 18 0 -2
BITMAP
0000
07E0
0810
0010
0020
0040
01C0
0020
0010
0010
0010
0010
0020
00C0
0F00
0000
0000
0000
ENDCHAR

STARTCHAR chs_A3B4
ENCODING 41908
SWIDTH 854 0
DWIDTH 16 0
BBX 16 18 0 -2
BITMAP
0000
0180
0180
0280
0280
0480
0480
0880
0880
1080
1080
3FF0
0080
0080
03E0
0000
0000
0000
ENDCHAR

STARTCHAR chs_A3B5
ENCODING 41909
SWIDTH 854 0
DWIDTH 16 0
BBX 16 18 0 -2
BITMAP
0000
1FE0
1000
1000
1000
1000
1780
1840
1020
0020
0020
0040
0040
0380
1C00
0000
0000
0000
ENDCHAR

STARTCHAR chs_A3B6
ENCODING 41910
SWIDTH 854 0
DWIDTH 16 0
BBX 16 18 0 -2
BITMAP
0000
0180
0200
0400
0800
0800
1000
1780
1840
1020
1020
1020
1020
0840
0780
0000
0000
0000
ENDCHAR

STARTCHAR chs_A3B7
ENCODING 41911
SWIDTH 854 0
DWIDTH 16 0
BBX 16 18 0 -2
BITMAP
0000
1FF0
1010
1010
0020
0020
0040
0080
0080
0100
0100
0100
0200
0200
0200
0000
0000
0000
ENDCHAR

STARTCHAR chs_A3B8
ENCODING 41912
SWIDTH 854 0
DWIDTH 16 0
BBX 16 18 0 -2
BITMAP
0000
07C0
0820
1010
1010
1010
0820
07C0
0820
1010
1010
1010
1010
0820
07C0
0000
0000
0000
ENDCHAR

STARTCHAR chs_A3B9
ENCODING 41913
SWIDTH 854 0
DWIDTH 16 0
BBX 16 18 0 -2
BITMAP
0000
0780
0840
1020
1020
1020
1020
0860
07A0
0020
0040
0040
0080
0100
0600
0000
0000
0000
ENDCHAR

STARTCHAR chs_A3BA
ENCODING 41914
SWIDTH 854 0
DWIDTH 16 0
BBX 16 18 0 -2
BITMAP
0000
0000
0000
0000
0000
0000
0000
0000
0000
3000
3000
0000
3000
3000
0000
0000
0000
0000
ENDCHAR

STARTCHAR chs_A3BB
ENCODING 41915
SWIDTH 854 0
DWIDTH 16 0
BBX 16 18 0 -2
BITMAP
0000
0000
0000
0000
0000
0000
0000
0000
0000
3000
3000
0000
3000
3000
1000
2000
0000
0000
ENDCHAR

STARTCHAR chs_A3BC
ENCODING 41916
SWIDTH 854 0
DWIDTH 16 0
BBX 16 18 0 -2
BITMAP
0000
000C
0030
00C0
0300
0C00
3000
4000
3000
0C00
0300
00C0
0030
000C
0000
0000
0000
0000
ENDCHAR

STARTCHAR chs_A3BD
ENCODING 41917
SWIDTH 854 0
DWIDTH 16 0
BBX 16 18 0 -2
BITMAP
0000
0000
0000
0000
0000
0000
3FF8
0000
0000
3FF8
0000
0000
0000
0000
0000
0000
0000
0000
ENDCHAR

STARTCHAR chs_A3BE
ENCODING 41918
SWIDTH 854 0
DWIDTH 16 0
BBX 16 18 0 -2
BITMAP
0000
6000
1800
0600
0180
0060
0018
0004
0018
0060
0180
0600
1800
6000
0000
0000
0000
0000
ENDCHAR

STARTCHAR chs_A3BF
ENCODING 41919
SWIDTH 854 0
DWIDTH 16 0
BBX 16 18 0 -2
BITMAP
0000
0700
0880
10C0
18C0
18C0
0180
0300
0300
0300
0300
0000
0300
0300
0000
0000
0000
0000
ENDCHAR

STARTCHAR chs_A3C0
ENCODING 41920
SWIDTH 854 0
DWIDTH 16 0
BBX 16 18 0 -2
BITMAP
0000
1FE0
2010
0008
0E88
1188
2088
2088
2088
2088
1190
0E60
0000
0000
0000
0000
0000
0000
ENDCHAR

STARTCHAR chs_A3C1
ENCODING 41921
SWIDTH 854 0
DWIDTH 16 0
BBX 16 18 0 -2
BITMAP
0000
0100
0280
0280
0440
0440
0820
0FE0
1010
1010
2008
701C
0000
0000
0000
0000
0000
0000
ENDCHAR

STARTCHAR chs_A3C2
ENCODING 41922
SWIDTH 854 0
DWIDTH 16 0
BBX 16 18 0 -2
BITMAP
0000
7FE0
2010
2010
2010
2020
3FC0
2020
2010
2010
2010
7FE0
0000
0000
0000
0000
0000
0000
ENDCHAR

STARTCHAR chs_A3C3
ENCODING 41923
SWIDTH 854 0
DWIDTH 16 0
BBX 16 18 0 -2
BITMAP
0000
0FE0
1010
2008
2000
2000
2000
2000
2000
2008
1010
0FE0
0000
0000
0000
0000
0000
0000
ENDCHAR

STARTCHAR chs_A3C4
ENCODING 41924
SWIDTH 854 0
DWIDTH 16 0
BBX 16 18 0 -2
BITMAP
0000
7FE0
2010
2008
2008
2008
2008
2008
2008
2008
2010
7FE0
0000
0000
0000
0000
0000
0000
ENDCHAR

STARTCHAR chs_A3C5
ENCODING 41925
SWIDTH 854 0
DWIDTH 16 0
BBX 16 18 0 -2
BITMAP
0000
7FFC
2004
2004
2000
2020
3FE0
2020
2000
2004
2004
7FFC
0000
0000
0000
0000
0000
0000
ENDCHAR

STARTCHAR chs_A3C6
ENCODING 41926
SWIDTH 854 0
DWIDTH 16 0
BBX 16 18 0 -2
BITMAP
0000
7FFC
2004
2004
2000
2020
3FE0
2020
2000
2000
2000
7000
0000
0000
0000
0000
0000
0000
ENDCHAR

STARTCHAR chs_A3C7
ENCODING 41927
SWIDTH 854 0
DWIDTH 16 0
BBX 16 18 0 -2
BITMAP
0000
0FE8
1018
2008
2000
2000
2000
203C
2008
2008
1018
0FE8
0000
0000
0000
0000
0000
0000
ENDCHAR

STARTCHAR chs_A3C8
ENCODING 41928
SWIDTH 854 0
DWIDTH 16 0
BBX 16 18 0 -2
BITMAP
0000
701C
2008
2008
2008
2008
3FF8
2008
2008
2008
2008
701C
0000
0000
0000
0000
0000
0000
ENDCHAR

STARTCHAR chs_A3C9
ENCODING 41929
SWIDTH 854 0
DWIDTH 16 0
BBX 16 18 0 -2
BITMAP
0000
0380
0100
0100
0100
0100
0100
0100
0100
0100
0100
0380
0000
0000
0000
0000
0000
0000
ENDCHAR

STARTCHAR chs_A3CA
ENCODING 41930
SWIDTH 854 0
DWIDTH 16 0
BBX 16 18 0 -2
BITMAP
0000
0380
0100
0100
0100
0100
0100
0100
0100
0900
0900
0600
0000
0000
0000
0000
0000
0000
ENDCHAR

STARTCHAR chs_A3CB
ENCODING 41931
SWIDTH 854 0
DWIDTH 16 0
BBX 16 18 0 -2
BITMAP
0000
38E0
1080
1100
1200
1C00
1200
1100
1080
1040
1020
3838
0000
0000
0000
0000
0000
0000
ENDCHAR

STARTCHAR chs_A3CC
ENCODING 41932
SWIDTH 854 0
DWIDTH 16 0
BBX 16 18 0 -2
BITMAP
0000
7000
2000
2000
2000
2000
2000
2000
2000
2010
2010
7FF0
0000
0000
0000
0000
0000
0000
ENDCHAR

STARTCHAR chs_A3CD
ENCODING 41933
SWIDTH 854 0
DWIDTH 16 0
BBX 16 18 0 -2
BITMAP
0000
C006
600C
5014
4824
4444
4284
4104
4004
4004
4004
E00E
0000
0000
0000
0000
0000
0000
ENDCHAR

STARTCHAR chs_A3CE
ENCODING 41934
SWIDTH 854 0
DWIDTH 16 0
BBX 16 18 0 -2
BITMAP
0000
601C
3008
2808
2408
2208
2108
2088
2048
2028
2018
7008
0000
0000
0000
0000
0000
0000
ENDCHAR

STARTCHAR chs_A3CF
ENCODING 41935
SWIDTH 854 0
DWIDTH 16 0
BBX 16 18 0 -2
BITMAP
0000
07C0
0820
1010
2008
2008
2008
2008
2008
1010
0820
07C0
0000
0000
0000
0000
0000
0000
ENDCHAR

STARTCHAR chs_A3D0
ENCODING 41936
SWIDTH 854 0
DWIDTH 16 0
BBX 16 18 0 -2
BITMAP
0000
7FC0
2020
2010
2010
2020
3FC0
2000
2000
2000
2000
7000
0000
0000
0000
0000
0000
0000
ENDCHAR

STARTCHAR chs_A3D1
ENCODING 41937
SWIDTH 854 0
DWIDTH 16 0
BBX 16 18 0 -2
BITMAP
0000
07C0
0820
1010
2008
2008
2008
2008
2008
1190
0860
07C0
0030
0000
0000
0000
0000
0000
ENDCHAR

STARTCHAR chs_A3D2
ENCODING 41938
SWIDTH 854 0
DWIDTH 16 0
BBX 16 18 0 -2
BITMAP
0000
7FC0
2020
2010
2010
2020
3FC0
2400
2200
2100
2080
7070
0000
0000
0000
0000
0000
0000
ENDCHAR

STARTCHAR chs_A3D3
ENCODING 41939
SWIDTH 854 0
DWIDTH 16 0
BBX 16 18 0 -2
BITMAP
0000
0FE8
1018
2008
2000
1000
0FE0
0010
0008
2008
3010
2FE0
0000
0000
0000
0000
0000
0000
ENDCHAR

STARTCHAR chs_A3D4
ENCODING 41940
SWIDTH 854 0
DWIDTH 16 0
BBX 16 18 0 -2
BITMAP
0000
7FFC
4104
0100
0100
0100
0100
0100
0100
0100
0100
0380
0000
0000
0000
0000
0000
0000
ENDCHAR

STARTCHAR chs_A3D5
ENCODING 41941
SWIDTH 854 0
DWIDTH 16 0
BBX 16 18 0 -2
BITMAP
0000
701C
2008
2008
2008
2008
2008
2008
2008
2008
1010
0FE0
0000
0000
0000
0000
0000
0000
ENDCHAR

STARTCHAR chs_A3D6
ENCODING 41942
SWIDTH 854 0
DWIDTH 16 0
BBX 16 18 0 -2
BITMAP
0000
701C
2008
1010
1010
0820
0820
0440
0440
0280
0280
0100
0000
0000
0000
0000
0000
0000
ENDCHAR

STARTCHAR chs_A3D7
ENCODING 41943
SWIDTH 854 0
DWIDTH 16 0
BBX 16 18 0 -2
BITMAP
0000
E38E
4104
4104
4104
2288
2288
2288
1450
1450
0820
0820
0000
0000
0000
0000
0000
0000
ENDCHAR

STARTCHAR chs_A3D8
ENCODING 41944
SWIDTH 854 0
DWIDTH 16 0
BBX 16 18 0 -2
BITMAP
0000
701C
1010
0820
0440
0280
0100
0280
0440
0820
1010
701C
0000
0000
0000
0000
0000
0000
ENDCHAR

STARTCHAR chs_A3D9
ENCODING 41945
SWIDTH 854 0
DWIDTH 16 0
BBX 16 18 0 -2
BITMAP
0000
701C
2008
1010
0820
0440
0280
0100
0100
0100
0100
0380
0000
0000
0000
0000
0000
0000
ENDCHAR

STARTCHAR chs_A3DA
ENCODING 41946
SWIDTH 854 0
DWIDTH 16 0
BBX 16 18 0 -2
BITMAP
0000
3FF8
2010
2020
0040
0080
0100
0200
0400
0808
1008
3FF8
0000
0000
0000
0000
0000
0000
ENDCHAR

STARTCHAR chs_A3DB
ENCODING 41947
SWIDTH 854 0
DWIDTH 16 0
BBX 16 18 0 -2
BITMAP
0000
001C
0010
0010
0010
0010
0010
0010
0010
0010
0010
0010
0010
0010
001C
0000
0000
0000
ENDCHAR

STARTCHAR chs_A3DC
ENCODING 41948
SWIDTH 854 0
DWIDTH 16 0
BBX 16 18 0 -2
BITMAP
0000
4000
2000
1000
0800
0400
0200
0100
0080
0040
0020
0010
0008
0004
0002
0000
0000
0000
ENDCHAR

STARTCHAR chs_A3DD
ENCODING 41949
SWIDTH 854 0
DWIDTH 16 0
BBX 16 18 0 -2
BITMAP
0000
7000
1000
1000
1000
1000
1000
1000
1000
1000
1000
1000
1000
1000
7000
0000
0000
0000
ENDCHAR

STARTCHAR chs_A3DE
ENCODING 41950
SWIDTH 854 0
DWIDTH 16 0
BBX 16 18 0 -2
BITMAP
0000
0100
0280
0440
0820
0000
0000
0000
0000
0000
0000
0000
0000
0000
0000
0000
0000
0000
ENDCHAR

STARTCHAR chs_A3DF
ENCODING 41951
SWIDTH 854 0
DWIDTH 16 0
BBX 16 18 0 -2
BITMAP
0000
0000
0000
0000
0000
0000
0000
0000
0000
0000
0000
0000
0000
0000
0000
FFFE
0000
0000
ENDCHAR

STARTCHAR chs_A3E0
ENCODING 41952
SWIDTH 854 0
DWIDTH 16 0
BBX 16 18 0 -2
BITMAP
0000
0010
0010
0010
0008
0008
0004
0000
0000
0000
0000
0000
0000
0000
0000
0000
0000
0000
ENDCHAR

STARTCHAR chs_A3E1
ENCODING 41953
SWIDTH 854 0
DWIDTH 16 0
BBX 16 18 0 -2
BITMAP
0000
0000
0000
0000
0000
0F80
1040
0040
0FC0
1040
1050
0FA0
0000
0000
0000
0000
0000
0000
ENDCHAR

STARTCHAR chs_A3E2
ENCODING 41954
SWIDTH 854 0
DWIDTH 16 0
BBX 16 18 0 -2
BITMAP
0000
0800
0800
0800
0800
0B80
0C40
0820
0820
0820
0C40
0B80
0000
0000
0000
0000
0000
0000
ENDCHAR

STARTCHAR chs_A3E3
ENCODING 41955
SWIDTH 854 0
DWIDTH 16 0
BBX 16 18 0 -2
BITMAP
0000
0000
0000
0000
0000
07C0
0820
1000
1000
1000
0820
07C0
0000
0000
0000
0000
0000
0000
ENDCHAR

STARTCHAR chs_A3E4
ENCODING 41956
SWIDTH 854 0
DWIDTH 16 0
BBX 16 18 0 -2
BITMAP
0000
0020
0020
0020
0020
03A0
0460
0820
0820
0820
0460
03A0
0000
0000
0000
0000
0000
0000
ENDCHAR

STARTCHAR chs_A3E5
ENCODING 41957
SWIDTH 854 0
DWIDTH 16 0
BBX 16 18 0 -2
BITMAP
0000
0000
0000
0000
0000
0380
0440
0820
0FE0
0800
0420
03C0
0000
0000
0000
0000
0000
0000
ENDCHAR

STARTCHAR chs_A3E6
ENCODING 41958
SWIDTH 854 0
DWIDTH 16 0
BBX 16 18 0 -2
BITMAP
0000
00C0
0120
0120
0100
0100
07C0
0100
0100
0100
0100
0100
0100
0100
0100
0000
0000
0000
ENDCHAR

STARTCHAR chs_A3E7
ENCODING 41959
SWIDTH 854 0
DWIDTH 16 0
BBX 16 18 0 -2
BITMAP
0000
0000
0000
0000
0000
03A0
0460
0820
0820
0460
03A0
0020
0020
0840
0780
0000
0000
0000
ENDCHAR

STARTCHAR chs_A3E8
ENCODING 41960
SWIDTH 854 0
DWIDTH 16 0
BBX 16 18 0 -2
BITMAP
0000
0800
0800
0800
0800
09C0
0A20
0C20
0820
0820
0820
0820
0000
0000
0000
0000
0000
0000
ENDCHAR

STARTCHAR chs_A3E9
ENCODING 41961
SWIDTH 854 0
DWIDTH 16 0
BBX 16 18 0 -2
BITMAP
0000
0100
0100
0000
0100
0100
0100
0100
0100
0100
0100
0100
0000
0000
0000
0000
0000
0000
ENDCHAR

STARTCHAR chs_A3EA
ENCODING 41962
SWIDTH 854 0
DWIDTH 16 0
BBX 16 18 0 -2
BITMAP
0000
0100
0100
0000
0100
0100
0100
0100
0100
0100
0100
0100
0500
0500
0200
0000
0000
0000
ENDCHAR

STARTCHAR chs_A3EB
ENCODING 41963
SWIDTH 854 0
DWIDTH 16 0
BBX 16 18 0 -2
BITMAP
0000
0800
0800
0800
0800
0880
0900
0A00
0D00
0880
0840
0820
0000
0000
0000
0000
0000
0000
ENDCHAR

STARTCHAR chs_A3EC
ENCODING 41964
SWIDTH 854 0
DWIDTH 16 0
BBX 16 18 0 -2
BITMAP
0000
0300
0100
0100
0100
0100
0100
0100
0100
0100
0140
0180
0000
0000
0000
0000
0000
0000
ENDCHAR

STARTCHAR chs_A3ED
ENCODING 41965
SWIDTH 854 0
DWIDTH 16 0
BBX 16 18 0 -2
BITMAP
0000
0000
0000
0000
0000
1AC0
0D20
0920
0920
0920
0920
0930
0000
0000
0000
0000
0000
0000
ENDCHAR

STARTCHAR chs_A3EE
ENCODING 41966
SWIDTH 854 0
DWIDTH 16 0
BBX 16 18 0 -2
BITMAP
0000
0000
0000
0000
0000
1B00
0C80
0880
0880
0880
0880
08C0
0000
0000
0000
0000
0000
0000
ENDCHAR

STARTCHAR chs_A3EF
ENCODING 41967
SWIDTH 854 0
DWIDTH 16 0
BBX 16 18 0 -2
BITMAP
0000
0000
0000
0000
0000
0700
0880
1040
1040
1040
0880
0700
0000
0000
0000
0000
0000
0000
ENDCHAR

STARTCHAR chs_A3F0
ENCODING 41968
SWIDTH 854 0
DWIDTH 16 0
BBX 16 18 0 -2
BITMAP
0000
0000
0000
0000
0000
1B80
0C40
0820
0820
0820
0C40
0B80
0800
0800
0800
0000
0000
0000
ENDCHAR

STARTCHAR chs_A3F1
ENCODING 41969
SWIDTH 854 0
DWIDTH 16 0
BBX 16 18 0 -2
BITMAP
0000
0000
0000
0000
0000
03A0
0460
0820
0820
0820
0460
03A0
0020
0020
0030
0000
0000
0000
ENDCHAR

STARTCHAR chs_A3F2
ENCODING 41970
SWIDTH 854 0
DWIDTH 16 0
BBX 16 18 0 -2
BITMAP
0000
0000
0000
0000
0000
0580
0240
0200
0200
0200
0200
0200
0000
0000
0000
0000
0000
0000
ENDCHAR

STARTCHAR chs_A3F3
ENCODING 41971
SWIDTH 854 0
DWIDTH 16 0
BBX 16 18 0 -2
BITMAP
0000
0000
0000
0000
0000
0780
0840
0800
0780
0040
0840
0780
0000
0000
0000
0000
0000
0000
ENDCHAR

STARTCHAR chs_A3F4
ENCODING 41972
SWIDTH 854 0
DWIDTH 16 0
BBX 16 18 0 -2
BITMAP
0000
0100
0100
0100
0100
07C0
0100
0100
0100
0100
0140
0080
0000
0000
0000
0000
0000
0000
ENDCHAR

STARTCHAR chs_A3F5
ENCODING 41973
SWIDTH 854 0
DWIDTH 16 0
BBX 16 18 0 -2
BITMAP
0000
0000
0000
0000
0000
0C40
0440
0440
0440
0440
04C0
0360
0000
0000
0000
0000
0000
0000
ENDCHAR

STARTCHAR chs_A3F6
ENCODING 41974
SWIDTH 854 0
DWIDTH 16 0
BBX 16 18 0 -2
BITMAP
0000
0000
0000
0000
0000
0820
0820
0440
0440
0280
0280
0100
0000
0000
0000
0000
0000
0000
ENDCHAR

STARTCHAR chs_A3F7
ENCODING 41975
SWIDTH 854 0
DWIDTH 16 0
BBX 16 18 0 -2
BITMAP
0000
0000
0000
0000
0000
1110
0920
0920
0AA0
0AA0
0440
0440
0000
0000
0000
0000
0000
0000
ENDCHAR

STARTCHAR chs_A3F8
ENCODING 41976
SWIDTH 854 0
DWIDTH 16 0
BBX 16 18 0 -2
BITMAP
0000
0000
0000
0000
0000
0820
0440
0280
0100
0280
0440
0820
0000
0000
0000
0000
0000
0000
ENDCHAR

STARTCHAR chs_A3F9
ENCODING 41977
SWIDTH 854 0
DWIDTH 16 0
BBX 16 18 0 -2
BITMAP
0000
0000
0000
0000
0000
0820
0440
0440
0280
0100
0100
0200
0200
0400
0800
0000
0000
0000
ENDCHAR

STARTCHAR chs_A3FA
ENCODING 41978
SWIDTH 854 0
DWIDTH 16 0
BBX 16 18 0 -2
BITMAP
0000
0000
0000
0000
0000
0FC0
0840
0080
0100
0200
0440
0FC0
0000
0000
0000
0000
0000
0000
ENDCHAR

STARTCHAR chs_A3FB
ENCODING 41979
SWIDTH 854 0
DWIDTH 16 0
BBX 16 18 0 -2
BITMAP
0004
0008
0008
0008
0008
0008
0010
0020
0010
0008
0008
0008
0008
0008
0004
0000
0000
0000
ENDCHAR

STARTCHAR chs_A3FC
ENCODING 41980
SWIDTH 854 0
DWIDTH 16 0
BBX 16 18 0 -2
BITMAP
0000
0100
0100
0100
0100
0100
0100
0100
0100
0100
0100
0100
0100
0100
0100
0000
0000
0000
ENDCHAR

STARTCHAR chs_A3FD
ENCODING 41981
SWIDTH 854 0
DWIDTH 16 0
BBX 16 18 0 -2
BITMAP
4000
2000
2000
2000
2000
2000
1000
0800
1000
2000
2000
2000
2000
2000
4000
0000
0000
0000
ENDCHAR

STARTCHAR chs_A3FE
ENCODING 41982
SWIDTH 854 0
DWIDTH 16 0
BBX 16 18 0 -2
BITMAP
FFFE
0000
0000
0000
0000
0000
0000
0000
0000
0000
0000
0000
0000
0000
0000
0000
0000
0000
ENDCHAR

STARTCHAR chs_A4A1
ENCODING 42145
SWIDTH 854 0
DWIDTH 16 0
BBX 16 18 0 -2
BITMAP
0000
0000
0000
0400
0400
05F0
3E00
0440
07E0
0C90
1488
2308
2208
2510
1820
00C0
0000
0000
ENDCHAR

STARTCHAR chs_A4A2
ENCODING 42146
SWIDTH 854 0
DWIDTH 16 0
BBX 16 18 0 -2
BITMAP
0400
0400
0460
0780
7C00
0440
0440
1FF0
2488
4484
4504
4204
2604
1908
0030
0000
0000
0000
ENDCHAR

STARTCHAR chs_A4A3
ENCODING 42147
SWIDTH 854 0
DWIDTH 16 0
BBX 16 18 0 -2
BITMAP
0000
0000
0000
0000
0000
1000
0800
0820
0810
0808
0818
0910
0A00
0600
0000
0000
0000
0000
ENDCHAR

STARTCHAR chs_A4A4
ENCODING 42148
SWIDTH 854 0
DWIDTH 16 0
BBX 16 18 0 -2
BITMAP
0000
0000
0000
2000
1000
1010
1028
1004
1002
2002
2106
2204
1400
0C00
0000
0000
0000
0000
ENDCHAR

STARTCHAR chs_A4A5
ENCODING 42149
SWIDTH 854 0
DWIDTH 16 0
BBX 16 18 0 -2
BITMAP
0000
0800
0700
0080
0100
0000
11C0
0E20
0020
0020
0040
0040
0080
0300
0C00
0000
0000
0000
ENDCHAR

STARTCHAR chs_A4A6
ENCODING 42150
SWIDTH 854 0
DWIDTH 16 0
BBX 16 18 0 -2
BITMAP
0800
0780
0040
0180
0000
21E0
1E10
0010
0010
0010
0020
0020
00C0
0100
0E00
0000
0000
0000
ENDCHAR

STARTCHAR chs_A4A7
ENCODING 42151
SWIDTH 854 0
DWIDTH 16 0
BBX 16 18 0 -2
BITMAP
0000
0000
0400
0300
0080
0100
0000
03C0
1C80
0100
0300
0480
0880
1040
2038
0000
0000
0000
ENDCHAR

STARTCHAR chs_A4A8
ENCODING 42152
SWIDTH 854 0
DWIDTH 16 0
BBX 16 18 0 -2
BITMAP
0800
0700
0080
0100
0000
03C0
3C80
0100
0200
0300
0480
0480
0880
1040
203C
0000
0000
0000
ENDCHAR

STARTCHAR chs_A4A9
ENCODING 42153
SWIDTH 854 0
DWIDTH 16 0
BBX 16 18 0 -2
BITMAP
0000
0000
0000
0400
0400
0408
3F04
0402
05E4
0610
0C08
1408
3408
1530
08C0
0000
0000
0000
ENDCHAR

STARTCHAR chs_A4AA
ENCODING 42154
SWIDTH 854 0
DWIDTH 16 0
BBX 16 18 0 -2
BITMAP
0000
0400
0408
0784
3C02
040C
0400
05F0
0608
1C04
2404
6404
3518
0CE0
0400
0000
0000
0000
ENDCHAR

STARTCHAR chs_A4AB
ENCODING 42155
SWIDTH 854 0
DWIDTH 16 0
BBX 16 18 0 -2
BITMAP
0000
0200
0200
0200
0210
2388
1C44
0442
0442
0444
0840
0840
1080
2480
4300
0000
0000
0000
ENDCHAR

STARTCHAR chs_A4AC
ENCODING 42156
SWIDTH 854 0
DWIDTH 16 0
BBX 16 18 0 -2
BITMAP
0008
0404
0412
0408
0424
4710
3888
0884
0884
0888
1090
1080
2100
4900
8600
0000
0000
0000
ENDCHAR

STARTCHAR chs_A4AD
ENCODING 42157
SWIDTH 854 0
DWIDTH 16 0
BBX 16 18 0 -2
BITMAP
0200
0200
0260
0380
1D00
00E0
0380
1C40
0040
03E0
0020
1000
1000
0800
07C0
0000
0000
0000
ENDCHAR

STARTCHAR chs_A4AE
ENCODING 42158
SWIDTH 854 0
DWIDTH 16 0
BBX 16 18 0 -2
BITMAP
0400
0408
04C4
0712
3A08
01C4
0700
3880
0080
07C0
0040
2000
2000
1000
0F80
0000
0000
0000
ENDCHAR

STARTCHAR chs_A4AF
ENCODING 42159
SWIDTH 854 0
DWIDTH 16 0
BBX 16 18 0 -2
BITMAP
0000
0100
0080
0080
0100
0200
0400
0800
1000
0800
0400
0200
0100
0080
0080
0000
0000
0000
ENDCHAR

STARTCHAR chs_A4B0
ENCODING 42160
SWIDTH 854 0
DWIDTH 16 0
BBX 16 18 0 -2
BITMAP
0000
0208
0104
0122
0210
0408
0800
1000
2000
1000
0800
0400
0200
0100
0100
0000
0000
0000
ENDCHAR

STARTCHAR chs_A4B1
ENCODING 42161
SWIDTH 854 0
DWIDTH 16 0
BBX 16 18 0 -2
BITMAP
0000
0080
2040
1040
1040
2078
27C0
4040
4040
4040
5040
5040
6040
2080
0100
0000
0000
0000
ENDCHAR

STARTCHAR chs_A4B2
ENCODING 42162
SWIDTH 854 0
DWIDTH 16 0
BBX 16 18 0 -2
BITMAP
0008
2084
1052
1048
1044
2040
207C
47C0
4040
4040
5040
5040
6040
2080
0100
0000
0000
0000
ENDCHAR

STARTCHAR chs_A4B3
ENCODING 42163
SWIDTH 854 0
DWIDTH 16 0
BBX 16 18 0 -2
BITMAP
0000
0000
1000
0FE0
0080
0300
0400
0000
2000
2000
2000
1010
0FF8
0000
0000
0000
0000
0000
ENDCHAR

STARTCHAR chs_A4B4
ENCODING 42164
SWIDTH 854 0
DWIDTH 16 0
BBX 16 18 0 -2
BITMAP
0000
0008
1004
0FD2
0088
0304
0400
0000
2000
2000
2000
1010
0FF8
0000
0000
0000
0000
0000
ENDCHAR

STARTCHAR chs_A4B5
ENCODING 42165
SWIDTH 854 0
DWIDTH 16 0
BBX 16 18 0 -2
BITMAP
0000
0400
0230
02C0
3F00
0100
0080
0040
01E0
0820
1000
1000
1000
0800
07E0
0000
0000
0000
ENDCHAR

STARTCHAR chs_A4B6
ENCODING 42166
SWIDTH 854 0
DWIDTH 16 0
BBX 16 18 0 -2
BITMAP
0000
0408
0204
02D2
3F08
0104
0080
0040
01E0
0820
1000
1000
1000
0800
07E0
0000
0000
0000
ENDCHAR

STARTCHAR chs_A4B7
ENCODING 42167
SWIDTH 854 0
DWIDTH 16 0
BBX 16 18 0 -2
BITMAP
0000
2000
1000
1000
1000
1000
1000
1000
1000
1000
1010
1020
1040
0980
0600
0000
0000
0000
ENDCHAR

STARTCHAR chs_A4B8
ENCODING 42168
SWIDTH 854 0
DWIDTH 16 0
BBX 16 18 0 -2
BITMAP
0000
2010
1008
1024
1010
1008
1000
1000
1000
1000
1010
1020
1040
0980
0600
0000
0000
0000
ENDCHAR

STARTCHAR chs_A4B9
ENCODING 42169
SWIDTH 854 0
DWIDTH 16 0
BBX 16 18 0 -2
BITMAP
0000
0300
0100
4100
3FF8
0100
0700
0980
0940
0940
0640
0040
0080
0080
0100
0600
0000
0000
ENDCHAR

STARTCHAR chs_A4BA
ENCODING 42170
SWIDTH 854 0
DWIDTH 16 0
BBX 16 18 0 -2
BITMAP
0308
0124
0112
4108
3FF0
0100
0700
0980
0940
0940
0640
0040
0080
0080
0100
0600
0000
0000
ENDCHAR

STARTCHAR chs_A4BB
ENCODING 42171
SWIDTH 854 0
DWIDTH 16 0
BBX 16 18 0 -2
BITMAP
0000
0080
1040
0840
0840
0BFC
7C40
0840
0840
0A40
0940
0880
0800
0800
07F0
0000
0000
0000
ENDCHAR

STARTCHAR chs_A4BC
ENCODING 42172
SWIDTH 854 0
DWIDTH 16 0
BBX 16 18 0 -2
BITMAP
0008
0084
1052
0848
0844
0BF0
7C40
0840
0840
0A40
0940
0880
0800
0800
07F0
0000
0000
0000
ENDCHAR

STARTCHAR chs_A4BD
ENCODING 42173
SWIDTH 854 0
DWIDTH 16 0
BBX 16 18 0 -2
BITMAP
0000
1180
0E40
0080
0300
0410
18F8
7F80
0200
0400
0400
0400
0200
01F0
0000
0000
0000
0000
ENDCHAR

STARTCHAR chs_A4BE
ENCODING 42174
SWIDTH 854 0
DWIDTH 16 0
BBX 16 18 0 -2
BITMAP
0008
11A4
0E52
0088
0100
0610
18F8
7F80
0200
0400
0400
0400
0200
01F0
0000
0000
0000
0000
ENDCHAR

STARTCHAR chs_A4BF
ENCODING 42175
SWIDTH 854 0
DWIDTH 16 0
BBX 16 18 0 -2
BITMAP
0000
0400
0400
0700
3C00
05E0
0430
0840
0800
1000
1200
2200
2108
40FC
0000
0000
0000
0000
ENDCHAR

STARTCHAR chs_A4C0
ENCODING 42176
SWIDTH 854 0
DWIDTH 16 0
BBX 16 18 0 -2
BITMAP
0008
0404
0412
4708
3C04
09E0
0830
0840
1000
1000
1200
2200
2108
40FC
0000
0000
0000
0000
ENDCHAR

STARTCHAR chs_A4C1
ENCODING 42177
SWIDTH 854 0
DWIDTH 16 0
BBX 16 18 0 -2
BITMAP
0000
0200
0200
0280
03C0
7E00
0400
07C0
0420
0C10
0810
0010
0020
0020
00C0
0300
0000
0000
ENDCHAR

STARTCHAR chs_A4C2
ENCODING 42178
SWIDTH 854 0
DWIDTH 16 0
BBX 16 18 0 -2
BITMAP
0000
0408
0404
0512
0788
7C04
0800
0BC0
0C20
1810
1010
0010
0020
0020
00C0
0300
0000
0000
ENDCHAR

STARTCHAR chs_A4C3
ENCODING 42179
SWIDTH 854 0
DWIDTH 16 0
BBX 16 18 0 -2
BITMAP
0000
0000
0000
0000
0000
0000
0000
00C0
1F20
0810
0010
0010
0020
0040
0180
0000
0000
0000
ENDCHAR

STARTCHAR chs_A4C4
ENCODING 42180
SWIDTH 854 0
DWIDTH 16 0
BBX 16 18 0 -2
BITMAP
0000
0000
0000
01E0
0610
7808
2008
0008
0008
0010
0010
0020
00C0
0700
0000
0000
0000
0000
ENDCHAR

STARTCHAR chs_A4C5
ENCODING 42181
SWIDTH 854 0
DWIDTH 16 0
BBX 16 18 0 -2
BITMAP
0008
0004
0012
03C8
0C24
F010
4010
0010
0010
0020
0020
0040
0180
0E00
0000
0000
0000
0000
ENDCHAR

STARTCHAR chs_A4C6
ENCODING 42182
SWIDTH 854 0
DWIDTH 16 0
BBX 16 18 0 -2
BITMAP
0000
0000
0000
0008
00FC
7FC0
2100
0200
0400
0400
0400
0400
0400
0200
01F0
0000
0000
0000
ENDCHAR

STARTCHAR chs_A4C7
ENCODING 42183
SWIDTH 854 0
DWIDTH 16 0
BBX 16 18 0 -2
BITMAP
0000
0000
0000
0008
00FC
7FC0
2108
0204
0412
0408
0404
0400
0400
0200
01F0
0000
0000
0000
ENDCHAR

STARTCHAR chs_A4C8
ENCODING 42184
SWIDTH 854 0
DWIDTH 16 0
BBX 16 18 0 -2
BITMAP
0000
0000
0200
0100
0100
0120
0130
01C0
0700
0800
1000
1000
1000
0800
07F0
0000
0000
0000
ENDCHAR

STARTCHAR chs_A4C9
ENCODING 42185
SWIDTH 854 0
DWIDTH 16 0
BBX 16 18 0 -2
BITMAP
0008
0004
0212
0108
0104
0120
0130
01C0
0700
0800
1000
1000
1000
0800
07F0
0000
0000
0000
ENDCHAR

STARTCHAR chs_A4CA
ENCODING 42186
SWIDTH 854 0
DWIDTH 16 0
BBX 16 18 0 -2
BITMAP
0000
0400
0410
0408
0784
3C04
0408
0820
0820
1020
1040
23E0
4450
0448
0384
0000
0000
0000
ENDCHAR

STARTCHAR chs_A4CB
ENCODING 42187
SWIDTH 854 0
DWIDTH 16 0
BBX 16 18 0 -2
BITMAP
0000
2000
1000
10F8
1308
2010
2000
2000
4000
4000
4A00
5200
5108
20FC
2000
0000
0000
0000
ENDCHAR

STARTCHAR chs_A4CC
ENCODING 42188
SWIDTH 854 0
DWIDTH 16 0
BBX 16 18 0 -2
BITMAP
0000
0200
0200
1100
11F0
1308
1504
1904
1104
2A04
2A68
4498
4494
4A62
3202
0000
0000
0000
ENDCHAR

STARTCHAR chs_A4CD
ENCODING 42189
SWIDTH 854 0
DWIDTH 16 0
BBX 16 18 0 -2
BITMAP
0000
0800
0800
0800
0860
3E90
0908
0A08
0C08
1808
2810
48F0
4918
2924
18C2
0000
0000
0000
ENDCHAR

STARTCHAR chs_A4CE
ENCODING 42190
SWIDTH 854 0
DWIDTH 16 0
BBX 16 18 0 -2
BITMAP
0000
0000
0000
07C0
1930
2108
4204
4204
4204
4404
4408
2808
1010
0020
00C0
0000
0000
0000
ENDCHAR

STARTCHAR chs_A4CF
ENCODING 42191
SWIDTH 854 0
DWIDTH 16 0
BBX 16 18 0 -2
BITMAP
0000
2080
1040
1040
1440
23F8
2040
2040
4040
4840
4840
53C0
5470
6448
2384
0000
0000
0000
ENDCHAR

STARTCHAR chs_A4D0
ENCODING 42192
SWIDTH 854 0
DWIDTH 16 0
BBX 16 18 0 -2
BITMAP
0008
2084
1052
1048
1444
23F0
2040
2040
4040
4840
4840
53C0
5470
6448
2384
0000
0000
0000
ENDCHAR

STARTCHAR chs_A4D1
ENCODING 42193
SWIDTH 854 0
DWIDTH 16 0
BBX 16 18 0 -2
BITMAP
000C
2092
1052
104C
1440
23F0
2040
2040
4040
4840
4840
53C0
5470
6448
2384
0000
0000
0000
ENDCHAR

STARTCHAR chs_A4D2
ENCODING 42194
SWIDTH 854 0
DWIDTH 16 0
BBX 16 18 0 -2
BITMAP
0000
0000
0200
3E20
0420
0830
0828
1024
1020
2020
2040
2040
2040
1080
0F00
0000
0000
0000
ENDCHAR

STARTCHAR chs_A4D3
ENCODING 42195
SWIDTH 854 0
DWIDTH 16 0
BBX 16 18 0 -2
BITMAP
0008
0004
0212
3E08
0424
0830
0828
1024
1020
2020
2040
2040
2040
1080
0F00
0000
0000
0000
ENDCHAR

STARTCHAR chs_A4D4
ENCODING 42196
SWIDTH 854 0
DWIDTH 16 0
BBX 16 18 0 -2
BITMAP
000C
0012
0212
3E0C
0420
0830
0828
1024
1020
2020
2040
2040
2040
1080
0F00
0000
0000
0000
ENDCHAR

STARTCHAR chs_A4D5
ENCODING 42197
SWIDTH 854 0
DWIDTH 16 0
BBX 16 18 0 -2
BITMAP
0000
0300
0080
00C0
0100
0200
0200
0100
00E0
0398
0484
448C
5880
2680
0100
0000
0000
0000
ENDCHAR

STARTCHAR chs_A4D6
ENCODING 42198
SWIDTH 854 0
DWIDTH 16 0
BBX 16 18 0 -2
BITMAP
0008
0304
0092
00C8
0104
0200
0200
0100
00E0
0398
0484
448C
5880
2680
0100
0000
0000
0000
ENDCHAR

STARTCHAR chs_A4D7
ENCODING 42199
SWIDTH 854 0
DWIDTH 16 0
BBX 16 18 0 -2
BITMAP
000C
0312
0092
00CC
0100
0200
0200
0100
00E0
0398
0484
448C
5880
2680
0100
0000
0000
0000
ENDCHAR

STARTCHAR chs_A4D8
ENCODING 42200
SWIDTH 854 0
DWIDTH 16 0
BBX 16 18 0 -2
BITMAP
0000
0000
0000
0000
0600
0980
1040
6020
0018
0006
0000
0000
0000
0000
0000
0000
0000
0000
ENDCHAR

STARTCHAR chs_A4D9
ENCODING 42201
SWIDTH 854 0
DWIDTH 16 0
BBX 16 18 0 -2
BITMAP
0000
0008
0004
0012
0608
0984
1040
6020
0018
0006
0000
0000
0000
0000
0000
0000
0000
0000
ENDCHAR

STARTCHAR chs_A4DA
ENCODING 42202
SWIDTH 854 0
DWIDTH 16 0
BBX 16 18 0 -2
BITMAP
0000
0018
0024
0024
0618
0980
1040
6020
0018
0006
0000
0000
0000
0000
0000
0000
0000
0000
ENDCHAR

STARTCHAR chs_A4DB
ENCODING 42203
SWIDTH 854 0
DWIDTH 16 0
BBX 16 18 0 -2
BITMAP
0000
2070
13C0
1040
1040
2440
23F8
2040
4040
4840
4840
53C0
5470
6448
2384
0000
0000
0000
ENDCHAR

STARTCHAR chs_A4DC
ENCODING 42204
SWIDTH 854 0
DWIDTH 16 0
BBX 16 18 0 -2
BITMAP
0008
2064
13C2
1048
1044
2440
23F8
2040
4040
4840
4840
53C0
5470
6448
2384
0000
0000
0000
ENDCHAR

STARTCHAR chs_A4DD
ENCODING 42205
SWIDTH 854 0
DWIDTH 16 0
BBX 16 18 0 -2
BITMAP
0000
20EC
1752
1052
104C
2440
23F0
2040
4040
4840
4840
53C0
5470
6448
2384
0000
0000
0000
ENDCHAR

STARTCHAR chs_A4DE
ENCODING 42206
SWIDTH 854 0
DWIDTH 16 0
BBX 16 18 0 -2
BITMAP
0000
0100
2100
1FF0
0120
0100
1100
0FE0
0100
0100
0100
1D00
23C0
2130
1E08
0000
0000
0000
ENDCHAR

STARTCHAR chs_A4DF
ENCODING 42207
SWIDTH 854 0
DWIDTH 16 0
BBX 16 18 0 -2
BITMAP
0000
0000
1300
0C80
0080
0080
0100
0110
0110
1A20
27A0
4470
4848
3044
0080
0100
0000
0000
ENDCHAR

STARTCHAR chs_A4E0
ENCODING 42208
SWIDTH 854 0
DWIDTH 16 0
BBX 16 18 0 -2
BITMAP
0000
0800
0400
0480
07C0
7C08
0404
1C02
2606
2608
1600
0C10
0810
0818
07F0
0000
0000
0000
ENDCHAR

STARTCHAR chs_A4E1
ENCODING 42209
SWIDTH 854 0
DWIDTH 16 0
BBX 16 18 0 -2
BITMAP
0000
0100
2080
1080
1080
1FC0
1120
2910
4508
4208
4508
4810
3010
0020
00C0
0000
0000
0000
ENDCHAR

STARTCHAR chs_A4E2
ENCODING 42210
SWIDTH 854 0
DWIDTH 16 0
BBX 16 18 0 -2
BITMAP
0200
0200
0200
0200
23C0
1E00
0410
0408
44C8
3F08
0408
0408
0408
0408
03F0
0000
0000
0000
ENDCHAR

STARTCHAR chs_A4E3
ENCODING 42211
SWIDTH 854 0
DWIDTH 16 0
BBX 16 18 0 -2
BITMAP
0000
0000
0000
0300
0080
0080
0900
2470
1F88
0208
0210
0160
0100
0080
0080
0040
0000
0000
ENDCHAR

STARTCHAR chs_A4E4
ENCODING 42212
SWIDTH 854 0
DWIDTH 16 0
BBX 16 18 0 -2
BITMAP
0000
0200
0180
0040
0040
0980
1030
11C8
7E04
0804
0888
0470
0200
0200
0100
0080
0000
0000
ENDCHAR

STARTCHAR chs_A4E5
ENCODING 42213
SWIDTH 854 0
DWIDTH 16 0
BBX 16 18 0 -2
BITMAP
0000
0000
0000
0100
0080
1080
11E0
1290
2488
2488
2888
2A88
3190
10E0
0100
0200
0000
0000
ENDCHAR

STARTCHAR chs_A4E6
ENCODING 42214
SWIDTH 854 0
DWIDTH 16 0
BBX 16 18 0 -2
BITMAP
0000
0080
1040
1040
11F0
1248
2244
2444
2442
2442
2842
2A44
3158
10E0
0080
0300
0000
0000
ENDCHAR

STARTCHAR chs_A4E7
ENCODING 42215
SWIDTH 854 0
DWIDTH 16 0
BBX 16 18 0 -2
BITMAP
0000
0000
0000
0200
0100
0120
01F0
0100
0100
0100
0100
0FC0
1130
1108
0E04
0000
0000
0000
ENDCHAR

STARTCHAR chs_A4E8
ENCODING 42216
SWIDTH 854 0
DWIDTH 16 0
BBX 16 18 0 -2
BITMAP
0000
0200
0100
0100
0110
0138
01C0
0100
0100
0100
1F00
21C0
4130
4208
3C04
0000
0000
0000
ENDCHAR

STARTCHAR chs_A4E9
ENCODING 42217
SWIDTH 854 0
DWIDTH 16 0
BBX 16 18 0 -2
BITMAP
0000
1800
0400
0200
0200
0400
0800
1000
10E0
1310
1408
1808
0008
0030
00C0
0300
0000
0000
ENDCHAR

STARTCHAR chs_A4EA
ENCODING 42218
SWIDTH 854 0
DWIDTH 16 0
BBX 16 18 0 -2
BITMAP
0000
1000
0880
0940
0A20
0A20
0A20
0C20
0C20
0820
0840
0040
0080
0080
0100
0200
0000
0000
ENDCHAR

STARTCHAR chs_A4EB
ENCODING 42219
SWIDTH 854 0
DWIDTH 16 0
BBX 16 18 0 -2
BITMAP
0000
0040
07A0
0420
0040
0080
0100
02F0
0708
0804
0004
0184
0244
0248
01F0
0000
0000
0000
ENDCHAR

STARTCHAR chs_A4EC
ENCODING 42220
SWIDTH 854 0
DWIDTH 16 0
BBX 16 18 0 -2
BITMAP
0000
0800
0800
08C0
0EA0
7920
0A20
0C20
0840
1840
2840
2842
6842
1824
0818
0000
0000
0000
ENDCHAR

STARTCHAR chs_A4ED
ENCODING 42221
SWIDTH 854 0
DWIDTH 16 0
BBX 16 18 0 -2
BITMAP
0000
03C0
1C40
0080
0100
0200
04E0
0F10
1808
2008
0008
0010
0010
0060
0180
0000
0000
0000
ENDCHAR

STARTCHAR chs_A4EE
ENCODING 42222
SWIDTH 854 0
DWIDTH 16 0
BBX 16 18 0 -2
BITMAP
0000
0000
0800
0400
0400
0700
3CF0
0708
0C08
1408
2408
3410
0C20
04C0
0000
0000
0000
0000
ENDCHAR

STARTCHAR chs_A4EF
ENCODING 42223
SWIDTH 854 0
DWIDTH 16 0
BBX 16 18 0 -2
BITMAP
0000
1000
0800
0800
0F00
7800
0BE0
0C18
0804
1804
2804
4804
6808
1810
0860
0000
0000
0000
ENDCHAR

STARTCHAR chs_A4F0
ENCODING 42224
SWIDTH 854 0
DWIDTH 16 0
BBX 16 18 0 -2
BITMAP
0000
0000
0780
1880
0080
0080
07E0
0890
1088
2104
4104
4264
2494
1888
0070
0000
0000
0000
ENDCHAR

STARTCHAR chs_A4F1
ENCODING 42225
SWIDTH 854 0
DWIDTH 16 0
BBX 16 18 0 -2
BITMAP
0000
0F80
0080
0100
07E0
0810
1010
0390
04A0
03C0
0200
0400
1838
2644
2188
0000
0000
0000
ENDCHAR

STARTCHAR chs_A4F2
ENCODING 42226
SWIDTH 854 0
DWIDTH 16 0
BBX 16 18 0 -2
BITMAP
0000
0200
0110
11E0
0F00
0108
0188
0250
0450
0460
08C0
0140
0240
0200
01F8
0000
0000
0000
ENDCHAR

STARTCHAR chs_A4F3
ENCODING 42227
SWIDTH 854 0
DWIDTH 16 0
BBX 16 18 0 -2
BITMAP
0000
0300
0100
0100
0100
0200
0200
0200
0380
0640
0440
0440
0848
0870
1000
0000
0000
0000
ENDCHAR

STARTCHAR chs_A5A1
ENCODING 42401
SWIDTH 854 0
DWIDTH 16 0
BBX 16 18 0 -2
BITMAP
0000
0000
0000
0000
1FF0
0010
0260
0180
0100
0100
0100
0200
0200
0400
0800
0000
0000
0000
ENDCHAR

STARTCHAR chs_A5A2
ENCODING 42402
SWIDTH 854 0
DWIDTH 16 0
BBX 16 18 0 -2
BITMAP
0000
0000
3FF8
0008
0010
0020
02C0
0100
0100
0100
0100
0200
0200
0400
0800
0000
0000
0000
ENDCHAR

STARTCHAR chs_A5A3
ENCODING 42403
SWIDTH 854 0
DWIDTH 16 0
BBX 16 18 0 -2
BITMAP
0000
0000
0000
0040
0040
0080
0100
0300
0500
0900
1100
0100
0100
0100
0100
0000
0000
0000
ENDCHAR

STARTCHAR chs_A5A4
ENCODING 42404
SWIDTH 854 0
DWIDTH 16 0
BBX 16 18 0 -2
BITMAP
0000
0040
0040
0080
0080
0100
0300
0500
0900
1100
2100
0100
0100
0100
0100
0100
0000
0000
ENDCHAR

STARTCHAR chs_A5A5
ENCODING 42405
SWIDTH 854 0
DWIDTH 16 0
BBX 16 18 0 -2
BITMAP
0000
0000
0100
0100
1110
1FF8
1010
1010
1020
0020
0040
0040
0080
0300
0C00
0000
0000
0000
ENDCHAR

STARTCHAR chs_A5A6
ENCODING 42406
SWIDTH 854 0
DWIDTH 16 0
BBX 16 18 0 -2
BITMAP
0000
0000
0100
2108
3FFC
2008
2008
2010
0010
0020
0020
0040
0080
0300
0C00
0000
0000
0000
ENDCHAR

STARTCHAR chs_A5A7
ENCODING 42407
SWIDTH 854 0
DWIDTH 16 0
BBX 16 18 0 -2
BITMAP
0000
0000
0000
0020
1FF0
0100
0100
0100
0100
0110
3FF8
0000
0000
0000
0000
0000
0000
0000
ENDCHAR

STARTCHAR chs_A5A8
ENCODING 42408
SWIDTH 854 0
DWIDTH 16 0
BBX 16 18 0 -2
BITMAP
0000
0000
0000
0010
3FF8
0100
0100
0100
0100
0100
0108
7FFC
0000
0000
0000
0000
0000
0000
ENDCHAR

STARTCHAR chs_A5A9
ENCODING 42409
SWIDTH 854 0
DWIDTH 16 0
BBX 16 18 0 -2
BITMAP
0000
0000
0100
0100
0110
3FF8
0300
0500
0900
1100
2100
0100
0500
0200
0000
0000
0000
0000
ENDCHAR

STARTCHAR chs_A5AA
ENCODING 42410
SWIDTH 854 0
DWIDTH 16 0
BBX 16 18 0 -2
BITMAP
0000
0080
0080
0080
0088
7FFC
0080
0180
0280
0480
0880
1080
2080
4280
0100
0000
0000
0000
ENDCHAR

STARTCHAR chs_A5AB
ENCODING 42411
SWIDTH 854 0
DWIDTH 16 0
BBX 16 18 0 -2
BITMAP
0000
0200
0200
0200
0220
3FF0
0220
0220
0420
0420
0820
0820
1040
2140
4080
0000
0000
0000
ENDCHAR

STARTCHAR chs_A5AC
ENCODING 42412
SWIDTH 854 0
DWIDTH 16 0
BBX 16 18 0 -2
BITMAP
0008
0204
0212
0208
0224
3FF0
0220
0220
0420
0420
0820
0820
1040
2140
4080
0000
0000
0000
ENDCHAR

STARTCHAR chs_A5AD
ENCODING 42413
SWIDTH 854 0
DWIDTH 16 0
BBX 16 18 0 -2
BITMAP
0000
1000
1000
0800
08E0
3F00
0200
0200
0170
3F80
0080
0040
0040
0020
0010
0000
0000
0000
ENDCHAR

STARTCHAR chs_A5AE
ENCODING 42414
SWIDTH 854 0
DWIDTH 16 0
BBX 16 18 0 -2
BITMAP
0008
1004
1012
0808
08E4
3F00
0200
0200
0170
3F80
0080
0040
0040
0020
0010
0000
0000
0000
ENDCHAR

STARTCHAR chs_A5AF
ENCODING 42415
SWIDTH 854 0
DWIDTH 16 0
BBX 16 18 0 -2
BITMAP
0000
0200
0200
0210
03F8
0410
0420
0820
1040
2040
0080
0100
0200
0C00
3000
0000
0000
0000
ENDCHAR

STARTCHAR chs_A5B0
ENCODING 42416
SWIDTH 854 0
DWIDTH 16 0
BBX 16 18 0 -2
BITMAP
0008
0204
0212
0208
03E4
0420
0420
0840
1040
2080
0080
0100
0200
0C00
3000
0000
0000
0000
ENDCHAR

STARTCHAR chs_A5B1
ENCODING 42417
SWIDTH 854 0
DWIDTH 16 0
BBX 16 18 0 -2
BITMAP
0000
0800
0800
0810
0FF8
1040
2040
4080
0080
0100
0100
0200
0400
0800
3000
0000
0000
0000
ENDCHAR

STARTCHAR chs_A5B2
ENCODING 42418
SWIDTH 854 0
DWIDTH 16 0
BBX 16 18 0 -2
BITMAP
0008
0804
0812
0808
0FF4
1040
2040
4080
0080
0100
0100
0200
0400
0800
3000
0000
0000
0000
ENDCHAR

STARTCHAR chs_A5B3
ENCODING 42419
SWIDTH 854 0
DWIDTH 16 0
BBX 16 18 0 -2
BITMAP
0000
0000
0000
0010
1FF8
0010
0010
0010
0020
0020
1FF0
0000
0000
0000
0000
0000
0000
0000
ENDCHAR

STARTCHAR chs_A5B4
ENCODING 42420
SWIDTH 854 0
DWIDTH 16 0
BBX 16 18 0 -2
BITMAP
0008
0004
0012
0008
0024
3FF0
0020
0020
0020
0040
3FE0
0000
0000
0000
0000
0000
0000
0000
ENDCHAR

STARTCHAR chs_A5B5
ENCODING 42421
SWIDTH 854 0
DWIDTH 16 0
BBX 16 18 0 -2
BITMAP
0000
0040
0440
0440
0440
0448
7FFC
0440
0440
0440
0480
0480
0080
0100
0200
0000
0000
0000
ENDCHAR

STARTCHAR chs_A5B6
ENCODING 42422
SWIDTH 854 0
DWIDTH 16 0
BBX 16 18 0 -2
BITMAP
0008
0004
0092
0888
0884
0880
0888
7FFC
0880
0880
0880
0880
0900
0100
0200
0000
0000
0000
ENDCHAR

STARTCHAR chs_A5B7
ENCODING 42423
SWIDTH 854 0
DWIDTH 16 0
BBX 16 18 0 -2
BITMAP
0000
0000
1800
0400
0200
3008
0810
0420
0040
0080
0100
0200
2400
1800
0000
0000
0000
0000
ENDCHAR

STARTCHAR chs_A5B8
ENCODING 42424
SWIDTH 854 0
DWIDTH 16 0
BBX 16 18 0 -2
BITMAP
0008
0004
0012
1808
0404
0200
3008
0810
0420
0040
0080
0100
0200
2400
1800
0000
0000
0000
ENDCHAR

STARTCHAR chs_A5B9
ENCODING 42425
SWIDTH 854 0
DWIDTH 16 0
BBX 16 18 0 -2
BITMAP
0000
0000
0000
3FE0
0020
0040
0040
0080
0100
0300
0480
0840
1030
2010
0000
0000
0000
0000
ENDCHAR

STARTCHAR chs_A5BA
ENCODING 42426
SWIDTH 854 0
DWIDTH 16 0
BBX 16 18 0 -2
BITMAP
0008
0004
0012
0008
3FE4
0020
0040
0040
0080
0100
0380
0440
0820
1018
2008
0000
0000
0000
ENDCHAR

STARTCHAR chs_A5BB
ENCODING 42427
SWIDTH 854 0
DWIDTH 16 0
BBX 16 18 0 -2
BITMAP
0000
0400
0400
0400
0400
07E0
7C20
0440
0480
0400
0400
0400
0420
03F0
0000
0000
0000
0000
ENDCHAR

STARTCHAR chs_A5BC
ENCODING 42428
SWIDTH 854 0
DWIDTH 16 0
BBX 16 18 0 -2
BITMAP
0008
0004
0412
0408
0404
0400
07E0
7C20
0440
0480
0400
0400
0420
03F0
0000
0000
0000
0000
ENDCHAR

STARTCHAR chs_A5BD
ENCODING 42429
SWIDTH 854 0
DWIDTH 16 0
BBX 16 18 0 -2
BITMAP
0000
0000
0020
0010
1010
0810
0420
0620
0240
0040
0080
0100
0200
0C00
3000
0000
0000
0000
ENDCHAR

STARTCHAR chs_A5BE
ENCODING 42430
SWIDTH 854 0
DWIDTH 16 0
BBX 16 18 0 -2
BITMAP
0008
0004
0012
0048
0024
2020
1020
0840
0C40
0480
0080
0100
0200
0400
1800
6000
0000
0000
ENDCHAR

STARTCHAR chs_A5BF
ENCODING 42431
SWIDTH 854 0
DWIDTH 16 0
BBX 16 18 0 -2
BITMAP
0000
0400
0420
07F0
0420
0820
0840
1640
2180
0080
0140
0220
0400
1800
6000
0000
0000
0000
ENDCHAR

STARTCHAR chs_A5C0
ENCODING 42432
SWIDTH 854 0
DWIDTH 16 0
BBX 16 18 0 -2
BITMAP
0008
0804
0852
0FE8
0844
1040
1080
2080
4900
0500
0200
0500
0800
3000
C000
0000
0000
0000
ENDCHAR

STARTCHAR chs_A5C1
ENCODING 42433
SWIDTH 854 0
DWIDTH 16 0
BBX 16 18 0 -2
BITMAP
0000
0020
01F0
1F00
0100
0108
7FFC
0100
0100
0200
0200
0400
0400
0800
1000
0000
0000
0000
ENDCHAR

STARTCHAR chs_A5C2
ENCODING 42434
SWIDTH 854 0
DWIDTH 16 0
BBX 16 18 0 -2
BITMAP
0008
0004
0092
03C8
3E04
0200
0210
FFF8
0200
0200
0400
0400
0800
0800
1000
2000
0000
0000
ENDCHAR

STARTCHAR chs_A5C3
ENCODING 42435
SWIDTH 854 0
DWIDTH 16 0
BBX 16 18 0 -2
BITMAP
0000
0000
0000
0000
0400
0310
2110
1820
0820
0040
0040
0080
0100
0600
1800
0000
0000
0000
ENDCHAR

STARTCHAR chs_A5C4
ENCODING 42436
SWIDTH 854 0
DWIDTH 16 0
BBX 16 18 0 -2
BITMAP
0000
0000
0400
0210
2110
1110
0820
0820
0040
0080
0100
0200
0400
0800
3000
0000
0000
0000
ENDCHAR

STARTCHAR chs_A5C5
ENCODING 42437
SWIDTH 854 0
DWIDTH 16 0
BBX 16 18 0 -2
BITMAP
0008
0004
0812
0428
4224
2220
1040
1040
0080
0100
0200
0400
0800
1000
6000
0000
0000
0000
ENDCHAR

STARTCHAR chs_A5C6
ENCODING 42438
SWIDTH 854 0
DWIDTH 16 0
BBX 16 18 0 -2
BITMAP
0000
0020
1FF0
0000
0000
0008
7FFC
0100
0100
0200
0200
0400
0400
0800
1000
2000
0000
0000
ENDCHAR

STARTCHAR chs_A5C7
ENCODING 42439
SWIDTH 854 0
DWIDTH 16 0
BBX 16 18 0 -2
BITMAP
0008
0004
0092
3FC8
0004
0000
0010
FFF8
0200
0200
0400
0400
0800
0800
1000
2000
0000
0000
ENDCHAR

STARTCHAR chs_A5C8
ENCODING 42440
SWIDTH 854 0
DWIDTH 16 0
BBX 16 18 0 -2
BITMAP
0000
0400
0400
0400
0400
0400
0600
0500
04C0
0460
0420
0400
0400
0400
0400
0000
0000
0000
ENDCHAR

STARTCHAR chs_A5C9
ENCODING 42441
SWIDTH 854 0
DWIDTH 16 0
BBX 16 18 0 -2
BITMAP
0008
0404
0412
0408
0404
0600
0500
04C0
0460
0420
0400
0400
0400
0400
0400
0000
0000
0000
ENDCHAR

STARTCHAR chs_A5CA
ENCODING 42442
SWIDTH 854 0
DWIDTH 16 0
BBX 16 18 0 -2
BITMAP
0000
0100
0100
0100
0108
7FFC
0100
0100
0100
0100
0200
0200
0400
0400
0800
0000
0000
0000
ENDCHAR

STARTCHAR chs_A5CB
ENCODING 42443
SWIDTH 854 0
DWIDTH 16 0
BBX 16 18 0 -2
BITMAP
0000
0000
0000
0000
0020
1FF0
0000
0000
0000
0008
7FFC
0000
0000
0000
0000
0000
0000
0000
ENDCHAR

STARTCHAR chs_A5CC
ENCODING 42444
SWIDTH 854 0
DWIDTH 16 0
BBX 16 18 0 -2
BITMAP
0000
0010
1FF8
0010
0020
0C20
0240
0140
0080
00C0
0130
0210
0400
0800
3000
0000
0000
0000
ENDCHAR

STARTCHAR chs_A5CD
ENCODING 42445
SWIDTH 854 0
DWIDTH 16 0
BBX 16 18 0 -2
BITMAP
0200
0180
0080
0000
1FC0
0080
0100
0300
0540
0930
1110
2100
0100
0100
0100
0000
0000
0000
ENDCHAR

STARTCHAR chs_A5CE
ENCODING 42446
SWIDTH 854 0
DWIDTH 16 0
BBX 16 18 0 -2
BITMAP
0000
0000
0020
0020
0020
0040
0040
0080
0080
0100
0100
0200
0400
0800
1000
0000
0000
0000
ENDCHAR

STARTCHAR chs_A5CF
ENCODING 42447
SWIDTH 854 0
DWIDTH 16 0
BBX 16 18 0 -2
BITMAP
0000
0000
0000
0000
0440
0220
0210
0408
0408
0804
1004
2004
4000
0000
0000
0000
0000
0000
ENDCHAR

STARTCHAR chs_A5D0
ENCODING 42448
SWIDTH 854 0
DWIDTH 16 0
BBX 16 18 0 -2
BITMAP
0008
0004
0012
0008
0444
0220
0210
0408
0408
0804
1004
2004
4000
0000
0000
0000
0000
0000
ENDCHAR

STARTCHAR chs_A5D1
ENCODING 42449
SWIDTH 854 0
DWIDTH 16 0
BBX 16 18 0 -2
BITMAP
0000
000C
0012
0012
044C
0220
0210
0408
0408
0804
1004
2004
4000
0000
0000
0000
0000
0000
ENDCHAR

STARTCHAR chs_A5D2
ENCODING 42450
SWIDTH 854 0
DWIDTH 16 0
BBX 16 18 0 -2
BITMAP
0000
0000
0800
0800
0840
0860
0980
0E00
0800
0800
0800
0820
07F0
0000
0000
0000
0000
0000
ENDCHAR

STARTCHAR chs_A5D3
ENCODING 42451
SWIDTH 854 0
DWIDTH 16 0
BBX 16 18 0 -2
BITMAP
0008
0004
0012
2008
2004
2100
2180
2600
3800
2000
2000
2000
2080
1FC0
0000
0000
0000
0000
ENDCHAR

STARTCHAR chs_A5D4
ENCODING 42452
SWIDTH 854 0
DWIDTH 16 0
BBX 16 18 0 -2
BITMAP
0000
000C
0012
2012
200C
2100
2180
2600
3800
2000
2000
2000
2080
1FC0
0000
0000
0000
0000
ENDCHAR

STARTCHAR chs_A5D5
ENCODING 42453
SWIDTH 854 0
DWIDTH 16 0
BBX 16 18 0 -2
BITMAP
0000
0000
0020
7FF0
0020
0040
0040
0080
0080
0100
0200
0400
0800
1000
2000
0000
0000
0000
ENDCHAR

STARTCHAR chs_A5D6
ENCODING 42454
SWIDTH 854 0
DWIDTH 16 0
BBX 16 18 0 -2
BITMAP
0008
0004
0012
0048
7FE4
0040
0080
0080
0100
0100
0200
0400
0800
1000
2000
0000
0000
0000
ENDCHAR

STARTCHAR chs_A5D7
ENCODING 42455
SWIDTH 854 0
DWIDTH 16 0
BBX 16 18 0 -2
BITMAP
0000
000C
0012
0052
7FEC
0040
0080
0080
0100
0100
0200
0400
0800
1000
2000
0000
0000
0000
ENDCHAR

STARTCHAR chs_A5D8
ENCODING 42456
SWIDTH 854 0
DWIDTH 16 0
BBX 16 18 0 -2
BITMAP
0000
0000
0000
0000
0000
1800
2400
4300
00C0
0030
000E
0000
0000
0000
0000
0000
0000
0000
ENDCHAR

STARTCHAR chs_A5D9
ENCODING 42457
SWIDTH 854 0
DWIDTH 16 0
BBX 16 18 0 -2
BITMAP
0008
0004
0012
0008
0004
1800
2400
4300
00C0
0030
000E
0000
0000
0000
0000
0000
0000
0000
ENDCHAR

STARTCHAR chs_A5DA
ENCODING 42458
SWIDTH 854 0
DWIDTH 16 0
BBX 16 18 0 -2
BITMAP
0000
000C
0012
0012
000C
1800
2400
4300
00C0
0030
000E
0000
0000
0000
0000
0000
0000
0000
ENDCHAR

STARTCHAR chs_A5DB
ENCODING 42459
SWIDTH 854 0
DWIDTH 16 0
BBX 16 18 0 -2
BITMAP
0000
0100
0100
0100
0108
7FFC
0100
0100
0920
0910
1108
2108
0100
0500
0200
0000
0000
0000
ENDCHAR

STARTCHAR chs_A5DC
ENCODING 42460
SWIDTH 854 0
DWIDTH 16 0
BBX 16 18 0 -2
BITMAP
0008
0104
0112
0108
0104
0100
7FFC
0100
0100
1120
1110
2108
4108
0500
0200
0000
0000
0000
ENDCHAR

STARTCHAR chs_A5DD
ENCODING 42461
SWIDTH 854 0
DWIDTH 16 0
BBX 16 18 0 -2
BITMAP
000C
0112
0112
010C
0100
0108
7FFC
0100
0100
1120
1110
2108
4108
0500
0200
0000
0000
0000
ENDCHAR

STARTCHAR chs_A5DE
ENCODING 42462
SWIDTH 854 0
DWIDTH 16 0
BBX 16 18 0 -2
BITMAP
0000
0000
0000
0010
3FF8
0010
0020
0020
0640
0180
0080
0040
0040
0000
0000
0000
0000
0000
ENDCHAR

STARTCHAR chs_A5DF
ENCODING 42463
SWIDTH 854 0
DWIDTH 16 0
BBX 16 18 0 -2
BITMAP
0000
0000
0E00
0180
0060
0020
1C00
0380
0080
0000
1C00
0300
00E0
0020
0000
0000
0000
0000
ENDCHAR

STARTCHAR chs_A5E0
ENCODING 42464
SWIDTH 854 0
DWIDTH 16 0
BBX 16 18 0 -2
BITMAP
0000
0000
0000
0100
0100
0100
0200
0200
0400
0440
0820
0810
10F8
3F08
1008
0000
0000
0000
ENDCHAR

STARTCHAR chs_A5E1
ENCODING 42465
SWIDTH 854 0
DWIDTH 16 0
BBX 16 18 0 -2
BITMAP
0000
0000
0040
0020
0020
0420
0240
0140
0080
0160
0220
0400
0800
1000
6000
0000
0000
0000
ENDCHAR

STARTCHAR chs_A5E2
ENCODING 42466
SWIDTH 854 0
DWIDTH 16 0
BBX 16 18 0 -2
BITMAP
0000
0040
03E0
3E00
0200
0208
03FC
7E00
0200
0200
0200
0200
0210
01F8
0000
0000
0000
0000
ENDCHAR

STARTCHAR chs_A5E3
ENCODING 42467
SWIDTH 854 0
DWIDTH 16 0
BBX 16 18 0 -2
BITMAP
0000
0000
0000
0000
1000
0800
0800
2478
1F88
0210
0120
0100
0080
0080
0040
0000
0000
0000
ENDCHAR

STARTCHAR chs_A5E4
ENCODING 42468
SWIDTH 854 0
DWIDTH 16 0
BBX 16 18 0 -2
BITMAP
0000
1000
1000
0800
0800
4478
3F88
0210
0220
0100
0100
0080
0080
0040
0020
0000
0000
0000
ENDCHAR

STARTCHAR chs_A5E5
ENCODING 42469
SWIDTH 854 0
DWIDTH 16 0
BBX 16 18 0 -2
BITMAP
0000
0000
0000
0000
0000
0020
0FF0
0020
0020
0020
0040
0048
3FFC
0000
0000
0000
0000
0000
ENDCHAR

STARTCHAR chs_A5E6
ENCODING 42470
SWIDTH 854 0
DWIDTH 16 0
BBX 16 18 0 -2
BITMAP
0000
0000
0010
1FF8
0010
0010
0010
0020
0020
0024
7FFE
0000
0000
0000
0000
0000
0000
0000
ENDCHAR

STARTCHAR chs_A5E7
ENCODING 42471
SWIDTH 854 0
DWIDTH 16 0
BBX 16 18 0 -2
BITMAP
0000
0000
0000
0000
0000
0010
1FF8
0010
0010
1FF0
0010
0010
1FF0
0010
0000
0000
0000
0000
ENDCHAR

STARTCHAR chs_A5E8
ENCODING 42472
SWIDTH 854 0
DWIDTH 16 0
BBX 16 18 0 -2
BITMAP
0000
0010
3FF8
0010
0010
0010
3FF0
0010
0010
0010
3FF0
0010
0000
0000
0000
0000
0000
0000
ENDCHAR

STARTCHAR chs_A5E9
ENCODING 42473
SWIDTH 854 0
DWIDTH 16 0
BBX 16 18 0 -2
BITMAP
0000
0040
0FE0
0000
0010
3FF8
0010
0010
0020
0020
0040
0080
0100
0600
1800
0000
0000
0000
ENDCHAR

STARTCHAR chs_A5EA
ENCODING 42474
SWIDTH 854 0
DWIDTH 16 0
BBX 16 18 0 -2
BITMAP
0000
0040
0440
0440
0440
0440
0440
0440
0440
0440
0080
0080
0100
0100
0200
0C00
0000
0000
ENDCHAR

STARTCHAR chs_A5EB
ENCODING 42475
SWIDTH 854 0
DWIDTH 16 0
BBX 16 18 0 -2
BITMAP
0000
0000
0000
0000
0480
0480
0480
0480
0484
0888
0890
10A0
20C0
4080
0000
0000
0000
0000
ENDCHAR

STARTCHAR chs_A5EC
ENCODING 42476
SWIDTH 854 0
DWIDTH 16 0
BBX 16 18 0 -2
BITMAP
0000
0000
0000
2000
1000
1010
1020
1040
1080
1100
1200
1400
1800
1000
0000
0000
0000
0000
ENDCHAR

STARTCHAR chs_A5ED
ENCODING 42477
SWIDTH 854 0
DWIDTH 16 0
BBX 16 18 0 -2
BITMAP
0000
0000
1020
1FF0
1020
1020
1020
1020
1040
1040
1FE0
1000
0000
0000
0000
0000
0000
0000
ENDCHAR

STARTCHAR chs_A5EE
ENCODING 42478
SWIDTH 854 0
DWIDTH 16 0
BBX 16 18 0 -2
BITMAP
0000
0000
1020
1FF0
1020
1020
0020
0040
0040
0080
0100
0200
0400
0000
0000
0000
0000
0000
ENDCHAR

STARTCHAR chs_A5EF
ENCODING 42479
SWIDTH 854 0
DWIDTH 16 0
BBX 16 18 0 -2
BITMAP
0000
0000
2010
3FF8
2010
2010
0010
0020
0020
0040
0040
0080
0100
0200
0400
0000
0000
0000
ENDCHAR

STARTCHAR chs_A5F0
ENCODING 42480
SWIDTH 854 0
DWIDTH 16 0
BBX 16 18 0 -2
BITMAP
0000
0100
0100
0140
1FE0
0900
0900
0900
0908
7FFC
0100
0100
0100
0100
0100
0000
0000
0000
ENDCHAR

STARTCHAR chs_A5F1
ENCODING 42481
SWIDTH 854 0
DWIDTH 16 0
BBX 16 18 0 -2
BITMAP
0000
0000
0000
1FE0
0040
0280
0100
0100
0100
0108
7FFC
0000
0000
0000
0000
0000
0000
0000
ENDCHAR

STARTCHAR chs_A5F2
ENCODING 42482
SWIDTH 854 0
DWIDTH 16 0
BBX 16 18 0 -2
BITMAP
0000
0000
0010
1FF8
0010
0010
1FF0
0010
0020
0020
0040
0040
0080
0100
0600
0000
0000
0000
ENDCHAR

STARTCHAR chs_A5F3
ENCODING 42483
SWIDTH 854 0
DWIDTH 16 0
BBX 16 18 0 -2
BITMAP
0000
0000
1000
0804
0608
0210
0020
0040
0080
0100
0200
2400
1800
0000
0000
0000
0000
0000
ENDCHAR

STARTCHAR chs_A5F4
ENCODING 42484
SWIDTH 854 0
DWIDTH 16 0
BBX 16 18 0 -2
BITMAP
0008
0204
0212
2248
3FE4
2040
2040
0040
0080
0080
0100
0100
0200
0400
0800
0000
0000
0000
ENDCHAR

STARTCHAR chs_A5F5
ENCODING 42485
SWIDTH 854 0
DWIDTH 16 0
BBX 16 18 0 -2
BITMAP
0000
0000
0100
0100
0120
0FF0
0120
0120
0220
0220
0240
0540
0880
0000
0000
0000
0000
0000
ENDCHAR

STARTCHAR chs_A5F6
ENCODING 42486
SWIDTH 854 0
DWIDTH 16 0
BBX 16 18 0 -2
BITMAP
0000
0000
0400
0400
0440
07E0
0880
1080
0100
0100
0200
0400
0800
0000
0000
0000
0000
0000
ENDCHAR

STARTCHAR chs_A6A1
ENCODING 42657
SWIDTH 854 0
DWIDTH 16 0
BBX 16 18 0 -2
BITMAP
0000
0100
0280
0280
0440
0440
0820
0FE0
1010
1010
2008
701C
0000
0000
0000
0000
0000
0000
ENDCHAR

STARTCHAR chs_A6A2
ENCODING 42658
SWIDTH 854 0
DWIDTH 16 0
BBX 16 18 0 -2
BITMAP
0000
7FE0
2010
2010
2010
2020
3FC0
2020
2010
2010
2010
7FE0
0000
0000
0000
0000
0000
0000
ENDCHAR

STARTCHAR chs_A6A3
ENCODING 42659
SWIDTH 854 0
DWIDTH 16 0
BBX 16 18 0 -2
BITMAP
0000
7FF8
2008
2008
2000
2000
2000
2000
2000
2000
2000
7000
0000
0000
0000
0000
0000
0000
ENDCHAR

STARTCHAR chs_A6A4
ENCODING 42660
SWIDTH 854 0
DWIDTH 16 0
BBX 16 18 0 -2
BITMAP
0000
0100
0280
0280
0440
0440
0820
1010
1010
2008
2008
7FFC
0000
0000
0000
0000
0000
0000
ENDCHAR

STARTCHAR chs_A6A5
ENCODING 42661
SWIDTH 854 0
DWIDTH 16 0
BBX 16 18 0 -2
BITMAP
0000
7FF8
2008
2008
2000
2040
3FC0
2040
2000
2008
2008
7FF8
0000
0000
0000
0000
0000
0000
ENDCHAR

STARTCHAR chs_A6A6
ENCODING 42662
SWIDTH 854 0
DWIDTH 16 0
BBX 16 18 0 -2
BITMAP
0000
3FF8
2010
2020
0040
0080
0100
0200
0400
0808
1008
3FF8
0000
0000
0000
0000
0000
0000
ENDCHAR

STARTCHAR chs_A6A7
ENCODING 42663
SWIDTH 854 0
DWIDTH 16 0
BBX 16 18 0 -2
BITMAP
0000
701C
2008
2008
2008
2008
3FF8
2008
2008
2008
2008
701C
0000
0000
0000
0000
0000
0000
ENDCHAR

STARTCHAR chs_A6A8
ENCODING 42664
SWIDTH 854 0
DWIDTH 16 0
BBX 16 18 0 -2
BITMAP
0000
0FE0
1010
2008
2448
2448
27C8
2448
2448
2008
1010
0FE0
0000
0000
0000
0000
0000
0000
ENDCHAR

STARTCHAR chs_A6A9
ENCODING 42665
SWIDTH 854 0
DWIDTH 16 0
BBX 16 18 0 -2
BITMAP
0000
0380
0100
0100
0100
0100
0100
0100
0100
0100
0100
0380
0000
0000
0000
0000
0000
0000
ENDCHAR

STARTCHAR chs_A6AA
ENCODING 42666
SWIDTH 854 0
DWIDTH 16 0
BBX 16 18 0 -2
BITMAP
0000
1C70
0840
0880
0900
0A00
0E00
0900
0880
0840
0820
1C38
0000
0000
0000
0000
0000
0000
ENDCHAR

STARTCHAR chs_A6AB
ENCODING 42667
SWIDTH 854 0
DWIDTH 16 0
BBX 16 18 0 -2
BITMAP
0000
0100
0280
0280
0440
0440
0820
0820
1010
1010
2008
701C
0000
0000
0000
0000
0000
0000
ENDCHAR

STARTCHAR chs_A6AC
ENCODING 42668
SWIDTH 854 0
DWIDTH 16 0
BBX 16 18 0 -2
BITMAP
0000
600C
3018
3018
2828
2828
2448
2448
2288
2288
2108
701C
0000
0000
0000
0000
0000
0000
ENDCHAR

STARTCHAR chs_A6AD
ENCODING 42669
SWIDTH 854 0
DWIDTH 16 0
BBX 16 18 0 -2
BITMAP
0000
601C
3008
2808
2408
2208
2108
2088
2048
2028
2018
700C
0000
0000
0000
0000
0000
0000
ENDCHAR

STARTCHAR chs_A6AE
ENCODING 42670
SWIDTH 854 0
DWIDTH 16 0
BBX 16 18 0 -2
BITMAP
0000
1FF8
1008
1008
0000
0420
07E0
0420
0000
1008
1008
1FF8
0000
0000
0000
0000
0000
0000
ENDCHAR

STARTCHAR chs_A6AF
ENCODING 42671
SWIDTH 854 0
DWIDTH 16 0
BBX 16 18 0 -2
BITMAP
0000
07C0
0820
1010
2008
2008
2008
2008
2008
1010
0820
07C0
0000
0000
0000
0000
0000
0000
ENDCHAR

STARTCHAR chs_A6B0
ENCODING 42672
SWIDTH 854 0
DWIDTH 16 0
BBX 16 18 0 -2
BITMAP
0000
3FF8
1010
1010
1010
1010
1010
1010
1010
1010
1010
3838
0000
0000
0000
0000
0000
0000
ENDCHAR

STARTCHAR chs_A6B1
ENCODING 42673
SWIDTH 854 0
DWIDTH 16 0
BBX 16 18 0 -2
BITMAP
0000
7FE0
2010
2008
2008
2010
3FE0
2000
2000
2000
2000
7000
0000
0000
0000
0000
0000
0000
ENDCHAR

STARTCHAR chs_A6B2
ENCODING 42674
SWIDTH 854 0
DWIDTH 16 0
BBX 16 18 0 -2
BITMAP
0000
7FF8
2008
1008
0800
0400
0200
0400
0800
1008
2008
7FF8
0000
0000
0000
0000
0000
0000
ENDCHAR

STARTCHAR chs_A6B3
ENCODING 42675
SWIDTH 854 0
DWIDTH 16 0
BBX 16 18 0 -2
BITMAP
0000
7FFC
4104
4104
0100
0100
0100
0100
0100
0100
0100
0380
0000
0000
0000
0000
0000
0000
ENDCHAR

STARTCHAR chs_A6B4
ENCODING 42676
SWIDTH 854 0
DWIDTH 16 0
BBX 16 18 0 -2
BITMAP
0000
0040
06A0
0900
0100
0100
0100
0100
0100
0100
0100
0380
0000
0000
0000
0000
0000
0000
ENDCHAR

STARTCHAR chs_A6B5
ENCODING 42677
SWIDTH 854 0
DWIDTH 16 0
BBX 16 18 0 -2
BITMAP
0000
0380
0100
0FE0
1110
2108
2108
2108
1110
0FE0
0100
0380
0000
0000
0000
0000
0000
0000
ENDCHAR

STARTCHAR chs_A6B6
ENCODING 42678
SWIDTH 854 0
DWIDTH 16 0
BBX 16 18 0 -2
BITMAP
0000
701C
1010
0820
0440
0280
0100
0280
0440
0820
1010
701C
0000
0000
0000
0000
0000
0000
ENDCHAR

STARTCHAR chs_A6B7
ENCODING 42679
SWIDTH 854 0
DWIDTH 16 0
BBX 16 18 0 -2
BITMAP
0000
4384
2108
1110
1110
1110
1110
0FE0
0100
0100
0100
0380
0000
0000
0000
0000
0000
0000
ENDCHAR

STARTCHAR chs_A6B8
ENCODING 42680
SWIDTH 854 0
DWIDTH 16 0
BBX 16 18 0 -2
BITMAP
0000
07C0
0820
1010
2008
2008
2008
2008
1010
4824
4444
7C7C
0000
0000
0000
0000
0000
0000
ENDCHAR

STARTCHAR chs_A6C1
ENCODING 42689
SWIDTH 854 0
DWIDTH 16 0
BBX 16 18 0 -2
BITMAP
0000
0000
0000
0760
08C0
1040
1040
1040
1040
1040
08C0
0730
0000
0000
0000
0000
0000
0000
ENDCHAR

STARTCHAR chs_A6C2
ENCODING 42690
SWIDTH 854 0
DWIDTH 16 0
BBX 16 18 0 -2
BITMAP
0000
0780
0840
0840
0880
0F00
08C0
0820
0820
0820
0C40
0B80
0800
0800
0800
0000
0000
0000
ENDCHAR

STARTCHAR chs_A6C3
ENCODING 42691
SWIDTH 854 0
DWIDTH 16 0
BBX 16 18 0 -2
BITMAP
0000
0000
0000
0C10
1220
2220
0140
0140
0180
0100
0100
0100
0100
0100
0100
0000
0000
0000
ENDCHAR

STARTCHAR chs_A6C4
ENCODING 42692
SWIDTH 854 0
DWIDTH 16 0
BBX 16 18 0 -2
BITMAP
0000
0380
0440
0200
0100
0280
0440
0820
0820
0820
0440
0380
0000
0000
0000
0000
0000
0000
ENDCHAR

STARTCHAR chs_A6C5
ENCODING 42693
SWIDTH 854 0
DWIDTH 16 0
BBX 16 18 0 -2
BITMAP
0000
0000
0000
0380
0440
0400
0200
0180
0200
0400
0440
0380
0000
0000
0000
0000
0000
0000
ENDCHAR

STARTCHAR chs_A6C6
ENCODING 42694
SWIDTH 854 0
DWIDTH 16 0
BBX 16 18 0 -2
BITMAP
0000
0200
0400
0440
03C0
0200
0400
0800
0800
0800
0400
03C0
0020
0020
03C0
0000
0000
0000
ENDCHAR

STARTCHAR chs_A6C7
ENCODING 42695
SWIDTH 854 0
DWIDTH 16 0
BBX 16 18 0 -2
BITMAP
0000
0000
0000
0DC0
1620
1420
0420
0420
0420
0420
0420
0420
0020
0020
0020
0000
0000
0000
ENDCHAR

STARTCHAR chs_A6C8
ENCODING 42696
SWIDTH 854 0
DWIDTH 16 0
BBX 16 18 0 -2
BITMAP
0000
0380
0440
0820
0820
0820
0FE0
0820
0820
0820
0440
0380
0000
0000
0000
0000
0000
0000
ENDCHAR

STARTCHAR chs_A6C9
ENCODING 42697
SWIDTH 854 0
DWIDTH 16 0
BBX 16 18 0 -2
BITMAP
0000
0000
0000
0300
0100
0100
0100
0100
0100
0100
0140
0180
0000
0000
0000
0000
0000
0000
ENDCHAR

STARTCHAR chs_A6CA
ENCODING 42698
SWIDTH 854 0
DWIDTH 16 0
BBX 16 18 0 -2
BITMAP
0000
0000
0000
1830
0840
0880
0D00
0A00
0900
0880
0840
1C70
0000
0000
0000
0000
0000
0000
ENDCHAR

STARTCHAR chs_A6CB
ENCODING 42699
SWIDTH 854 0
DWIDTH 16 0
BBX 16 18 0 -2
BITMAP
0000
0400
0A00
0100
0100
0100
0100
0280
0280
0440
0450
0820
0000
0000
0000
0000
0000
0000
ENDCHAR

STARTCHAR chs_A6CC
ENCODING 42700
SWIDTH 854 0
DWIDTH 16 0
BBX 16 18 0 -2
BITMAP
0000
0000
0000
0840
0840
0840
0840
0840
0840
0840
0CD0
0B20
0800
0800
0800
0000
0000
0000
ENDCHAR

STARTCHAR chs_A6CD
ENCODING 42701
SWIDTH 854 0
DWIDTH 16 0
BBX 16 18 0 -2
BITMAP
0000
0000
0000
1820
0810
0820
0820
0440
0440
0280
0280
0100
0000
0000
0000
0000
0000
0000
ENDCHAR

STARTCHAR chs_A6CE
ENCODING 42702
SWIDTH 854 0
DWIDTH 16 0
BBX 16 18 0 -2
BITMAP
0000
0400
0800
0780
0800
0800
0780
0400
0800
0800
0800
07C0
0020
0420
03C0
0000
0000
0000
ENDCHAR

STARTCHAR chs_A6CF
ENCODING 42703
SWIDTH 854 0
DWIDTH 16 0
BBX 16 18 0 -2
BITMAP
0000
0000
0000
0780
0840
1020
1020
1020
1020
1020
0840
0780
0000
0000
0000
0000
0000
0000
ENDCHAR

STARTCHAR chs_A6D0
ENCODING 42704
SWIDTH 854 0
DWIDTH 16 0
BBX 16 18 0 -2
BITMAP
0000
0000
0000
1FF8
2440
0440
0440
0440
0440
0440
0850
1020
0000
0000
0000
0000
0000
0000
ENDCHAR

STARTCHAR chs_A6D1
ENCODING 42705
SWIDTH 854 0
DWIDTH 16 0
BBX 16 18 0 -2
BITMAP
0000
0000
0000
0780
0840
1020
1020
1020
1020
1820
1440
1380
1000
1000
1000
0000
0000
0000
ENDCHAR

STARTCHAR chs_A6D2
ENCODING 42706
SWIDTH 854 0
DWIDTH 16 0
BBX 16 18 0 -2
BITMAP
0000
0000
0000
07F8
0840
1020
1020
1020
1020
1020
0840
0780
0000
0000
0000
0000
0000
0000
ENDCHAR

STARTCHAR chs_A6D3
ENCODING 42707
SWIDTH 854 0
DWIDTH 16 0
BBX 16 18 0 -2
BITMAP
0000
0000
0000
07C0
0900
0100
0100
0100
0100
0100
0140
0080
0000
0000
0000
0000
0000
0000
ENDCHAR

STARTCHAR chs_A6D4
ENCODING 42708
SWIDTH 854 0
DWIDTH 16 0
BBX 16 18 0 -2
BITMAP
0000
0000
0000
0840
1420
0420
0420
0420
0420
0420
0420
03C0
0000
0000
0000
0000
0000
0000
ENDCHAR

STARTCHAR chs_A6D5
ENCODING 42709
SWIDTH 854 0
DWIDTH 16 0
BBX 16 18 0 -2
BITMAP
0000
0100
0100
07C0
0920
1110
1110
1110
1110
1110
0920
07C0
0100
0100
0100
0000
0000
0000
ENDCHAR

STARTCHAR chs_A6D6
ENCODING 42710
SWIDTH 854 0
DWIDTH 16 0
BBX 16 18 0 -2
BITMAP
0000
0000
0000
0810
1420
0420
0240
0280
0100
0100
0280
0480
0840
0850
1020
0000
0000
0000
ENDCHAR

STARTCHAR chs_A6D7
ENCODING 42711
SWIDTH 854 0
DWIDTH 16 0
BBX 16 18 0 -2
BITMAP
0000
0100
0100
1140
2920
0920
0920
0920
0920
0920
0920
07C0
0100
0100
0100
0000
0000
0000
ENDCHAR

STARTCHAR chs_A6D8
ENCODING 42712
SWIDTH 854 0
DWIDTH 16 0
BBX 16 18 0 -2
BITMAP
0000
0000
0000
0440
0820
1010
1110
1110
1110
1110
0AA0
0440
0000
0000
0000
0000
0000
0000
ENDCHAR

STARTCHAR chs_A7A1
ENCODING 42913
SWIDTH 854 0
DWIDTH 16 0
BBX 16 18 0 -2
BITMAP
0000
0100
0280
0280
0440
0440
0820
0FE0
1010
1010
2008
701C
0000
0000
0000
0000
0000
0000
ENDCHAR

STARTCHAR chs_A7A2
ENCODING 42914
SWIDTH 854 0
DWIDTH 16 0
BBX 16 18 0 -2
BITMAP
0000
7FF8
2008
2008
2000
2000
3FC0
2020
2010
2010
2020
7FC0
0000
0000
0000
0000
0000
0000
ENDCHAR

STARTCHAR chs_A7A3
ENCODING 42915
SWIDTH 854 0
DWIDTH 16 0
BBX 16 18 0 -2
BITMAP
0000
7FE0
2010
2008
2008
2010
3FE0
2010
2008
2008
2010
7FE0
0000
0000
0000
0000
0000
0000
ENDCHAR

STARTCHAR chs_A7A4
ENCODING 42916
SWIDTH 854 0
DWIDTH 16 0
BBX 16 18 0 -2
BITMAP
0000
7FF8
2008
2008
2000
2000
2000
2000
2000
2000
2000
7000
0000
0000
0000
0000
0000
0000
ENDCHAR

STARTCHAR chs_A7A5
ENCODING 42917
SWIDTH 854 0
DWIDTH 16 0
BBX 16 18 0 -2
BITMAP
0000
1FF8
0410
0410
0410
0410
0410
0810
0810
1010
2010
3FF8
4004
4004
0000
0000
0000
0000
ENDCHAR

STARTCHAR chs_A7A6
ENCODING 42918
SWIDTH 854 0
DWIDTH 16 0
BBX 16 18 0 -2
BITMAP
0000
7FF8
2008
2008
2000
2020
3FE0
2020
2000
2008
2008
7FF8
0000
0000
0000
0000
0000
0000
ENDCHAR

STARTCHAR chs_A7A7
ENCODING 42919
SWIDTH 854 0
DWIDTH 16 0
BBX 16 18 0 -2
BITMAP
0820
0000
7FF8
2008
2008
2020
3FE0
2020
2000
2008
2008
7FF8
0000
0000
0000
0000
0000
0000
ENDCHAR

STARTCHAR chs_A7A8
ENCODING 42920
SWIDTH 854 0
DWIDTH 16 0
BBX 16 18 0 -2
BITMAP
0000
2388
5114
0920
0920
0540
0380
0540
0920
1110
1110
638C
0000
0000
0000
0000
0000
0000
ENDCHAR

STARTCHAR chs_A7A9
ENCODING 42921
SWIDTH 854 0
DWIDTH 16 0
BBX 16 18 0 -2
BITMAP
0000
17E0
1810
1008
0008
0010
01E0
0010
2008
2008
1010
0FE0
0000
0000
0000
0000
0000
0000
ENDCHAR

STARTCHAR chs_A7AA
ENCODING 42922
SWIDTH 854 0
DWIDTH 16 0
BBX 16 18 0 -2
BITMAP
0000
700C
2018
2028
2048
2088
2108
2208
2408
2808
3008
601C
0000
0000
0000
0000
0000
0000
ENDCHAR

STARTCHAR chs_A7AB
ENCODING 42923
SWIDTH 854 0
DWIDTH 16 0
BBX 16 18 0 -2
BITMAP
0440
0440
739C
2028
2048
2088
2108
2208
2408
2808
3008
601C
0000
0000
0000
0000
0000
0000
ENDCHAR

STARTCHAR chs_A7AC
ENCODING 42924
SWIDTH 854 0
DWIDTH 16 0
BBX 16 18 0 -2
BITMAP
0000
1C30
0848
0880
0880
0900
0F00
0880
0840
0820
0820
1C18
0000
0000
0000
0000
0000
0000
ENDCHAR

STARTCHAR chs_A7AD
ENCODING 42925
SWIDTH 854 0
DWIDTH 16 0
BBX 16 18 0 -2
BITMAP
0000
1FF0
0820
0820
0820
0820
0820
0820
0820
0820
2820
1070
0000
0000
0000
0000
0000
0000
ENDCHAR

STARTCHAR chs_A7AE
ENCODING 42926
SWIDTH 854 0
DWIDTH 16 0
BBX 16 18 0 -2
BITMAP
0000
701C
2008
3018
2828
2828
2448
2448
2288
2108
2008
701C
0000
0000
0000
0000
0000
0000
ENDCHAR

STARTCHAR chs_A7AF
ENCODING 42927
SWIDTH 854 0
DWIDTH 16 0
BBX 16 18 0 -2
BITMAP
0000
701C
2008
2008
2008
2008
3FF8
2008
2008
2008
2008
701C
0000
0000
0000
0000
0000
0000
ENDCHAR

STARTCHAR chs_A7B0
ENCODING 42928
SWIDTH 854 0
DWIDTH 16 0
BBX 16 18 0 -2
BITMAP
0000
07C0
0820
1010
2008
2008
2008
2008
2008
1010
0820
07C0
0000
0000
0000
0000
0000
0000
ENDCHAR

STARTCHAR chs_A7B1
ENCODING 42929
SWIDTH 854 0
DWIDTH 16 0
BBX 16 18 0 -2
BITMAP
0000
7FF0
2020
2020
2020
2020
2020
2020
2020
2020
2020
7070
0000
0000
0000
0000
0000
0000
ENDCHAR

STARTCHAR chs_A7B2
ENCODING 42930
SWIDTH 854 0
DWIDTH 16 0
BBX 16 18 0 -2
BITMAP
0000
7FE0
2010
2008
2008
2010
3FE0
2000
2000
2000
2000
7000
0000
0000
0000
0000
0000
0000
ENDCHAR

STARTCHAR chs_A7B3
ENCODING 42931
SWIDTH 854 0
DWIDTH 16 0
BBX 16 18 0 -2
BITMAP
0000
0FD0
1030
2010
2000
2000
2000
2000
2008
2010
1020
0FC0
0000
0000
0000
0000
0000
0000
ENDCHAR

STARTCHAR chs_A7B4
ENCODING 42932
SWIDTH 854 0
DWIDTH 16 0
BBX 16 18 0 -2
BITMAP
0000
7FFC
4104
4104
0100
0100
0100
0100
0100
0100
0100
0380
0000
0000
0000
0000
0000
0000
ENDCHAR

STARTCHAR chs_A7B5
ENCODING 42933
SWIDTH 854 0
DWIDTH 16 0
BBX 16 18 0 -2
BITMAP
0000
1C1C
0808
0808
0410
0410
0220
0140
0080
0100
1200
0C00
0000
0000
0000
0000
0000
0000
ENDCHAR

STARTCHAR chs_A7B6
ENCODING 42934
SWIDTH 854 0
DWIDTH 16 0
BBX 16 18 0 -2
BITMAP
0000
0380
0100
1FF0
2108
4104
4104
4104
2108
1FF0
0100
0380
0000
0000
0000
0000
0000
0000
ENDCHAR

STARTCHAR chs_A7B7
ENCODING 42935
SWIDTH 854 0
DWIDTH 16 0
BBX 16 18 0 -2
BITMAP
0000
701C
1010
0820
0440
0280
0100
0280
0440
0820
1010
701C
0000
0000
0000
0000
0000
0000
ENDCHAR

STARTCHAR chs_A7B8
ENCODING 42936
SWIDTH 854 0
DWIDTH 16 0
BBX 16 18 0 -2
BITMAP
0000
3838
1010
1010
1010
1010
1010
1010
1010
1010
1010
3FF8
0004
0004
0000
0000
0000
0000
ENDCHAR

STARTCHAR chs_A7B9
ENCODING 42937
SWIDTH 854 0
DWIDTH 16 0
BBX 16 18 0 -2
BITMAP
0000
3838
1010
1010
1010
1010
0830
07D0
0010
0010
0010
0038
0000
0000
0000
0000
0000
0000
ENDCHAR

STARTCHAR chs_A7BA
ENCODING 42938
SWIDTH 854 0
DWIDTH 16 0
BBX 16 18 0 -2
BITMAP
0000
739C
2108
2108
2108
2108
2108
2108
2108
2108
2108
7FFC
0000
0000
0000
0000
0000
0000
ENDCHAR

STARTCHAR chs_A7BB
ENCODING 42939
SWIDTH 854 0
DWIDTH 16 0
BBX 16 18 0 -2
BITMAP
0000
739C
2108
2108
2108
2108
2108
2108
2108
2108
2108
7FFC
0002
0002
0000
0000
0000
0000
ENDCHAR

STARTCHAR chs_A7BC
ENCODING 42940
SWIDTH 854 0
DWIDTH 16 0
BBX 16 18 0 -2
BITMAP
0000
3E00
2400
0400
0400
07F0
0408
0404
0404
0404
0408
0FF0
0000
0000
0000
0000
0000
0000
ENDCHAR

STARTCHAR chs_A7BD
ENCODING 42941
SWIDTH 854 0
DWIDTH 16 0
BBX 16 18 0 -2
BITMAP
0000
701C
2008
2008
2008
3F08
2088
2048
2048
2048
2088
7F1C
0000
0000
0000
0000
0000
0000
ENDCHAR

STARTCHAR chs_A7BE
ENCODING 42942
SWIDTH 854 0
DWIDTH 16 0
BBX 16 18 0 -2
BITMAP
0000
1C00
0800
0800
0800
0FE0
0810
0808
0808
0808
0810
1FE0
0000
0000
0000
0000
0000
0000
ENDCHAR

STARTCHAR chs_A7BF
ENCODING 42943
SWIDTH 854 0
DWIDTH 16 0
BBX 16 18 0 -2
BITMAP
0000
2FC0
3020
2010
0008
0008
07F8
0008
0008
2010
1020
0FC0
0000
0000
0000
0000
0000
0000
ENDCHAR

STARTCHAR chs_A7C0
ENCODING 42944
SWIDTH 854 0
DWIDTH 16 0
BBX 16 18 0 -2
BITMAP
0000
71F0
2208
2404
2404
2404
3C04
2404
2404
2404
2208
71F0
0000
0000
0000
0000
0000
0000
ENDCHAR

STARTCHAR chs_A7C1
ENCODING 42945
SWIDTH 854 0
DWIDTH 16 0
BBX 16 18 0 -2
BITMAP
0000
03FC
0408
0808
0808
0408
03F8
0088
0308
0408
0808
381C
0000
0000
0000
0000
0000
0000
ENDCHAR

STARTCHAR chs_A7D1
ENCODING 42961
SWIDTH 854 0
DWIDTH 16 0
BBX 16 18 0 -2
BITMAP
0000
0000
0000
0780
0840
0040
0F40
10C0
1040
1040
08D0
0720
0000
0000
0000
0000
0000
0000
ENDCHAR

STARTCHAR chs_A7D2
ENCODING 42962
SWIDTH 854 0
DWIDTH 16 0
BBX 16 18 0 -2
BITMAP
0020
07C0
0800
1000
1780
1840
1020
1020
1020
1020
0840
0780
0000
0000
0000
0000
0000
0000
ENDCHAR

STARTCHAR chs_A7D3
ENCODING 42963
SWIDTH 854 0
DWIDTH 16 0
BBX 16 18 0 -2
BITMAP
0000
0000
0000
1F80
0840
0840
0840
0F80
0840
0840
0840
1F80
0000
0000
0000
0000
0000
0000
ENDCHAR

STARTCHAR chs_A7D4
ENCODING 42964
SWIDTH 854 0
DWIDTH 16 0
BBX 16 18 0 -2
BITMAP
0000
0000
0000
1FE0
0820
0800
0800
0800
0800
0800
0800
1C00
0000
0000
0000
0000
0000
0000
ENDCHAR

STARTCHAR chs_A7D5
ENCODING 42965
SWIDTH 854 0
DWIDTH 16 0
BBX 16 18 0 -2
BITMAP
0000
0000
0000
07F0
0220
0220
0220
0220
0420
0420
0820
1FF0
2008
2008
0000
0000
0000
0000
ENDCHAR

STARTCHAR chs_A7D6
ENCODING 42966
SWIDTH 854 0
DWIDTH 16 0
BBX 16 18 0 -2
BITMAP
0000
0000
0000
0780
0840
1020
1020
1FE0
1000
1000
0820
07C0
0000
0000
0000
0000
0000
0000
ENDCHAR

STARTCHAR chs_A7D7
ENCODING 42967
SWIDTH 854 0
DWIDTH 16 0
BBX 16 18 0 -2
BITMAP
0000
0480
0000
0780
0840
1020
1020
1FE0
1000
1000
0820
07C0
0000
0000
0000
0000
0000
0000
ENDCHAR

STARTCHAR chs_A7D8
ENCODING 42968
SWIDTH 854 0
DWIDTH 16 0
BBX 16 18 0 -2
BITMAP
0000
0000
0000
3398
0920
0920
0540
07C0
0920
0920
1110
2388
0000
0000
0000
0000
0000
0000
ENDCHAR

STARTCHAR chs_A7D9
ENCODING 42969
SWIDTH 854 0
DWIDTH 16 0
BBX 16 18 0 -2
BITMAP
0000
0000
0000
0BC0
0C20
0820
0020
01C0
0020
0020
0820
07C0
0000
0000
0000
0000
0000
0000
ENDCHAR

STARTCHAR chs_A7DA
ENCODING 42970
SWIDTH 854 0
DWIDTH 16 0
BBX 16 18 0 -2
BITMAP
0000
0000
0000
3870
1020
1060
10A0
1120
1220
1420
1820
3070
0000
0000
0000
0000
0000
0000
ENDCHAR

STARTCHAR chs_A7DB
ENCODING 42971
SWIDTH 854 0
DWIDTH 16 0
BBX 16 18 0 -2
BITMAP
0000
0480
0300
3870
1020
1060
10A0
1120
1220
1420
1820
3070
0000
0000
0000
0000
0000
0000
ENDCHAR

STARTCHAR chs_A7DC
ENCODING 42972
SWIDTH 854 0
DWIDTH 16 0
BBX 16 18 0 -2
BITMAP
0000
0000
0000
1C60
0880
0880
0900
0E00
0A00
0900
0880
1C60
0000
0000
0000
0000
0000
0000
ENDCHAR

STARTCHAR chs_A7DD
ENCODING 42973
SWIDTH 854 0
DWIDTH 16 0
BBX 16 18 0 -2
BITMAP
0000
0000
0000
0FF0
0220
0220
0220
0220
0220
0A20
0470
0000
0000
0000
0000
0000
0000
0000
ENDCHAR

STARTCHAR chs_A7DE
ENCODING 42974
SWIDTH 854 0
DWIDTH 16 0
BBX 16 18 0 -2
BITMAP
0000
0000
0000
3838
1010
1830
1450
1290
1290
1110
1010
3838
0000
0000
0000
0000
0000
0000
ENDCHAR

STARTCHAR chs_A7DF
ENCODING 42975
SWIDTH 854 0
DWIDTH 16 0
BBX 16 18 0 -2
BITMAP
0000
0000
0000
1C70
0820
0820
0820
0FE0
0820
0820
0820
1C70
0000
0000
0000
0000
0000
0000
ENDCHAR

STARTCHAR chs_A7E0
ENCODING 42976
SWIDTH 854 0
DWIDTH 16 0
BBX 16 18 0 -2
BITMAP
0000
0000
0000
0380
0440
0820
0820
0820
0820
0820
0440
0380
0000
0000
0000
0000
0000
0000
ENDCHAR

STARTCHAR chs_A7E1
ENCODING 42977
SWIDTH 854 0
DWIDTH 16 0
BBX 16 18 0 -2
BITMAP
0000
0000
0000
1FE0
0840
0840
0840
0840
0840
0840
0840
1CE0
0000
0000
0000
0000
0000
0000
ENDCHAR

STARTCHAR chs_A7E2
ENCODING 42978
SWIDTH 854 0
DWIDTH 16 0
BBX 16 18 0 -2
BITMAP
0000
0000
0000
0B80
1C40
0820
0820
0820
0820
0C40
0B80
0800
0800
0800
1C00
0000
0000
0000
ENDCHAR

STARTCHAR chs_A7E3
ENCODING 42979
SWIDTH 854 0
DWIDTH 16 0
BBX 16 18 0 -2
BITMAP
0000
0000
0000
0780
0840
1040
1000
1000
1000
1020
0840
0780
0000
0000
0000
0000
0000
0000
ENDCHAR

STARTCHAR chs_A7E4
ENCODING 42980
SWIDTH 854 0
DWIDTH 16 0
BBX 16 18 0 -2
BITMAP
0000
0000
0000
1FF0
1110
0100
0100
0100
0100
0100
0100
0380
0000
0000
0000
0000
0000
0000
ENDCHAR

STARTCHAR chs_A7E5
ENCODING 42981
SWIDTH 854 0
DWIDTH 16 0
BBX 16 18 0 -2
BITMAP
0000
0000
0000
1C70
0820
0820
0440
0440
0480
0280
0100
0100
0200
1400
0800
0000
0000
0000
ENDCHAR

STARTCHAR chs_A7E6
ENCODING 42982
SWIDTH 854 0
DWIDTH 16 0
BBX 16 18 0 -2
BITMAP
0000
0100
0100
0100
0D60
1390
1110
1110
1110
1110
1390
0D60
0100
0100
0380
0000
0000
0000
ENDCHAR

STARTCHAR chs_A7E7
ENCODING 42983
SWIDTH 854 0
DWIDTH 16 0
BBX 16 18 0 -2
BITMAP
0000
0000
0000
1C70
0820
0440
0280
0100
0280
0440
0820
1C70
0000
0000
0000
0000
0000
0000
ENDCHAR

STARTCHAR chs_A7E8
ENCODING 42984
SWIDTH 854 0
DWIDTH 16 0
BBX 16 18 0 -2
BITMAP
0000
0000
0000
1C70
0820
0820
0820
0820
0820
0820
0820
1FF0
0008
0008
0000
0000
0000
0000
ENDCHAR

STARTCHAR chs_A7E9
ENCODING 42985
SWIDTH 854 0
DWIDTH 16 0
BBX 16 18 0 -2
BITMAP
0000
0000
0000
1CE0
0840
0840
0840
07C0
0040
0040
0040
00E0
0000
0000
0000
0000
0000
0000
ENDCHAR

STARTCHAR chs_A7EA
ENCODING 42986
SWIDTH 854 0
DWIDTH 16 0
BBX 16 18 0 -2
BITMAP
0000
0000
0000
3BB8
1110
1110
1110
1110
1110
1110
1110
3FF8
0000
0000
0000
0000
0000
0000
ENDCHAR

STARTCHAR chs_A7EB
ENCODING 42987
SWIDTH 854 0
DWIDTH 16 0
BBX 16 18 0 -2
BITMAP
0000
0000
0000
3BB8
1110
1110
1110
1110
1110
1110
1110
3FF8
0004
0004
0000
0000
0000
0000
ENDCHAR

STARTCHAR chs_A7EC
ENCODING 42988
SWIDTH 854 0
DWIDTH 16 0
BBX 16 18 0 -2
BITMAP
0000
0000
0000
7C00
4800
0800
0800
0FC0
0820
0820
0820
1FC0
0000
0000
0000
0000
0000
0000
ENDCHAR

STARTCHAR chs_A7ED
ENCODING 42989
SWIDTH 854 0
DWIDTH 16 0
BBX 16 18 0 -2
BITMAP
0000
0000
0000
3838
1010
1010
1010
1F10
1090
1090
1090
3F38
0000
0000
0000
0000
0000
0000
ENDCHAR

STARTCHAR chs_A7EE
ENCODING 42990
SWIDTH 854 0
DWIDTH 16 0
BBX 16 18 0 -2
BITMAP
0000
0000
0000
1C00
0800
0800
0800
0FC0
0820
0820
0820
1FC0
0000
0000
0000
0000
0000
0000
ENDCHAR

STARTCHAR chs_A7EF
ENCODING 42991
SWIDTH 854 0
DWIDTH 16 0
BBX 16 18 0 -2
BITMAP
0000
0000
0000
0780
0840
0020
0020
03E0
0020
0820
0840
0780
0000
0000
0000
0000
0000
0000
ENDCHAR

STARTCHAR chs_A7F0
ENCODING 42992
SWIDTH 854 0
DWIDTH 16 0
BBX 16 18 0 -2
BITMAP
0000
0000
0000
38C0
1120
1210
1210
1E10
1210
1210
1120
38C0
0000
0000
0000
0000
0000
0000
ENDCHAR

STARTCHAR chs_A7F1
ENCODING 42993
SWIDTH 854 0
DWIDTH 16 0
BBX 16 18 0 -2
BITMAP
0000
0000
0000
03F0
0420
0420
0420
03E0
0120
0220
0A20
0470
0000
0000
0000
0000
0000
0000
ENDCHAR

STARTCHAR chs_A8A1
ENCODING 43169
SWIDTH 854 0
DWIDTH 16 0
BBX 16 18 0 -2
BITMAP
0000
0000
07C0
0000
0000
0740
08C0
0840
0840
0840
08C0
0760
0000
0000
0000
0000
0000
0000
ENDCHAR

STARTCHAR chs_A8A2
ENCODING 43170
SWIDTH 854 0
DWIDTH 16 0
BBX 16 18 0 -2
BITMAP
0000
0080
0100
0200
0000
0740
08C0
0840
0840
0840
08C0
0760
0000
0000
0000
0000
0000
0000
ENDCHAR

STARTCHAR chs_A8A3
ENCODING 43171
SWIDTH 854 0
DWIDTH 16 0
BBX 16 18 0 -2
BITMAP
0000
0440
0280
0100
0000
0740
08C0
0840
0840
0840
08C0
0760
0000
0000
0000
0000
0000
0000
ENDCHAR

STARTCHAR chs_A8A4
ENCODING 43172
SWIDTH 854 0
DWIDTH 16 0
BBX 16 18 0 -2
BITMAP
0000
0200
0100
0080
0000
0740
08C0
0840
0840
0840
08C0
0760
0000
0000
0000
0000
0000
0000
ENDCHAR

STARTCHAR chs_A8A5
ENCODING 43173
SWIDTH 854 0
DWIDTH 16 0
BBX 16 18 0 -2
BITMAP
0000
0000
07C0
0000
0000
0380
0440
0820
0FE0
0800
0420
03C0
0000
0000
0000
0000
0000
0000
ENDCHAR

STARTCHAR chs_A8A6
ENCODING 43174
SWIDTH 854 0
DWIDTH 16 0
BBX 16 18 0 -2
BITMAP
0000
0080
0100
0200
0000
0380
0440
0820
0FE0
0800
0420
03C0
0000
0000
0000
0000
0000
0000
ENDCHAR

STARTCHAR chs_A8A7
ENCODING 43175
SWIDTH 854 0
DWIDTH 16 0
BBX 16 18 0 -2
BITMAP
0000
0440
0280
0100
0000
0380
0440
0820
0FE0
0800
0420
03C0
0000
0000
0000
0000
0000
0000
ENDCHAR

STARTCHAR chs_A8A8
ENCODING 43176
SWIDTH 854 0
DWIDTH 16 0
BBX 16 18 0 -2
BITMAP
0000
0200
0100
0080
0000
0380
0440
0820
0FE0
0800
0420
03C0
0000
0000
0000
0000
0000
0000
ENDCHAR

STARTCHAR chs_A8A9
ENCODING 43177
SWIDTH 854 0
DWIDTH 16 0
BBX 16 18 0 -2
BITMAP
0000
0000
0380
0000
0000
0100
0100
0100
0100
0100
0100
0100
0000
0000
0000
0000
0000
0000
ENDCHAR

STARTCHAR chs_A8AA
ENCODING 43178
SWIDTH 854 0
DWIDTH 16 0
BBX 16 18 0 -2
BITMAP
0000
0100
0200
0400
0000
0200
0200
0200
0200
0200
0200
0200
0000
0000
0000
0000
0000
0000
ENDCHAR

STARTCHAR chs_A8AB
ENCODING 43179
SWIDTH 854 0
DWIDTH 16 0
BBX 16 18 0 -2
BITMAP
0000
0440
0280
0100
0000
0100
0100
0100
0100
0100
0100
0100
0000
0000
0000
0000
0000
0000
ENDCHAR

STARTCHAR chs_A8AC
ENCODING 43180
SWIDTH 854 0
DWIDTH 16 0
BBX 16 18 0 -2
BITMAP
0000
0200
0100
0080
0000
0100
0100
0100
0100
0100
0100
0100
0000
0000
0000
0000
0000
0000
ENDCHAR

STARTCHAR chs_A8AD
ENCODING 43181
SWIDTH 854 0
DWIDTH 16 0
BBX 16 18 0 -2
BITMAP
0000
0000
07C0
0000
0000
0380
0440
0820
0820
0820
0440
0380
0000
0000
0000
0000
0000
0000
ENDCHAR

STARTCHAR chs_A8AE
ENCODING 43182
SWIDTH 854 0
DWIDTH 16 0
BBX 16 18 0 -2
BITMAP
0000
0080
0100
0200
0000
0380
0440
0820
0820
0820
0440
0380
0000
0000
0000
0000
0000
0000
ENDCHAR

STARTCHAR chs_A8AF
ENCODING 43183
SWIDTH 854 0
DWIDTH 16 0
BBX 16 18 0 -2
BITMAP
0000
0440
0280
0100
0000
0380
0440
0820
0820
0820
0440
0380
0000
0000
0000
0000
0000
0000
ENDCHAR

STARTCHAR chs_A8B0
ENCODING 43184
SWIDTH 854 0
DWIDTH 16 0
BBX 16 18 0 -2
BITMAP
0000
0200
0100
0080
0000
0380
0440
0820
0820
0820
0440
0380
0000
0000
0000
0000
0000
0000
ENDCHAR

STARTCHAR chs_A8B1
ENCODING 43185
SWIDTH 854 0
DWIDTH 16 0
BBX 16 18 0 -2
BITMAP
0000
0000
07C0
0000
0000
0440
0440
0440
0440
0440
04C0
0360
0000
0000
0000
0000
0000
0000
ENDCHAR

STARTCHAR chs_A8B2
ENCODING 43186
SWIDTH 854 0
DWIDTH 16 0
BBX 16 18 0 -2
BITMAP
0000
0080
0100
0200
0000
0440
0440
0440
0440
0440
04C0
0360
0000
0000
0000
0000
0000
0000
ENDCHAR

STARTCHAR chs_A8B3
ENCODING 43187
SWIDTH 854 0
DWIDTH 16 0
BBX 16 18 0 -2
BITMAP
0000
0880
0500
0200
0000
0880
0880
0880
0880
0880
0980
06C0
0000
0000
0000
0000
0000
0000
ENDCHAR

STARTCHAR chs_A8B4
ENCODING 43188
SWIDTH 854 0
DWIDTH 16 0
BBX 16 18 0 -2
BITMAP
0000
0200
0100
0080
0000
0440
0440
0440
0440
0440
04C0
0360
0000
0000
0000
0000
0000
0000
ENDCHAR

STARTCHAR chs_A8B5
ENCODING 43189
SWIDTH 854 0
DWIDTH 16 0
BBX 16 18 0 -2
BITMAP
0000
07C0
0000
0280
0000
0440
0440
0440
0440
0440
04C0
0360
0000
0000
0000
0000
0000
0000
ENDCHAR

STARTCHAR chs_A8B6
ENCODING 43190
SWIDTH 854 0
DWIDTH 16 0
BBX 16 18 0 -2
BITMAP
0080
0100
0200
0000
0280
0000
0440
0440
0440
0440
04C0
0360
0000
0000
0000
0000
0000
0000
ENDCHAR

STARTCHAR chs_A8B7
ENCODING 43191
SWIDTH 854 0
DWIDTH 16 0
BBX 16 18 0 -2
BITMAP
0440
0280
0100
0000
0280
0000
0440
0440
0440
0440
04C0
0360
0000
0000
0000
0000
0000
0000
ENDCHAR

STARTCHAR chs_A8B8
ENCODING 43192
SWIDTH 854 0
DWIDTH 16 0
BBX 16 18 0 -2
BITMAP
0200
0100
0080
0000
0280
0000
0440
0440
0440
0440
04C0
0360
0000
0000
0000
0000
0000
0000
ENDCHAR

STARTCHAR chs_A8B9
ENCODING 43193
SWIDTH 854 0
DWIDTH 16 0
BBX 16 18 0 -2
BITMAP
0000
0000
0000
0280
0000
0440
0440
0440
0440
0440
04C0
0360
0000
0000
0000
0000
0000
0000
ENDCHAR

STARTCHAR chs_A8BA
ENCODING 43194
SWIDTH 854 0
DWIDTH 16 0
BBX 16 18 0 -2
BITMAP
0000
0100
0280
0440
0000
0380
0440
0820
0FE0
0800
0420
03C0
0000
0000
0000
0000
0000
0000
ENDCHAR

STARTCHAR chs_A8BB
ENCODING 43195
SWIDTH 854 0
DWIDTH 16 0
BBX 16 18 0 -2
BITMAP
0000
0000
0000
0000
0000
0740
08C0
0840
0840
0840
08C0
0760
0000
0000
0000
0000
0000
0000
ENDCHAR

STARTCHAR chs_A8BC
ENCODING 43196
SWIDTH 854 0
DWIDTH 16 0
BBX 16 18 0 -2
BITMAP
0000
0080
0100
0200
0000
1AC0
0D20
0920
0920
0920
0920
1930
0000
0000
0000
0000
0000
0000
ENDCHAR

STARTCHAR chs_A8BD
ENCODING 43197
SWIDTH 854 0
DWIDTH 16 0
BBX 16 18 0 -2
BITMAP
0000
0080
0100
0200
0000
0D80
0640
0440
0440
0440
0440
0460
0000
0000
0000
0000
0000
0000
ENDCHAR

STARTCHAR chs_A8BE
ENCODING 43198
SWIDTH 854 0
DWIDTH 16 0
BBX 16 18 0 -2
BITMAP
0000
0440
0280
0100
0000
0D80
0640
0440
0440
0440
0440
0460
0000
0000
0000
0000
0000
0000
ENDCHAR

STARTCHAR chs_A8BF
ENCODING 43199
SWIDTH 854 0
DWIDTH 16 0
BBX 16 18 0 -2
BITMAP
0000
0200
0100
0080
0000
0D80
0640
0440
0440
0440
0440
0460
0000
0000
0000
0000
0000
0000
ENDCHAR

STARTCHAR chs_A8C0
ENCODING 43200
SWIDTH 854 0
DWIDTH 16 0
BBX 16 18 0 -2
BITMAP
0000
0000
0000
0000
0000
03B0
0440
0440
0380
0400
0400
07C0
0820
0820
07C0
0000
0000
0000
ENDCHAR

STARTCHAR chs_A8C5
ENCODING 43205
SWIDTH 854 0
DWIDTH 16 0
BBX 16 18 0 -2
BITMAP
0000
0800
0800
1000
3FF8
0008
0008
0008
0008
0008
0008
0008
0010
0110
00A0
0040
0000
0000
ENDCHAR

STARTCHAR chs_A8C6
ENCODING 43206
SWIDTH 854 0
DWIDTH 16 0
BBX 16 18 0 -2
BITMAP
0000
0400
0400
0800
1FF8
0008
0008
0010
0110
00A0
0040
00A0
0310
0C10
3000
0000
0000
0000
ENDCHAR

STARTCHAR chs_A8C7
ENCODING 43207
SWIDTH 854 0
DWIDTH 16 0
BBX 16 18 0 -2
BITMAP
0000
0000
0000
0000
3FF8
2008
2008
2008
2008
2008
2008
2008
0000
0000
0000
0000
0000
0000
ENDCHAR

STARTCHAR chs_A8C8
ENCODING 43208
SWIDTH 854 0
DWIDTH 16 0
BBX 16 18 0 -2
BITMAP
0000
0000
3FF8
1000
1000
1000
1000
1000
1000
1000
1000
1000
1000
1FFC
0000
0000
0000
0000
ENDCHAR

STARTCHAR chs_A8C9
ENCODING 43209
SWIDTH 854 0
DWIDTH 16 0
BBX 16 18 0 -2
BITMAP
0000
0400
0400
0800
1FF8
0108
0108
0108
0108
0208
0208
0408
0810
1110
20A0
0040
0000
0000
ENDCHAR

STARTCHAR chs_A8CA
ENCODING 43210
SWIDTH 854 0
DWIDTH 16 0
BBX 16 18 0 -2
BITMAP
0000
0100
0100
0100
0100
7FFC
0100
0100
0200
0200
0400
0820
1FF0
0008
0000
0000
0000
0000
ENDCHAR

STARTCHAR chs_A8CB
ENCODING 43211
SWIDTH 854 0
DWIDTH 16 0
BBX 16 18 0 -2
BITMAP
0000
0000
3FC0
0040
0080
0100
03F8
0008
0008
0008
0008
0008
0010
0110
00A0
0040
0000
0000
ENDCHAR

STARTCHAR chs_A8CC
ENCODING 43212
SWIDTH 854 0
DWIDTH 16 0
BBX 16 18 0 -2
BITMAP
0000
0100
0900
0900
1100
1100
3FF8
0108
0108
0208
0208
0408
0408
0810
1050
2020
0000
0000
ENDCHAR

STARTCHAR chs_A8CD
ENCODING 43213
SWIDTH 854 0
DWIDTH 16 0
BBX 16 18 0 -2
BITMAP
0000
0000
0220
0220
0440
0440
0880
0880
1100
0880
0880
0440
0440
0220
0220
0000
0000
0000
ENDCHAR

STARTCHAR chs_A8CE
ENCODING 43214
SWIDTH 854 0
DWIDTH 16 0
BBX 16 18 0 -2
BITMAP
0000
0000
7FFC
0400
0400
0400
0800
0FF0
0010
0010
0010
0010
0010
0020
00A0
0040
0000
0000
ENDCHAR

STARTCHAR chs_A8CF
ENCODING 43215
SWIDTH 854 0
DWIDTH 16 0
BBX 16 18 0 -2
BITMAP
0000
0000
3FFC
1000
1000
1000
1000
1000
1000
1000
1000
2000
2000
4000
8000
0000
0000
0000
ENDCHAR

STARTCHAR chs_A8D0
ENCODING 43216
SWIDTH 854 0
DWIDTH 16 0
BBX 16 18 0 -2
BITMAP
0000
0020
0420
0420
0420
0420
0420
0420
0860
09A0
0E20
0020
0020
0020
0020
0020
0000
0000
ENDCHAR

STARTCHAR chs_A8D1
ENCODING 43217
SWIDTH 854 0
DWIDTH 16 0
BBX 16 18 0 -2
BITMAP
0000
0080
0080
0080
0100
0100
0200
0400
0200
0100
0100
0080
0080
0040
0040
0000
0000
0000
ENDCHAR

STARTCHAR chs_A8D2
ENCODING 43218
SWIDTH 854 0
DWIDTH 16 0
BBX 16 18 0 -2
BITMAP
0000
0000
7FFC
0100
0100
0100
0100
0100
0100
0100
0100
0100
0100
0100
0100
0000
0000
0000
ENDCHAR

STARTCHAR chs_A8D3
ENCODING 43219
SWIDTH 854 0
DWIDTH 16 0
BBX 16 18 0 -2
BITMAP
0000
0100
0100
1110
1110
1110
1110
1110
1110
1FF0
0100
0100
0100
7FFC
0000
0000
0000
0000
ENDCHAR

STARTCHAR chs_A8D4
ENCODING 43220
SWIDTH 854 0
DWIDTH 16 0
BBX 16 18 0 -2
BITMAP
0000
0040
0080
0100
0200
0440
0880
1100
0300
0500
0900
1100
0100
0100
0100
0100
0000
0000
ENDCHAR

STARTCHAR chs_A8D5
ENCODING 43221
SWIDTH 854 0
DWIDTH 16 0
BBX 16 18 0 -2
BITMAP
0000
0000
1FF8
0008
0008
0008
1FF8
1000
1000
1000
1000
1000
2000
2000
4000
8000
0000
0000
ENDCHAR

STARTCHAR chs_A8D6
ENCODING 43222
SWIDTH 854 0
DWIDTH 16 0
BBX 16 18 0 -2
BITMAP
0000
0000
0FE0
0820
0820
0820
0A20
0920
08A0
0820
0820
0820
0820
0FE0
0000
0000
0000
0000
ENDCHAR

STARTCHAR chs_A8D7
ENCODING 43223
SWIDTH 854 0
DWIDTH 16 0
BBX 16 18 0 -2
BITMAP
0000
0000
3FF0
0410
0410
0410
0410
0410
0420
0520
04C0
0400
0400
0400
0400
0400
0000
0000
ENDCHAR

STARTCHAR chs_A8D8
ENCODING 43224
SWIDTH 854 0
DWIDTH 16 0
BBX 16 18 0 -2
BITMAP
0000
0200
0200
0200
7FFC
0400
0400
0400
0FF0
0010
0010
0020
0020
0040
0080
0100
0000
0000
ENDCHAR

STARTCHAR chs_A8D9
ENCODING 43225
SWIDTH 854 0
DWIDTH 16 0
BBX 16 18 0 -2
BITMAP
0000
0100
0100
0100
0100
0200
0200
0200
0400
0400
0840
1020
3FF0
0010
0000
0000
0000
0000
ENDCHAR

STARTCHAR chs_A8DA
ENCODING 43226
SWIDTH 854 0
DWIDTH 16 0
BBX 16 18 0 -2
BITMAP
0000
1008
0810
0420
0240
0080
0100
0100
0100
0100
0100
0100
0100
0100
0100
0100
0000
0000
ENDCHAR

STARTCHAR chs_A8DB
ENCODING 43227
SWIDTH 854 0
DWIDTH 16 0
BBX 16 18 0 -2
BITMAP
0000
0000
7FFC
0100
0100
0100
0F00
1000
2000
2000
2000
2008
1010
0FE0
0000
0000
0000
0000
ENDCHAR

STARTCHAR chs_A8DC
ENCODING 43228
SWIDTH 854 0
DWIDTH 16 0
BBX 16 18 0 -2
BITMAP
0000
0100
0100
0100
7FFC
0100
0100
0F00
1000
2000
2000
2000
2008
1010
0FE0
0000
0000
0000
ENDCHAR

STARTCHAR chs_A8DD
ENCODING 43229
SWIDTH 854 0
DWIDTH 16 0
BBX 16 18 0 -2
BITMAP
0000
0000
0840
0840
0840
7FFC
0840
0840
0840
0880
0880
0900
0800
07F0
0000
0000
0000
0000
ENDCHAR

STARTCHAR chs_A8DE
ENCODING 43230
SWIDTH 854 0
DWIDTH 16 0
BBX 16 18 0 -2
BITMAP
0000
0000
7FFC
0900
0900
1100
1FF8
0108
0108
0108
0208
0208
0410
0810
1020
0000
0000
0000
ENDCHAR

STARTCHAR chs_A8DF
ENCODING 43231
SWIDTH 854 0
DWIDTH 16 0
BBX 16 18 0 -2
BITMAP
0000
0000
1C00
0400
0400
0400
0200
0200
0200
0100
0100
0080
0040
0020
0018
0000
0000
0000
ENDCHAR

STARTCHAR chs_A8E0
ENCODING 43232
SWIDTH 854 0
DWIDTH 16 0
BBX 16 18 0 -2
BITMAP
0000
0200
0200
0420
0420
0840
0840
1F80
0100
0200
0440
0820
1FF0
0010
0000
0000
0000
0000
ENDCHAR

STARTCHAR chs_A8E1
ENCODING 43233
SWIDTH 854 0
DWIDTH 16 0
BBX 16 18 0 -2
BITMAP
0000
0000
0000
1FF0
0010
0020
0420
0240
0140
0080
0080
0140
0220
0400
0800
0000
0000
0000
ENDCHAR

STARTCHAR chs_A8E2
ENCODING 43234
SWIDTH 854 0
DWIDTH 16 0
BBX 16 18 0 -2
BITMAP
0000
3FE0
0820
0820
0840
0840
1040
1FF8
0008
0008
0008
0010
0010
0020
0040
0000
0000
0000
ENDCHAR

STARTCHAR chs_A8E3
ENCODING 43235
SWIDTH 854 0
DWIDTH 16 0
BBX 16 18 0 -2
BITMAP
0000
0800
0800
0800
0800
0800
0800
1000
1FF8
0008
0008
0008
0010
0010
0020
0000
0000
0000
ENDCHAR

STARTCHAR chs_A8E4
ENCODING 43236
SWIDTH 854 0
DWIDTH 16 0
BBX 16 18 0 -2
BITMAP
0000
0200
0200
0200
0200
7FFC
0280
0280
0280
0480
0480
0480
0880
1080
607C
0000
0000
0000
ENDCHAR

STARTCHAR chs_A8E5
ENCODING 43237
SWIDTH 854 0
DWIDTH 16 0
BBX 16 18 0 -2
BITMAP
0000
0000
0100
0100
0100
0200
0200
0400
0400
0800
1000
2000
3FF8
0000
0000
0000
0000
0000
ENDCHAR

STARTCHAR chs_A8E6
ENCODING 43238
SWIDTH 854 0
DWIDTH 16 0
BBX 16 18 0 -2
BITMAP
0000
0000
0480
0480
0480
0480
0480
0480
0480
0480
0480
0880
0884
1084
607C
0000
0000
0000
ENDCHAR

STARTCHAR chs_A8E7
ENCODING 43239
SWIDTH 854 0
DWIDTH 16 0
BBX 16 18 0 -2
BITMAP
0000
0100
0100
0100
0100
0100
0100
0100
0100
0100
0100
0100
0100
0100
0100
0100
0000
0000
ENDCHAR

STARTCHAR chs_A8E8
ENCODING 43240
SWIDTH 854 0
DWIDTH 16 0
BBX 16 18 0 -2
BITMAP
0000
0010
0010
0010
0820
0420
0240
0140
0080
0080
0140
0220
0410
1800
6000
0000
0000
0000
ENDCHAR

STARTCHAR chs_A8E9
ENCODING 43241
SWIDTH 854 0
DWIDTH 16 0
BBX 16 18 0 -2
BITMAP
0000
0000
0000
0008
1008
1008
1008
1008
1008
1008
2078
3F88
0008
0000
0000
0000
0000
0000
ENDCHAR

STARTCHAR chs_A9A4
ENCODING 43428
SWIDTH 854 0
DWIDTH 16 0
BBX 16 18 0 -2
BITMAP
0000
0000
0000
0000
0000
0000
0000
FFFE
0000
0000
0000
0000
0000
0000
0000
0000
0000
0000
ENDCHAR

STARTCHAR chs_A9A5
ENCODING 43429
SWIDTH 854 0
DWIDTH 16 0
BBX 16 18 0 -2
BITMAP
0000
0000
0000
0000
0000
0000
0000
FFFE
FFFE
0000
0000
0000
0000
0000
0000
0000
0000
0000
ENDCHAR

STARTCHAR chs_A9A6
ENCODING 43430
SWIDTH 854 0
DWIDTH 16 0
BBX 16 18 0 -2
BITMAP
0100
0100
0100
0100
0100
0100
0100
0100
0100
0100
0100
0100
0100
0100
0100
0100
0000
0000
ENDCHAR

STARTCHAR chs_A9A7
ENCODING 43431
SWIDTH 854 0
DWIDTH 16 0
BBX 16 18 0 -2
BITMAP
0180
0180
0180
0180
0180
0180
0180
0180
0180
0180
0180
0180
0180
0180
0180
0180
0000
0000
ENDCHAR

STARTCHAR chs_A9A8
ENCODING 43432
SWIDTH 854 0
DWIDTH 16 0
BBX 16 18 0 -2
BITMAP
0000
0000
0000
0000
0000
0000
0000
3BB8
0000
0000
0000
0000
0000
0000
0000
0000
0000
0000
ENDCHAR

STARTCHAR chs_A9A9
ENCODING 43433
SWIDTH 854 0
DWIDTH 16 0
BBX 16 18 0 -2
BITMAP
0000
0000
0000
0000
0000
0000
0000
3BB8
3BB8
0000
0000
0000
0000
0000
0000
0000
0000
0000
ENDCHAR

STARTCHAR chs_A9AA
ENCODING 43434
SWIDTH 854 0
DWIDTH 16 0
BBX 16 18 0 -2
BITMAP
0000
0000
0100
0100
0100
0000
0100
0100
0100
0000
0100
0100
0100
0000
0000
0000
0000
0000
ENDCHAR

STARTCHAR chs_A9AB
ENCODING 43435
SWIDTH 854 0
DWIDTH 16 0
BBX 16 18 0 -2
BITMAP
0000
0000
0180
0180
0180
0000
0180
0180
0180
0000
0180
0180
0180
0000
0000
0000
0000
0000
ENDCHAR

STARTCHAR chs_A9AC
ENCODING 43436
SWIDTH 854 0
DWIDTH 16 0
BBX 16 18 0 -2
BITMAP
0000
0000
0000
0000
0000
0000
0000
EEEE
0000
0000
0000
0000
0000
0000
0000
0000
0000
0000
ENDCHAR

STARTCHAR chs_A9AD
ENCODING 43437
SWIDTH 854 0
DWIDTH 16 0
BBX 16 18 0 -2
BITMAP
0000
0000
0000
0000
0000
0000
0000
EEEE
EEEE
0000
0000
0000
0000
0000
0000
0000
0000
0000
ENDCHAR

STARTCHAR chs_A9AE
ENCODING 43438
SWIDTH 854 0
DWIDTH 16 0
BBX 16 18 0 -2
BITMAP
0100
0100
0100
0000
0100
0100
0100
0000
0100
0100
0100
0000
0100
0100
0100
0000
0000
0000
ENDCHAR

STARTCHAR chs_A9AF
ENCODING 43439
SWIDTH 854 0
DWIDTH 16 0
BBX 16 18 0 -2
BITMAP
0180
0180
0180
0000
0180
0180
0180
0000
0180
0180
0180
0000
0180
0180
0180
0000
0000
0000
ENDCHAR

STARTCHAR chs_A9B0
ENCODING 43440
SWIDTH 854 0
DWIDTH 16 0
BBX 16 18 0 -2
BITMAP
0000
0000
0000
0000
0000
0000
0000
01FE
0100
0100
0100
0100
0100
0100
0100
0100
0000
0000
ENDCHAR

STARTCHAR chs_A9B1
ENCODING 43441
SWIDTH 854 0
DWIDTH 16 0
BBX 16 18 0 -2
BITMAP
0000
0000
0000
0000
0000
0000
0000
01FE
01FE
0100
0100
0100
0100
0100
0100
0100
0000
0000
ENDCHAR

STARTCHAR chs_A9B2
ENCODING 43442
SWIDTH 854 0
DWIDTH 16 0
BBX 16 18 0 -2
BITMAP
0000
0000
0000
0000
0000
0000
0000
01FE
0180
0180
0180
0180
0180
0180
0180
0180
0000
0000
ENDCHAR

STARTCHAR chs_A9B3
ENCODING 43443
SWIDTH 854 0
DWIDTH 16 0
BBX 16 18 0 -2
BITMAP
0000
0000
0000
0000
0000
0000
0000
01FE
01FE
0180
0180
0180
0180
0180
0180
0180
0000
0000
ENDCHAR

STARTCHAR chs_A9B4
ENCODING 43444
SWIDTH 854 0
DWIDTH 16 0
BBX 16 18 0 -2
BITMAP
0000
0000
0000
0000
0000
0000
0000
FF00
0100
0100
0100
0100
0100
0100
0100
0100
0000
0000
ENDCHAR

STARTCHAR chs_A9B5
ENCODING 43445
SWIDTH 854 0
DWIDTH 16 0
BBX 16 18 0 -2
BITMAP
0000
0000
0000
0000
0000
0000
0000
FF00
FF00
0100
0100
0100
0100
0100
0100
0100
0000
0000
ENDCHAR

STARTCHAR chs_A9B6
ENCODING 43446
SWIDTH 854 0
DWIDTH 16 0
BBX 16 18 0 -2
BITMAP
0000
0000
0000
0000
0000
0000
0000
FF80
0180
0180
0180
0180
0180
0180
0180
0180
0000
0000
ENDCHAR

STARTCHAR chs_A9B7
ENCODING 43447
SWIDTH 854 0
DWIDTH 16 0
BBX 16 18 0 -2
BITMAP
0000
0000
0000
0000
0000
0000
0000
FF80
FF80
0180
0180
0180
0180
0180
0180
0180
0000
0000
ENDCHAR

STARTCHAR chs_A9B8
ENCODING 43448
SWIDTH 854 0
DWIDTH 16 0
BBX 16 18 0 -2
BITMAP
0100
0100
0100
0100
0100
0100
0100
01FE
0000
0000
0000
0000
0000
0000
0000
0000
0000
0000
ENDCHAR

STARTCHAR chs_A9B9
ENCODING 43449
SWIDTH 854 0
DWIDTH 16 0
BBX 16 18 0 -2
BITMAP
0100
0100
0100
0100
0100
0100
0100
01FE
01FE
0000
0000
0000
0000
0000
0000
0000
0000
0000
ENDCHAR

STARTCHAR chs_A9BA
ENCODING 43450
SWIDTH 854 0
DWIDTH 16 0
BBX 16 18 0 -2
BITMAP
0180
0180
0180
0180
0180
0180
0180
01FE
0000
0000
0000
0000
0000
0000
0000
0000
0000
0000
ENDCHAR

STARTCHAR chs_A9BB
ENCODING 43451
SWIDTH 854 0
DWIDTH 16 0
BBX 16 18 0 -2
BITMAP
0180
0180
0180
0180
0180
0180
0180
01FE
01FE
0000
0000
0000
0000
0000
0000
0000
0000
0000
ENDCHAR

STARTCHAR chs_A9BC
ENCODING 43452
SWIDTH 854 0
DWIDTH 16 0
BBX 16 18 0 -2
BITMAP
0100
0100
0100
0100
0100
0100
0100
FF00
0000
0000
0000
0000
0000
0000
0000
0000
0000
0000
ENDCHAR

STARTCHAR chs_A9BD
ENCODING 43453
SWIDTH 854 0
DWIDTH 16 0
BBX 16 18 0 -2
BITMAP
0100
0100
0100
0100
0100
0100
0100
FF00
FF00
0000
0000
0000
0000
0000
0000
0000
0000
0000
ENDCHAR

STARTCHAR chs_A9BE
ENCODING 43454
SWIDTH 854 0
DWIDTH 16 0
BBX 16 18 0 -2
BITMAP
0180
0180
0180
0180
0180
0180
0180
FF80
0000
0000
0000
0000
0000
0000
0000
0000
0000
0000
ENDCHAR

STARTCHAR chs_A9BF
ENCODING 43455
SWIDTH 854 0
DWIDTH 16 0
BBX 16 18 0 -2
BITMAP
0180
0180
0180
0180
0180
0180
0180
FF80
FF80
0000
0000
0000
0000
0000
0000
0000
0000
0000
ENDCHAR

STARTCHAR chs_A9C0
ENCODING 43456
SWIDTH 854 0
DWIDTH 16 0
BBX 16 18 0 -2
BITMAP
0100
0100
0100
0100
0100
0100
0100
01FE
0100
0100
0100
0100
0100
0100
0100
0100
0000
0000
ENDCHAR

STARTCHAR chs_A9C1
ENCODING 43457
SWIDTH 854 0
DWIDTH 16 0
BBX 16 18 0 -2
BITMAP
0100
0100
0100
0100
0100
0100
0100
01FE
01FE
0100
0100
0100
0100
0100
0100
0100
0000
0000
ENDCHAR

STARTCHAR chs_A9C2
ENCODING 43458
SWIDTH 854 0
DWIDTH 16 0
BBX 16 18 0 -2
BITMAP
0180
0180
0180
0180
0180
0180
0180
01FE
0100
0100
0100
0100
0100
0100
0100
0100
0000
0000
ENDCHAR

STARTCHAR chs_A9C3
ENCODING 43459
SWIDTH 854 0
DWIDTH 16 0
BBX 16 18 0 -2
BITMAP
0100
0100
0100
0100
0100
0100
0100
01FE
0180
0180
0180
0180
0180
0180
0180
0180
0000
0000
ENDCHAR

STARTCHAR chs_A9C4
ENCODING 43460
SWIDTH 854 0
DWIDTH 16 0
BBX 16 18 0 -2
BITMAP
0180
0180
0180
0180
0180
0180
0180
01FE
0180
0180
0180
0180
0180
0180
0180
0180
0000
0000
ENDCHAR

STARTCHAR chs_A9C5
ENCODING 43461
SWIDTH 854 0
DWIDTH 16 0
BBX 16 18 0 -2
BITMAP
0180
0180
0180
0180
0180
0180
0180
01FE
01FE
0100
0100
0100
0100
0100
0100
0100
0000
0000
ENDCHAR

STARTCHAR chs_A9C6
ENCODING 43462
SWIDTH 854 0
DWIDTH 16 0
BBX 16 18 0 -2
BITMAP
0100
0100
0100
0100
0100
0100
0100
01FE
01FE
0180
0180
0180
0180
0180
0180
0180
0000
0000
ENDCHAR

STARTCHAR chs_A9C7
ENCODING 43463
SWIDTH 854 0
DWIDTH 16 0
BBX 16 18 0 -2
BITMAP
0180
0180
0180
0180
0180
0180
0180
01FE
01FE
0180
0180
0180
0180
0180
0180
0180
0000
0000
ENDCHAR

STARTCHAR chs_A9C8
ENCODING 43464
SWIDTH 854 0
DWIDTH 16 0
BBX 16 18 0 -2
BITMAP
0100
0100
0100
0100
0100
0100
0100
FF00
0100
0100
0100
0100
0100
0100
0100
0100
0000
0000
ENDCHAR

STARTCHAR chs_A9C9
ENCODING 43465
SWIDTH 854 0
DWIDTH 16 0
BBX 16 18 0 -2
BITMAP
0100
0100
0100
0100
0100
0100
0100
FF00
FF00
0100
0100
0100
0100
0100
0100
0100
0000
0000
ENDCHAR

STARTCHAR chs_A9CA
ENCODING 43466
SWIDTH 854 0
DWIDTH 16 0
BBX 16 18 0 -2
BITMAP
0180
0180
0180
0180
0180
0180
0180
FF80
0100
0100
0100
0100
0100
0100
0100
0100
0000
0000
ENDCHAR

STARTCHAR chs_A9CB
ENCODING 43467
SWIDTH 854 0
DWIDTH 16 0
BBX 16 18 0 -2
BITMAP
0100
0100
0100
0100
0100
0100
0100
FF80
0180
0180
0180
0180
0180
0180
0180
0180
0000
0000
ENDCHAR

STARTCHAR chs_A9CC
ENCODING 43468
SWIDTH 854 0
DWIDTH 16 0
BBX 16 18 0 -2
BITMAP
0180
0180
0180
0180
0180
0180
0180
FF80
0180
0180
0180
0180
0180
0180
0180
0180
0000
0000
ENDCHAR

STARTCHAR chs_A9CD
ENCODING 43469
SWIDTH 854 0
DWIDTH 16 0
BBX 16 18 0 -2
BITMAP
0180
0180
0180
0180
0180
0180
0180
FF80
FF80
0100
0100
0100
0100
0100
0100
0100
0000
0000
ENDCHAR

STARTCHAR chs_A9CE
ENCODING 43470
SWIDTH 854 0
DWIDTH 16 0
BBX 16 18 0 -2
BITMAP
0100
0100
0100
0100
0100
0100
0100
FF80
FF80
0180
0180
0180
0180
0180
0180
0180
0000
0000
ENDCHAR

STARTCHAR chs_A9CF
ENCODING 43471
SWIDTH 854 0
DWIDTH 16 0
BBX 16 18 0 -2
BITMAP
0180
0180
0180
0180
0180
0180
0180
FF80
FF80
0180
0180
0180
0180
0180
0180
0180
0000
0000
ENDCHAR

STARTCHAR chs_A9D0
ENCODING 43472
SWIDTH 854 0
DWIDTH 16 0
BBX 16 18 0 -2
BITMAP
0000
0000
0000
0000
0000
0000
0000
FFFE
0100
0100
0100
0100
0100
0100
0100
0100
0000
0000
ENDCHAR

STARTCHAR chs_A9D1
ENCODING 43473
SWIDTH 854 0
DWIDTH 16 0
BBX 16 18 0 -2
BITMAP
0000
0000
0000
0000
0000
0000
0000
FFFE
FF00
0100
0100
0100
0100
0100
0100
0100
0000
0000
ENDCHAR

STARTCHAR chs_A9D2
ENCODING 43474
SWIDTH 854 0
DWIDTH 16 0
BBX 16 18 0 -2
BITMAP
0000
0000
0000
0000
0000
0000
0000
FFFE
01FE
0100
0100
0100
0100
0100
0100
0100
0000
0000
ENDCHAR

STARTCHAR chs_A9D3
ENCODING 43475
SWIDTH 854 0
DWIDTH 16 0
BBX 16 18 0 -2
BITMAP
0000
0000
0000
0000
0000
0000
0000
FFFE
FFFE
0100
0100
0100
0100
0100
0100
0100
0000
0000
ENDCHAR

STARTCHAR chs_A9D4
ENCODING 43476
SWIDTH 854 0
DWIDTH 16 0
BBX 16 18 0 -2
BITMAP
0000
0000
0000
0000
0000
0000
0000
FFFE
0180
0180
0180
0180
0180
0180
0180
0180
0000
0000
ENDCHAR

STARTCHAR chs_A9D5
ENCODING 43477
SWIDTH 854 0
DWIDTH 16 0
BBX 16 18 0 -2
BITMAP
0000
0000
0000
0000
0000
0000
0000
FFFE
FF80
0180
0180
0180
0180
0180
0180
0180
0000
0000
ENDCHAR

STARTCHAR chs_A9D6
ENCODING 43478
SWIDTH 854 0
DWIDTH 16 0
BBX 16 18 0 -2
BITMAP
0000
0000
0000
0000
0000
0000
0000
FFFE
01FE
0180
0180
0180
0180
0180
0180
0180
0000
0000
ENDCHAR

STARTCHAR chs_A9D7
ENCODING 43479
SWIDTH 854 0
DWIDTH 16 0
BBX 16 18 0 -2
BITMAP
0000
0000
0000
0000
0000
0000
0000
FFFE
FFFE
0180
0180
0180
0180
0180
0180
0180
0000
0000
ENDCHAR

STARTCHAR chs_A9D8
ENCODING 43480
SWIDTH 854 0
DWIDTH 16 0
BBX 16 18 0 -2
BITMAP
0100
0100
0100
0100
0100
0100
0100
FFFE
0000
0000
0000
0000
0000
0000
0000
0000
0000
0000
ENDCHAR

STARTCHAR chs_A9D9
ENCODING 43481
SWIDTH 854 0
DWIDTH 16 0
BBX 16 18 0 -2
BITMAP
0100
0100
0100
0100
0100
0100
0100
FFFE
FF00
0000
0000
0000
0000
0000
0000
0000
0000
0000
ENDCHAR

STARTCHAR chs_A9DA
ENCODING 43482
SWIDTH 854 0
DWIDTH 16 0
BBX 16 18 0 -2
BITMAP
0100
0100
0100
0100
0100
0100
0100
FFFE
01FE
0000
0000
0000
0000
0000
0000
0000
0000
0000
ENDCHAR

STARTCHAR chs_A9DB
ENCODING 43483
SWIDTH 854 0
DWIDTH 16 0
BBX 16 18 0 -2
BITMAP
0100
0100
0100
0100
0100
0100
0100
FFFE
FFFE
0000
0000
0000
0000
0000
0000
0000
0000
0000
ENDCHAR

STARTCHAR chs_A9DC
ENCODING 43484
SWIDTH 854 0
DWIDTH 16 0
BBX 16 18 0 -2
BITMAP
0180
0180
0180
0180
0180
0180
0180
FFFE
0000
0000
0000
0000
0000
0000
0000
0000
0000
0000
ENDCHAR

STARTCHAR chs_A9DD
ENCODING 43485
SWIDTH 854 0
DWIDTH 16 0
BBX 16 18 0 -2
BITMAP
0180
0180
0180
0180
0180
0180
0180
FFFE
FF80
0000
0000
0000
0000
0000
0000
0000
0000
0000
ENDCHAR

STARTCHAR chs_A9DE
ENCODING 43486
SWIDTH 854 0
DWIDTH 16 0
BBX 16 18 0 -2
BITMAP
0180
0180
0180
0180
0180
0180
0180
FFFE
01FE
0000
0000
0000
0000
0000
0000
0000
0000
0000
ENDCHAR

STARTCHAR chs_A9DF
ENCODING 43487
SWIDTH 854 0
DWIDTH 16 0
BBX 16 18 0 -2
BITMAP
0180
0180
0180
0180
0180
0180
0180
FFFE
FFFE
0000
0000
0000
0000
0000
0000
0000
0000
0000
ENDCHAR

STARTCHAR chs_A9E0
ENCODING 43488
SWIDTH 854 0
DWIDTH 16 0
BBX 16 18 0 -2
BITMAP
0100
0100
0100
0100
0100
0100
0100
FFFE
0100
0100
0100
0100
0100
0100
0100
0100
0000
0000
ENDCHAR

STARTCHAR chs_A9E1
ENCODING 43489
SWIDTH 854 0
DWIDTH 16 0
BBX 16 18 0 -2
BITMAP
0100
0100
0100
0100
0100
0100
0100
FFFE
FF00
0100
0100
0100
0100
0100
0100
0100
0000
0000
ENDCHAR

STARTCHAR chs_A9E2
ENCODING 43490
SWIDTH 854 0
DWIDTH 16 0
BBX 16 18 0 -2
BITMAP
0100
0100
0100
0100
0100
0100
0100
FFFE
01FE
0100
0100
0100
0100
0100
0100
0100
0000
0000
ENDCHAR

STARTCHAR chs_A9E3
ENCODING 43491
SWIDTH 854 0
DWIDTH 16 0
BBX 16 18 0 -2
BITMAP
0100
0100
0100
0100
0100
0100
0100
FFFE
FFFE
0100
0100
0100
0100
0100
0100
0100
0000
0000
ENDCHAR

STARTCHAR chs_A9E4
ENCODING 43492
SWIDTH 854 0
DWIDTH 16 0
BBX 16 18 0 -2
BITMAP
0180
0180
0180
0180
0180
0180
0180
FFFE
0100
0100
0100
0100
0100
0100
0100
0100
0000
0000
ENDCHAR

STARTCHAR chs_A9E5
ENCODING 43493
SWIDTH 854 0
DWIDTH 16 0
BBX 16 18 0 -2
BITMAP
0100
0100
0100
0100
0100
0100
0100
FFFE
0180
0180
0180
0180
0180
0180
0180
0180
0000
0000
ENDCHAR

STARTCHAR chs_A9E6
ENCODING 43494
SWIDTH 854 0
DWIDTH 16 0
BBX 16 18 0 -2
BITMAP
0180
0180
0180
0180
0180
0180
0180
FFFE
0180
0180
0180
0180
0180
0180
0180
0180
0000
0000
ENDCHAR

STARTCHAR chs_A9E7
ENCODING 43495
SWIDTH 854 0
DWIDTH 16 0
BBX 16 18 0 -2
BITMAP
0180
0180
0180
0180
0180
0180
0180
FFFE
FF00
0100
0100
0100
0100
0100
0100
0100
0000
0000
ENDCHAR

STARTCHAR chs_A9E8
ENCODING 43496
SWIDTH 854 0
DWIDTH 16 0
BBX 16 18 0 -2
BITMAP
0180
0180
0180
0180
0180
0180
0180
FFFE
01FE
0100
0100
0100
0100
0100
0100
0100
0000
0000
ENDCHAR

STARTCHAR chs_A9E9
ENCODING 43497
SWIDTH 854 0
DWIDTH 16 0
BBX 16 18 0 -2
BITMAP
0100
0100
0100
0100
0100
0100
0100
FFFE
FF80
0180
0180
0180
0180
0180
0180
0180
0000
0000
ENDCHAR

STARTCHAR chs_A9EA
ENCODING 43498
SWIDTH 854 0
DWIDTH 16 0
BBX 16 18 0 -2
BITMAP
0100
0100
0100
0100
0100
0100
0100
FFFE
01FE
0180
0180
0180
0180
0180
0180
0180
0000
0000
ENDCHAR

STARTCHAR chs_A9EB
ENCODING 43499
SWIDTH 854 0
DWIDTH 16 0
BBX 16 18 0 -2
BITMAP
0180
0180
0180
0180
0180
0180
0180
FFFE
FFFE
0100
0100
0100
0100
0100
0100
0100
0000
0000
ENDCHAR

STARTCHAR chs_A9EC
ENCODING 43500
SWIDTH 854 0
DWIDTH 16 0
BBX 16 18 0 -2
BITMAP
0100
0100
0100
0100
0100
0100
0100
FFFE
FFFE
0180
0180
0180
0180
0180
0180
0180
0000
0000
ENDCHAR

STARTCHAR chs_A9ED
ENCODING 43501
SWIDTH 854 0
DWIDTH 16 0
BBX 16 18 0 -2
BITMAP
0180
0180
0180
0180
0180
0180
0180
FFFE
FF80
0180
0180
0180
0180
0180
0180
0180
0000
0000
ENDCHAR

STARTCHAR chs_A9EE
ENCODING 43502
SWIDTH 854 0
DWIDTH 16 0
BBX 16 18 0 -2
BITMAP
0180
0180
0180
0180
0180
0180
0180
FFFE
01FE
0180
0180
0180
0180
0180
0180
0180
0000
0000
ENDCHAR

STARTCHAR chs_A9EF
ENCODING 43503
SWIDTH 854 0
DWIDTH 16 0
BBX 16 18 0 -2
BITMAP
0180
0180
0180
0180
0180
0180
0180
FFFE
FFFE
0180
0180
0180
0180
0180
0180
0180
0000
0000
ENDCHAR

STARTCHAR chs_B0A1
ENCODING 45217
SWIDTH 854 0
DWIDTH 16 0
BBX 16 18 0 -2
BITMAP
0000
0F7E
E904
A904
AA04
AA74
AC54
AA54
AA54
A954
E974
AD54
0A04
0804
0814
0808
0000
0000
ENDCHAR

STARTCHAR chs_B0A2
ENCODING 45218
SWIDTH 854 0
DWIDTH 16 0
BBX 16 18 0 -2
BITMAP
0004
7DFE
4408
4808
49E8
5128
4928
4928
4528
4528
45E8
6928
5008
4008
4028
4010
0000
0000
ENDCHAR

STARTCHAR chs_B0A3
ENCODING 45219
SWIDTH 854 0
DWIDTH 16 0
BBX 16 18 0 -2
BITMAP
2040
2040
2090
2108
23FC
F804
2100
21F8
2240
2044
27FE
3840
E0A0
4090
010E
0604
0000
0000
ENDCHAR

STARTCHAR chs_B0A4
ENCODING 45220
SWIDTH 854 0
DWIDTH 16 0
BBX 16 18 0 -2
BITMAP
2040
2040
2090
2108
FBFC
2004
2100
21F8
2A40
3044
E7FE
2040
20A0
2090
A10E
4604
0000
0000
ENDCHAR

STARTCHAR chs_B0A5
ENCODING 45221
SWIDTH 854 0
DWIDTH 16 0
BBX 16 18 0 -2
BITMAP
0090
0090
0090
7BFE
4890
4890
4800
4908
4890
4890
7860
4040
00A0
0110
020E
0404
0000
0000
ENDCHAR

STARTCHAR chs_B0A6
ENCODING 45222
SWIDTH 854 0
DWIDTH 16 0
BBX 16 18 0 -2
BITMAP
0040
0040
0090
7908
4BFC
4804
4900
49F8
4A40
4844
4FFE
7840
40A0
0090
010E
0604
0000
0000
ENDCHAR

STARTCHAR chs_B0A7
ENCODING 45223
SWIDTH 854 0
DWIDTH 16 0
BBX 16 18 0 -2
BITMAP
0200
0104
FFFE
0000
0010
1FF8
1010
1010
1FF0
0308
0490
0C60
1430
250E
C604
0400
0000
0000
ENDCHAR

STARTCHAR chs_B0A8
ENCODING 45224
SWIDTH 854 0
DWIDTH 16 0
BBX 16 18 0 -2
BITMAP
1020
1020
2124
7D24
45FC
4400
45FC
7C04
4404
45FC
4504
4500
7D02
4502
00FE
0000
0000
0000
ENDCHAR

STARTCHAR chs_B0A9
ENCODING 45225
SWIDTH 854 0
DWIDTH 16 0
BBX 16 18 0 -2
BITMAP
0080
0044
1FFE
1000
93F8
5208
53F8
1000
37BC
54A4
D7BC
1040
2444
2444
47FC
0004
0000
0000
ENDCHAR

STARTCHAR chs_B0AA
ENCODING 45226
SWIDTH 854 0
DWIDTH 16 0
BBX 16 18 0 -2
BITMAP
0824
FFFE
0820
43F8
3208
13F8
0208
E3F8
2100
23FC
2444
2244
2AA4
3204
23D4
0008
0000
0000
ENDCHAR

STARTCHAR chs_B0AB
ENCODING 45227
SWIDTH 854 0
DWIDTH 16 0
BBX 16 18 0 -2
BITMAP
2018
21E0
2040
3C48
53FC
90E0
1150
FE4C
1040
17FE
1090
2910
24A0
4460
8198
0608
0000
0000
ENDCHAR

STARTCHAR chs_B0AC
ENCODING 45228
SWIDTH 854 0
DWIDTH 16 0
BBX 16 18 0 -2
BITMAP
0440
0444
FFFE
0440
0440
0020
0820
0440
0440
0280
0100
0280
0440
0830
300E
C004
0000
0000
ENDCHAR

STARTCHAR chs_B0AD
ENCODING 45229
SWIDTH 854 0
DWIDTH 16 0
BBX 16 18 0 -2
BITMAP
0008
01FC
7D08
11F8
1108
21F8
2000
7DFC
A410
27FE
2510
2490
3C90
2410
0050
0020
0000
0000
ENDCHAR

STARTCHAR chs_B0AE
ENCODING 45230
SWIDTH 854 0
DWIDTH 16 0
BBX 16 18 0 -2
BITMAP
0010
3FF8
1220
0944
7FFE
4208
8210
3FF8
0400
07E0
0820
0C40
1240
2180
4660
181C
0000
0000
ENDCHAR

STARTCHAR chs_B0AF
ENCODING 45231
SWIDTH 854 0
DWIDTH 16 0
BBX 16 18 0 -2
BITMAP
0208
7908
4910
4824
57FE
6000
5110
4A08
4C04
4BF8
6AA8
52A8
42A8
42A8
4FFE
4000
0000
0000
ENDCHAR

STARTCHAR chs_B0B0
ENCODING 45232
SWIDTH 854 0
DWIDTH 16 0
BBX 16 18 0 -2
BITMAP
2840
2820
FE00
29FE
3902
1244
7C40
57FE
5488
7C88
1110
FE90
1060
1050
108C
1304
0000
0000
ENDCHAR

STARTCHAR chs_B0B1
ENCODING 45233
SWIDTH 854 0
DWIDTH 16 0
BBX 16 18 0 -2
BITMAP
1004
1FFE
2000
5FF8
8000
3FF8
0208
3FE8
2228
0408
FFF8
0888
1908
060A
098A
3046
0000
0000
ENDCHAR

STARTCHAR chs_B0B2
ENCODING 45234
SWIDTH 854 0
DWIDTH 16 0
BBX 16 18 0 -2
BITMAP
0200
0100
3FFC
2004
4208
0200
0204
FFFE
0420
0820
1840
0640
0180
0240
0C30
3010
0000
0000
ENDCHAR

STARTCHAR chs_B0B3
ENCODING 45235
SWIDTH 854 0
DWIDTH 16 0
BBX 16 18 0 -2
BITMAP
0840
0840
0844
17FE
10A0
3110
5248
9446
1BF8
1248
13F8
1248
13F8
124A
1042
103E
0000
0000
ENDCHAR

STARTCHAR chs_B0B4
ENCODING 45236
SWIDTH 854 0
DWIDTH 16 0
BBX 16 18 0 -2
BITMAP
1040
1020
1000
13FE
FA02
1444
1040
1BFE
3088
D088
1110
1090
1060
1050
508C
2304
0000
0000
ENDCHAR

STARTCHAR chs_B0B5
ENCODING 45237
SWIDTH 854 0
DWIDTH 16 0
BBX 16 18 0 -2
BITMAP
0080
0048
7BFC
4800
4910
48A0
4FFE
7800
4BF8
4A08
4A08
4BF8
7A08
4A08
03F8
0208
0000
0000
ENDCHAR

STARTCHAR chs_B0B6
ENCODING 45238
SWIDTH 854 0
DWIDTH 16 0
BBX 16 18 0 -2
BITMAP
0100
2108
2108
3FF8
0000
3FFC
2000
2FF8
2080
2088
3FFC
2080
2080
4080
8080
0080
0000
0000
ENDCHAR

STARTCHAR chs_B0B7
ENCODING 45239
SWIDTH 854 0
DWIDTH 16 0
BBX 16 18 0 -2
BITMAP
0040
3C20
2400
25FE
2502
3E44
2440
27FE
2488
3C88
2510
2490
2460
4450
948C
0904
0000
0000
ENDCHAR

STARTCHAR chs_B0B8
ENCODING 45240
SWIDTH 854 0
DWIDTH 16 0
BBX 16 18 0 -2
BITMAP
0100
7FFE
4102
8204
7FFC
0420
0C40
0380
1C70
0100
FFFE
0540
0920
111C
6108
0100
0000
0000
ENDCHAR

STARTCHAR chs_B0B9
ENCODING 45241
SWIDTH 854 0
DWIDTH 16 0
BBX 16 18 0 -2
BITMAP
0040
3C20
2404
27FE
2400
3C00
24F0
2490
2490
3C90
2490
2490
2492
4512
960E
0800
0000
0000
ENDCHAR

STARTCHAR chs_B0BA
ENCODING 45242
SWIDTH 854 0
DWIDTH 16 0
BBX 16 18 0 -2
BITMAP
3FF8
2008
3FF8
2008
3FF8
0000
0604
78FE
4084
4084
4084
46A4
5894
6088
0080
0080
0000
0000
ENDCHAR

STARTCHAR chs_B0BB
ENCODING 45243
SWIDTH 854 0
DWIDTH 16 0
BBX 16 18 0 -2
BITMAP
0100
0108
3FFC
2108
2108
FFFE
0280
0C60
3018
C006
3FF8
2448
2448
2448
FFFE
0000
0000
0000
ENDCHAR

STARTCHAR chs_B0BC
ENCODING 45244
SWIDTH 854 0
DWIDTH 16 0
BBX 16 18 0 -2
BITMAP
0000
0004
7C7E
4444
4444
4444
4444
4444
4444
47C4
4004
4004
4004
7FFC
4004
0000
0000
0000
ENDCHAR

STARTCHAR chs_B0BD
ENCODING 45245
SWIDTH 854 0
DWIDTH 16 0
BBX 16 18 0 -2
BITMAP
0840
0840
0844
7E7E
0888
3D08
0848
FF48
1048
1E50
1250
2220
2250
4C88
810E
0204
0000
0000
ENDCHAR

STARTCHAR chs_B0BE
ENCODING 45246
SWIDTH 854 0
DWIDTH 16 0
BBX 16 18 0 -2
BITMAP
0840
0840
7F40
0844
3EFE
0908
FE48
1050
1E20
2250
428E
8D04
0000
2488
2244
4004
0000
0000
ENDCHAR

STARTCHAR chs_B0BF
ENCODING 45247
SWIDTH 854 0
DWIDTH 16 0
BBX 16 18 0 -2
BITMAP
1000
2004
7DDE
4444
7C44
4554
7CCC
1044
FE44
28CC
5554
9244
7C44
1044
1154
1088
0000
0000
ENDCHAR

STARTCHAR chs_B0C0
ENCODING 45248
SWIDTH 854 0
DWIDTH 16 0
BBX 16 18 0 -2
BITMAP
2008
103C
13C0
FC40
0840
1040
1044
37FE
5440
98A0
14A0
10A0
1110
1108
120E
1404
0000
0000
ENDCHAR

STARTCHAR chs_B0C1
ENCODING 45249
SWIDTH 854 0
DWIDTH 16 0
BBX 16 18 0 -2
BITMAP
1210
1210
1210
2FA0
223E
6FC4
A224
3FA4
2428
27A8
2490
2890
28A8
3328
2046
2084
0000
0000
ENDCHAR

STARTCHAR chs_B0C2
ENCODING 45250
SWIDTH 854 0
DWIDTH 16 0
BBX 16 18 0 -2
BITMAP
0200
0410
1FF8
1110
1550
1110
1FF0
1110
1550
1110
0104
FFFE
0280
0460
1818
E006
0000
0000
ENDCHAR

STARTCHAR chs_B0C3
ENCODING 45251
SWIDTH 854 0
DWIDTH 16 0
BBX 16 18 0 -2
BITMAP
1080
1104
17FE
1444
5D54
5444
57FC
9444
1554
1404
1040
1FFE
10A0
1110
1208
1C06
0000
0000
ENDCHAR

STARTCHAR chs_B0C4
ENCODING 45252
SWIDTH 854 0
DWIDTH 16 0
BBX 16 18 0 -2
BITMAP
0080
4104
37FE
1444
8554
6444
27FC
0C44
1554
1404
6040
2FFE
20A0
2110
2208
2C06
0000
0000
ENDCHAR

STARTCHAR chs_B0C5
ENCODING 45253
SWIDTH 854 0
DWIDTH 16 0
BBX 16 18 0 -2
BITMAP
0440
0444
FFFE
0440
0440
1FF0
1110
1110
1110
1FF0
1010
1000
1004
1004
0FFC
0000
0000
0000
ENDCHAR

STARTCHAR chs_B0C6
ENCODING 45254
SWIDTH 854 0
DWIDTH 16 0
BBX 16 18 0 -2
BITMAP
2044
27E4
2444
2454
FC54
27D4
2214
2A14
37D4
2254
E254
2244
2444
2544
A894
4008
0000
0000
ENDCHAR

STARTCHAR chs_B0C7
ENCODING 45255
SWIDTH 854 0
DWIDTH 16 0
BBX 16 18 0 -2
BITMAP
1000
1020
1130
1120
FD20
1120
1520
1920
3120
D120
1210
1210
1218
140E
5804
2000
0000
0000
ENDCHAR

STARTCHAR chs_B0C8
ENCODING 45256
SWIDTH 854 0
DWIDTH 16 0
BBX 16 18 0 -2
BITMAP
0000
0020
0930
7D20
4920
4920
4920
4920
4920
4920
4910
7A10
4A18
040E
0804
1000
0000
0000
ENDCHAR

STARTCHAR chs_B0C9
ENCODING 45257
SWIDTH 854 0
DWIDTH 16 0
BBX 16 18 0 -2
BITMAP
0000
0008
7BFC
4A48
4A48
4A48
4A48
4A48
4BF8
4A08
4A00
7A00
4A02
0202
01FE
0000
0000
0000
ENDCHAR

STARTCHAR chs_B0CA
ENCODING 45258
SWIDTH 854 0
DWIDTH 16 0
BBX 16 18 0 -2
BITMAP
1040
1F7C
28A0
4510
8000
3FF8
2108
2108
2108
3FF8
2008
2000
2002
2002
1FFE
0000
0000
0000
ENDCHAR

STARTCHAR chs_B0CB
ENCODING 45259
SWIDTH 854 0
DWIDTH 16 0
BBX 16 18 0 -2
BITMAP
0000
0040
0460
0440
0440
0440
0440
0440
0820
0820
0820
1010
1008
200E
4004
0000
0000
0000
ENDCHAR

STARTCHAR chs_B0CC
ENCODING 45260
SWIDTH 854 0
DWIDTH 16 0
BBX 16 18 0 -2
BITMAP
0080
0044
1FFE
1000
9000
57FC
5444
1444
3444
57FC
D404
1400
2402
2402
43FE
0000
0000
0000
ENDCHAR

STARTCHAR chs_B0CD
ENCODING 45261
SWIDTH 854 0
DWIDTH 16 0
BBX 16 18 0 -2
BITMAP
0000
0008
3FFC
2108
2108
2108
2108
3FF8
2008
2000
2000
2000
2002
2002
1FFE
0000
0000
0000
ENDCHAR

STARTCHAR chs_B0CE
ENCODING 45262
SWIDTH 854 0
DWIDTH 16 0
BBX 16 18 0 -2
BITMAP
10A0
1090
1090
FC84
13FE
1080
1480
18F8
3108
D110
1290
1260
1420
1450
588E
2304
0000
0000
ENDCHAR

STARTCHAR chs_B0CF
ENCODING 45263
SWIDTH 854 0
DWIDTH 16 0
BBX 16 18 0 -2
BITMAP
00A0
7C90
4490
4484
47FE
7C80
1080
10F8
5D08
5110
5190
5260
5A20
7450
C88E
0304
0000
0000
ENDCHAR

STARTCHAR chs_B0D0
ENCODING 45264
SWIDTH 854 0
DWIDTH 16 0
BBX 16 18 0 -2
BITMAP
2800
2804
FDFE
2924
3924
1124
7D24
55FC
5504
7D00
1100
FF00
1102
1102
10FE
1000
0000
0000
ENDCHAR

STARTCHAR chs_B0D1
ENCODING 45265
SWIDTH 854 0
DWIDTH 16 0
BBX 16 18 0 -2
BITMAP
1000
1004
11FE
1124
FD24
1124
1524
19FC
3104
D100
1100
1100
1102
1102
50FE
2000
0000
0000
ENDCHAR

STARTCHAR chs_B0D2
ENCODING 45266
SWIDTH 854 0
DWIDTH 16 0
BBX 16 18 0 -2
BITMAP
1000
1004
11FE
FD24
1124
7D24
1124
FF24
11FC
3100
3900
5500
5502
9102
10FE
1000
0000
0000
ENDCHAR

STARTCHAR chs_B0D3
ENCODING 45267
SWIDTH 854 0
DWIDTH 16 0
BBX 16 18 0 -2
BITMAP
1004
11FE
1104
1124
1124
FD24
1124
1124
1124
1124
1D24
F124
4050
0088
0106
0602
0000
0000
ENDCHAR

STARTCHAR chs_B0D4
ENCODING 45268
SWIDTH 854 0
DWIDTH 16 0
BBX 16 18 0 -2
BITMAP
3FF8
0100
7FFE
8924
2200
7F7C
2244
3E44
087C
7F44
4944
7F7C
0844
7F44
0894
0908
0000
0000
ENDCHAR

STARTCHAR chs_B0D5
ENCODING 45269
SWIDTH 854 0
DWIDTH 16 0
BBX 16 18 0 -2
BITMAP
0008
3FFC
2448
2448
3FF8
0100
0100
3FF8
0100
0104
FFFE
0200
0420
0810
1FF8
0808
0000
0000
ENDCHAR

STARTCHAR chs_B0D6
ENCODING 45270
SWIDTH 854 0
DWIDTH 16 0
BBX 16 18 0 -2
BITMAP
0440
0420
0C58
3288
0100
0280
0C60
3018
DFF6
1110
1110
1FF0
1010
1004
1004
0FFC
0000
0000
ENDCHAR

STARTCHAR chs_B0D7
ENCODING 45271
SWIDTH 854 0
DWIDTH 16 0
BBX 16 18 0 -2
BITMAP
0200
0400
0808
3FFC
2008
2008
2008
2008
3FF8
2008
2008
2008
2008
3FF8
2008
0000
0000
0000
ENDCHAR

STARTCHAR chs_B0D8
ENCODING 45272
SWIDTH 854 0
DWIDTH 16 0
BBX 16 18 0 -2
BITMAP
1000
1020
1040
1084
FDFE
1104
3104
3904
5504
51FC
9104
1104
1104
1104
11FC
1104
0000
0000
ENDCHAR

STARTCHAR chs_B0D9
ENCODING 45273
SWIDTH 854 0
DWIDTH 16 0
BBX 16 18 0 -2
BITMAP
0004
FFFE
0100
0200
0410
1FF8
1010
1010
1010
1FF0
1010
1010
1010
1010
1FF0
1010
0000
0000
ENDCHAR

STARTCHAR chs_B0DA
ENCODING 45274
SWIDTH 854 0
DWIDTH 16 0
BBX 16 18 0 -2
BITMAP
1004
17FE
14A4
14A4
FFFC
1444
1040
1BF8
3040
D044
1FFE
1080
1110
1208
57FC
2204
0000
0000
ENDCHAR

STARTCHAR chs_B0DB
ENCODING 45275
SWIDTH 854 0
DWIDTH 16 0
BBX 16 18 0 -2
BITMAP
0800
0804
0FFE
1040
1040
3088
53FC
9208
1208
1208
13F8
1208
1208
1208
13F8
1208
0000
0000
ENDCHAR

STARTCHAR chs_B0DC
ENCODING 45276
SWIDTH 854 0
DWIDTH 16 0
BBX 16 18 0 -2
BITMAP
0040
7C40
4444
54FE
5488
5508
5688
5488
5488
5450
5450
1020
2860
2490
450E
8204
0000
0000
ENDCHAR

STARTCHAR chs_B0DD
ENCODING 45277
SWIDTH 854 0
DWIDTH 16 0
BBX 16 18 0 -2
BITMAP
0408
0EFC
7820
0820
08FC
7E20
0820
08FC
FF20
0820
09FE
0820
1020
1020
2020
4020
0000
0000
ENDCHAR

STARTCHAR chs_B0DE
ENCODING 45278
SWIDTH 854 0
DWIDTH 16 0
BBX 16 18 0 -2
BITMAP
0820
1C44
F1FE
1124
1124
FDFC
1124
3944
35FC
50A0
5124
97FE
1020
1020
1020
1020
0000
0000
ENDCHAR

STARTCHAR chs_B0DF
ENCODING 45279
SWIDTH 854 0
DWIDTH 16 0
BBX 16 18 0 -2
BITMAP
0000
0204
F97E
2010
2FD0
2010
2490
F2BC
2110
2110
2290
2250
3C50
E410
48FE
0000
0000
0000
ENDCHAR

STARTCHAR chs_B0E0
ENCODING 45280
SWIDTH 854 0
DWIDTH 16 0
BBX 16 18 0 -2
BITMAP
0100
0104
FD7E
2110
2510
2510
2510
F57C
2510
2910
2110
2210
3A10
E210
44FE
0800
0000
0000
ENDCHAR

STARTCHAR chs_B0E1
ENCODING 45281
SWIDTH 854 0
DWIDTH 16 0
BBX 16 18 0 -2
BITMAP
2100
223C
27A4
24A4
FEA4
25A4
24C2
2FBC
34A4
E6A4
25A4
2498
2488
2894
B2A4
4142
0000
0000
ENDCHAR

STARTCHAR chs_B0E2
ENCODING 45282
SWIDTH 854 0
DWIDTH 16 0
BBX 16 18 0 -2
BITMAP
1008
101C
11E0
1100
FD00
11FC
1104
1584
1948
3148
D150
1220
1220
1450
588E
2304
0000
0000
ENDCHAR

STARTCHAR chs_B0E3
ENCODING 45283
SWIDTH 854 0
DWIDTH 16 0
BBX 16 18 0 -2
BITMAP
0808
107C
3E48
2248
3248
2A86
2200
FEFC
2244
3248
2A28
2210
2230
2248
4A8E
8504
0000
0000
ENDCHAR

STARTCHAR chs_B0E4
ENCODING 45284
SWIDTH 854 0
DWIDTH 16 0
BBX 16 18 0 -2
BITMAP
0004
2BFE
2820
2440
45FC
4304
8124
7D24
2524
2524
2524
2524
2450
2448
4C86
8102
0000
0000
ENDCHAR

STARTCHAR chs_B0E5
ENCODING 45285
SWIDTH 854 0
DWIDTH 16 0
BBX 16 18 0 -2
BITMAP
1008
101C
11E0
1100
FD00
11FC
3104
3984
5548
5148
9150
1220
1220
1450
188E
1304
0000
0000
ENDCHAR

STARTCHAR chs_B0E6
ENCODING 45286
SWIDTH 854 0
DWIDTH 16 0
BBX 16 18 0 -2
BITMAP
0808
481C
49E0
4900
4900
7DFC
4104
4184
7948
4948
4950
4A20
4A20
4C50
888E
0B04
0000
0000
ENDCHAR

STARTCHAR chs_B0E7
ENCODING 45287
SWIDTH 854 0
DWIDTH 16 0
BBX 16 18 0 -2
BITMAP
1020
10B0
10A0
1090
FD10
110E
1204
1C00
33F8
D088
1088
1088
1108
1108
5228
2410
0000
0000
ENDCHAR

STARTCHAR chs_B0E8
ENCODING 45288
SWIDTH 854 0
DWIDTH 16 0
BBX 16 18 0 -2
BITMAP
1040
1244
1148
1150
FC40
13FC
1440
1840
3044
D7FE
1040
1040
1040
1040
5040
2040
0000
0000
ENDCHAR

STARTCHAR chs_B0E9
ENCODING 45289
SWIDTH 854 0
DWIDTH 16 0
BBX 16 18 0 -2
BITMAP
0840
0A44
0948
1150
1040
27FC
3040
5040
9044
1FFE
1040
1040
1040
1040
1040
1040
0000
0000
ENDCHAR

STARTCHAR chs_B0EA
ENCODING 45290
SWIDTH 854 0
DWIDTH 16 0
BBX 16 18 0 -2
BITMAP
4010
2048
2188
FE3E
0540
5554
5554
FD7E
2548
2548
3D7E
E528
2AA8
2A58
53C8
8048
0000
0000
ENDCHAR

STARTCHAR chs_B0EB
ENCODING 45291
SWIDTH 854 0
DWIDTH 16 0
BBX 16 18 0 -2
BITMAP
0100
2108
1918
0920
0100
3FF8
0100
0100
0104
FFFE
0100
0100
0100
0100
0100
0100
0000
0000
ENDCHAR

STARTCHAR chs_B0EC
ENCODING 45292
SWIDTH 854 0
DWIDTH 16 0
BBX 16 18 0 -2
BITMAP
0200
0200
0200
0220
3FF0
0220
0220
1230
322C
2226
4422
8420
0820
10A0
2040
0000
0000
0000
ENDCHAR

STARTCHAR chs_B0ED
ENCODING 45293
SWIDTH 854 0
DWIDTH 16 0
BBX 16 18 0 -2
BITMAP
1020
1020
2124
20A4
44A8
F820
11FC
2020
4020
FC24
03FE
0020
1C20
E020
4020
0020
0000
0000
ENDCHAR

STARTCHAR chs_B0EE
ENCODING 45294
SWIDTH 854 0
DWIDTH 16 0
BBX 16 18 0 -2
BITMAP
0800
087C
0844
FF44
0848
0848
7E50
0848
0844
FF42
0842
1062
1054
2048
4040
0040
0000
0000
ENDCHAR

STARTCHAR chs_B0EF
ENCODING 45295
SWIDTH 854 0
DWIDTH 16 0
BBX 16 18 0 -2
BITMAP
0800
087C
FF48
0850
7E58
0844
FF64
0858
1140
3FF0
D110
1110
1110
1150
1120
0100
0000
0000
ENDCHAR

STARTCHAR chs_B0F0
ENCODING 45296
SWIDTH 854 0
DWIDTH 16 0
BBX 16 18 0 -2
BITMAP
1100
113E
1122
17E4
F924
1128
37E4
3924
5522
51E2
9722
1134
1228
1220
1420
1020
0000
0000
ENDCHAR

STARTCHAR chs_B0F1
ENCODING 45297
SWIDTH 854 0
DWIDTH 16 0
BBX 16 18 0 -2
BITMAP
1040
1020
11FC
1088
FC50
13FE
3244
3820
57FE
5080
90F8
1088
1108
1108
1228
1410
0000
0000
ENDCHAR

STARTCHAR chs_B0F2
ENCODING 45298
SWIDTH 854 0
DWIDTH 16 0
BBX 16 18 0 -2
BITMAP
0040
7820
49FC
4888
4850
7BFE
4A44
4820
4FFE
7880
48F8
4888
4888
4908
4928
9A10
0000
0000
ENDCHAR

STARTCHAR chs_B0F3
ENCODING 45299
SWIDTH 854 0
DWIDTH 16 0
BBX 16 18 0 -2
BITMAP
1100
113E
2122
27E4
4924
F128
27E4
4124
F922
47E2
0122
1934
E228
4220
0420
0020
0000
0000
ENDCHAR

STARTCHAR chs_B0F4
ENCODING 45300
SWIDTH 854 0
DWIDTH 16 0
BBX 16 18 0 -2
BITMAP
1040
1048
17FC
1040
FDF8
1080
37FE
3920
5550
5248
95F6
1040
13F8
1040
1040
1040
0000
0000
ENDCHAR

STARTCHAR chs_B0F5
ENCODING 45301
SWIDTH 854 0
DWIDTH 16 0
BBX 16 18 0 -2
BITMAP
0040
0020
7DFC
1088
1050
23FE
2244
3C20
67FE
A480
24F8
2488
2488
3D08
2528
0210
0000
0000
ENDCHAR

STARTCHAR chs_B0F6
ENCODING 45302
SWIDTH 854 0
DWIDTH 16 0
BBX 16 18 0 -2
BITMAP
1020
1020
1020
1020
7DFC
5420
5420
55FC
5420
7C24
13FE
1420
1C20
E220
4020
0020
0000
0000
ENDCHAR

STARTCHAR chs_B0F7
ENCODING 45303
SWIDTH 854 0
DWIDTH 16 0
BBX 16 18 0 -2
BITMAP
1040
1020
11FC
1C88
2050
23FE
7A44
9020
13FE
7C80
10F8
1088
1488
1908
1128
0210
0000
0000
ENDCHAR

STARTCHAR chs_B0F8
ENCODING 45304
SWIDTH 854 0
DWIDTH 16 0
BBX 16 18 0 -2
BITMAP
0880
0840
0BF8
1110
10A0
37FC
5488
9040
17FC
1100
11F0
1110
1110
1210
1250
1420
0000
0000
ENDCHAR

STARTCHAR chs_B0F9
ENCODING 45305
SWIDTH 854 0
DWIDTH 16 0
BBX 16 18 0 -2
BITMAP
0080
4040
37FC
1110
00A0
0FFE
E884
2040
2FFE
2100
21F0
2110
2910
3210
2250
0420
0000
0000
ENDCHAR

STARTCHAR chs_B0FA
ENCODING 45306
SWIDTH 854 0
DWIDTH 16 0
BBX 16 18 0 -2
BITMAP
0440
0444
FFFE
0440
0410
0FF8
1010
2F90
4890
0890
0F90
0810
0864
0804
07FC
0000
0000
0000
ENDCHAR

STARTCHAR chs_B0FB
ENCODING 45307
SWIDTH 854 0
DWIDTH 16 0
BBX 16 18 0 -2
BITMAP
0080
3C88
24FC
2508
2608
3DE8
2528
2528
2528
3DE8
2508
2530
2502
4502
94FE
0800
0000
0000
ENDCHAR

STARTCHAR chs_B0FC
ENCODING 45308
SWIDTH 854 0
DWIDTH 16 0
BBX 16 18 0 -2
BITMAP
0800
0800
0810
1FF8
1010
2010
5F90
9090
1090
1F90
1010
1060
1004
1004
0FFC
0000
0000
0000
ENDCHAR

STARTCHAR chs_B0FD
ENCODING 45309
SWIDTH 854 0
DWIDTH 16 0
BBX 16 18 0 -2
BITMAP
0200
0104
FFFE
0800
17F0
1410
37F0
5080
9FFC
12A0
1490
0508
0C90
3460
C618
0406
0000
0000
ENDCHAR

STARTCHAR chs_B0FE
ENCODING 45310
SWIDTH 854 0
DWIDTH 16 0
BBX 16 18 0 -2
BITMAP
0104
7F84
0104
3F24
0124
FFA4
0824
4924
2924
2A24
1C24
2A24
C984
0884
2814
1008
0000
0000
ENDCHAR

STARTCHAR chs_B1A1
ENCODING 45473
SWIDTH 854 0
DWIDTH 16 0
BBX 16 18 0 -2
BITMAP
0820
FFFE
0850
47FC
2040
23F8
8A48
4BF8
1248
13F8
2248
6010
2FFE
2210
2110
2030
0000
0000
ENDCHAR

STARTCHAR chs_B1A2
ENCODING 45474
SWIDTH 854 0
DWIDTH 16 0
BBX 16 18 0 -2
BITMAP
1FF0
0100
7FFE
4102
9D74
0100
1D70
0800
0FF0
1010
2F90
4890
0F90
0834
0804
07FC
0000
0000
ENDCHAR

STARTCHAR chs_B1A3
ENCODING 45475
SWIDTH 854 0
DWIDTH 16 0
BBX 16 18 0 -2
BITMAP
0808
0BFC
0A08
1208
1208
33F8
3240
5044
9FFE
1040
10E0
1150
1248
144E
1844
1040
0000
0000
ENDCHAR

STARTCHAR chs_B1A4
ENCODING 45476
SWIDTH 854 0
DWIDTH 16 0
BBX 16 18 0 -2
BITMAP
1010
17F8
1410
2410
27F0
6080
BFFC
21C0
22B0
2C8C
0180
3FF8
0100
0104
FFFE
0000
0000
0000
ENDCHAR

STARTCHAR chs_B1A5
ENCODING 45477
SWIDTH 854 0
DWIDTH 16 0
BBX 16 18 0 -2
BITMAP
2080
2080
2084
3CFE
2504
4A04
45F4
A114
2114
21F4
2104
2518
2902
3102
20FE
0000
0000
0000
ENDCHAR

STARTCHAR chs_B1A6
ENCODING 45478
SWIDTH 854 0
DWIDTH 16 0
BBX 16 18 0 -2
BITMAP
0200
0104
7FFE
4004
8008
0000
3FF8
0100
0100
1FF0
0100
0140
0120
0120
7FFC
0000
0000
0000
ENDCHAR

STARTCHAR chs_B1A7
ENCODING 45479
SWIDTH 854 0
DWIDTH 16 0
BBX 16 18 0 -2
BITMAP
1080
1080
1084
10FE
FD04
1204
11F4
1D14
3114
D1F4
1104
1118
1102
1102
50FE
2000
0000
0000
ENDCHAR

STARTCHAR chs_B1A8
ENCODING 45480
SWIDTH 854 0
DWIDTH 16 0
BBX 16 18 0 -2
BITMAP
1008
11FC
1108
1108
FD28
1110
1500
19F8
3108
D190
1150
1120
1150
118E
5104
2100
0000
0000
ENDCHAR

STARTCHAR chs_B1A9
ENCODING 45481
SWIDTH 854 0
DWIDTH 16 0
BBX 16 18 0 -2
BITMAP
1FF0
1010
1FF0
1010
1FF0
0440
7FFC
0440
FFFE
0440
0920
355E
C384
0920
1110
0300
0000
0000
ENDCHAR

STARTCHAR chs_B1AA
ENCODING 45482
SWIDTH 854 0
DWIDTH 16 0
BBX 16 18 0 -2
BITMAP
0840
1040
2240
D444
48FE
3104
2A04
CC44
1424
2424
CC04
1404
6404
0404
2828
1010
0000
0000
ENDCHAR

STARTCHAR chs_B1AB
ENCODING 45483
SWIDTH 854 0
DWIDTH 16 0
BBX 16 18 0 -2
BITMAP
0840
0840
1E44
147E
2884
7F04
AAF4
2A94
3E94
2AF4
2A84
3E98
0082
0E82
707E
2000
0000
0000
ENDCHAR

STARTCHAR chs_B1AC
ENCODING 45484
SWIDTH 854 0
DWIDTH 16 0
BBX 16 18 0 -2
BITMAP
13F8
1208
13F8
1608
5BF8
5110
57FC
9110
1FFE
1110
1248
2D56
28E4
4150
8248
00C0
0000
0000
ENDCHAR

STARTCHAR chs_B1AD
ENCODING 45485
SWIDTH 854 0
DWIDTH 16 0
BBX 16 18 0 -2
BITMAP
1000
1004
17FE
1020
FC20
1040
3040
38C0
54D0
5548
9244
1444
1040
1040
1040
1040
0000
0000
ENDCHAR

STARTCHAR chs_B1AE
ENCODING 45486
SWIDTH 854 0
DWIDTH 16 0
BBX 16 18 0 -2
BITMAP
0020
0044
7DFE
1124
1124
21FC
2124
3D44
65FC
A4A0
2524
27FE
2420
3C20
2420
0020
0000
0000
ENDCHAR

STARTCHAR chs_B1AF
ENCODING 45487
SWIDTH 854 0
DWIDTH 16 0
BBX 16 18 0 -2
BITMAP
0240
3E7C
0240
0240
1E78
0240
0240
3E7C
0240
0000
0900
2888
2884
4812
4812
07F0
0000
0000
ENDCHAR

STARTCHAR chs_B1B0
ENCODING 45488
SWIDTH 854 0
DWIDTH 16 0
BBX 16 18 0 -2
BITMAP
0100
0210
1FF8
1110
1110
1FF0
1110
1210
1FF0
0480
0884
FFFE
0080
0080
0080
0080
0000
0000
ENDCHAR

STARTCHAR chs_B1B1
ENCODING 45489
SWIDTH 854 0
DWIDTH 16 0
BBX 16 18 0 -2
BITMAP
0440
0440
0440
0440
0444
7C58
0460
0440
0440
0440
0440
0442
1C42
E442
443E
0400
0000
0000
ENDCHAR

STARTCHAR chs_B1B2
ENCODING 45490
SWIDTH 854 0
DWIDTH 16 0
BBX 16 18 0 -2
BITMAP
0488
7CFC
0480
7CFC
0480
7CFC
0680
0410
3FF8
0900
1FF0
0104
FFFE
0100
0100
0100
0000
0000
ENDCHAR

STARTCHAR chs_B1B3
ENCODING 45491
SWIDTH 854 0
DWIDTH 16 0
BBX 16 18 0 -2
BITMAP
0440
0444
7C78
0442
1C42
E43E
4400
1FF0
1010
1FF0
1010
1FF0
1010
1010
1050
1020
0000
0000
ENDCHAR

STARTCHAR chs_B1B4
ENCODING 45492
SWIDTH 854 0
DWIDTH 16 0
BBX 16 18 0 -2
BITMAP
0010
1FF8
1010
1110
1110
1110
1110
1110
1110
1110
1110
1210
0240
0420
0818
3008
0000
0000
ENDCHAR

STARTCHAR chs_B1B5
ENCODING 45493
SWIDTH 854 0
DWIDTH 16 0
BBX 16 18 0 -2
BITMAP
1000
1004
11FE
1D04
2124
4124
BD24
1124
1124
FD24
1124
1144
1450
1888
1106
0202
0000
0000
ENDCHAR

STARTCHAR chs_B1B6
ENCODING 45494
SWIDTH 854 0
DWIDTH 16 0
BBX 16 18 0 -2
BITMAP
0880
0840
0FFC
1000
1218
3110
5120
9FFE
1000
1008
13FC
1208
1208
1208
13F8
1208
0000
0000
ENDCHAR

STARTCHAR chs_B1B7
ENCODING 45495
SWIDTH 854 0
DWIDTH 16 0
BBX 16 18 0 -2
BITMAP
0400
4404
29FE
1104
2924
4924
8924
0924
1924
2924
4924
8944
0850
0888
5106
2202
0000
0000
ENDCHAR

STARTCHAR chs_B1B8
ENCODING 45496
SWIDTH 854 0
DWIDTH 16 0
BBX 16 18 0 -2
BITMAP
0420
07F0
0820
1440
2380
0280
0C60
3018
DFF6
1110
1110
1FF0
1110
1110
1FF0
1010
0000
0000
ENDCHAR

STARTCHAR chs_B1B9
ENCODING 45497
SWIDTH 854 0
DWIDTH 16 0
BBX 16 18 0 -2
BITMAP
0820
0FF0
1420
1240
2380
0C60
301E
DFF4
1110
1FF0
1110
1FF0
0200
2988
2894
47F4
0000
0000
ENDCHAR

STARTCHAR chs_B1BA
ENCODING 45498
SWIDTH 854 0
DWIDTH 16 0
BBX 16 18 0 -2
BITMAP
1080
1040
17FC
1000
5510
5910
50A0
9FFE
1000
1008
13FC
2A08
2608
4208
83F8
0208
0000
0000
ENDCHAR

STARTCHAR chs_B1BB
ENCODING 45499
SWIDTH 854 0
DWIDTH 16 0
BBX 16 18 0 -2
BITMAP
2020
1020
1020
01FE
FD22
0924
1120
3520
59FC
9504
1188
1250
1220
1450
188E
1304
0000
0000
ENDCHAR

STARTCHAR chs_B1BC
ENCODING 45500
SWIDTH 854 0
DWIDTH 16 0
BBX 16 18 0 -2
BITMAP
0100
0108
7FFC
0280
0540
0930
37CE
C104
0920
0820
7FFC
0820
0820
0820
1020
2020
0000
0000
ENDCHAR

STARTCHAR chs_B1BD
ENCODING 45501
SWIDTH 854 0
DWIDTH 16 0
BBX 16 18 0 -2
BITMAP
0440
0444
FFFE
0440
0100
0104
FFFE
0380
0540
0920
1110
2FEE
C104
0100
0100
0100
0000
0000
ENDCHAR

STARTCHAR chs_B1BE
ENCODING 45502
SWIDTH 854 0
DWIDTH 16 0
BBX 16 18 0 -2
BITMAP
0100
0100
0100
0108
7FFC
0540
0540
0540
0920
0920
1110
2FEE
C104
0100
0100
0100
0000
0000
ENDCHAR

STARTCHAR chs_B1BF
ENCODING 45503
SWIDTH 854 0
DWIDTH 16 0
BBX 16 18 0 -2
BITMAP
1040
1244
3F7E
50A0
8910
0100
7FFC
0380
0540
0920
1110
2FEE
C104
0100
0100
0100
0000
0000
ENDCHAR

STARTCHAR chs_B1C0
ENCODING 45504
SWIDTH 854 0
DWIDTH 16 0
BBX 16 18 0 -2
BITMAP
0100
2108
2108
3FF8
0000
3EF8
2288
2288
3EF8
2288
2288
3EF8
2288
2288
4AA8
8510
0000
0000
ENDCHAR

STARTCHAR chs_B1C1
ENCODING 45505
SWIDTH 854 0
DWIDTH 16 0
BBX 16 18 0 -2
BITMAP
1004
17BE
24A4
24A4
44A4
FFBC
14A4
24A4
44A4
FFBC
44A4
04A4
1CA4
E4A4
49C4
108C
0000
0000
ENDCHAR

STARTCHAR chs_B1C2
ENCODING 45506
SWIDTH 854 0
DWIDTH 16 0
BBX 16 18 0 -2
BITMAP
0004
FFFE
0100
0760
1918
E104
3FF8
2108
2108
3FF8
2108
2108
3FF8
2108
4128
8110
0000
0000
ENDCHAR

STARTCHAR chs_B1C3
ENCODING 45507
SWIDTH 854 0
DWIDTH 16 0
BBX 16 18 0 -2
BITMAP
0004
FFFE
0400
0810
1FF8
2810
C810
0FF0
0908
0118
7DA0
0540
0920
111E
6104
0300
0000
0000
ENDCHAR

STARTCHAR chs_B1C4
ENCODING 45508
SWIDTH 854 0
DWIDTH 16 0
BBX 16 18 0 -2
BITMAP
0040
7A44
4A44
4BFC
4800
7BBC
12A4
12A4
13BC
5AA4
52A4
53BC
5AA4
E4A4
45A4
08CC
0000
0000
ENDCHAR

STARTCHAR chs_B1C5
ENCODING 45509
SWIDTH 854 0
DWIDTH 16 0
BBX 16 18 0 -2
BITMAP
0410
4220
2140
2FF8
0220
0220
E220
2FFC
2220
2220
2220
2220
2420
5820
8FFE
0000
0000
0000
ENDCHAR

STARTCHAR chs_B1C6
ENCODING 45510
SWIDTH 854 0
DWIDTH 16 0
BBX 16 18 0 -2
BITMAP
0010
4FF8
2000
27F0
0410
0410
E7F0
2000
2FF8
2888
2FF8
2888
2FF8
2000
5000
8FFE
0000
0000
ENDCHAR

STARTCHAR chs_B1C7
ENCODING 45511
SWIDTH 854 0
DWIDTH 16 0
BBX 16 18 0 -2
BITMAP
0100
1FF0
1090
1450
1210
1FF0
0000
3FF8
2108
3FF8
2108
3FF8
0000
FFFE
0440
1840
0000
0000
ENDCHAR

STARTCHAR chs_B1C8
ENCODING 45512
SWIDTH 854 0
DWIDTH 16 0
BBX 16 18 0 -2
BITMAP
0080
2080
2080
2080
2088
2498
3EA0
20C0
2080
2080
2080
2082
2682
3882
607E
0000
0000
0000
ENDCHAR

STARTCHAR chs_B1C9
ENCODING 45513
SWIDTH 854 0
DWIDTH 16 0
BBX 16 18 0 -2
BITMAP
0200
3F7C
2244
2244
3E48
0848
FFD0
0848
7F44
4142
5D42
5562
5D54
4148
7F40
4140
0000
0000
ENDCHAR

STARTCHAR chs_B1CA
ENCODING 45514
SWIDTH 854 0
DWIDTH 16 0
BBX 16 18 0 -2
BITMAP
0820
0820
1F7C
28A0
4510
00FC
7F00
0100
01F8
3F00
0100
01FC
FF00
0102
0102
00FE
0000
0000
ENDCHAR

STARTCHAR chs_B1CB
ENCODING 45515
SWIDTH 854 0
DWIDTH 16 0
BBX 16 18 0 -2
BITMAP
0840
0840
1048
13FC
2248
4A50
8A40
13F8
3308
5310
9290
12A0
1440
14A0
191C
1608
0000
0000
ENDCHAR

STARTCHAR chs_B1CC
ENCODING 45516
SWIDTH 854 0
DWIDTH 16 0
BBX 16 18 0 -2
BITMAP
0040
FE88
11FC
7D08
11F8
1F08
F1F8
0000
7FFC
0400
0810
1FF8
2810
C810
0FF0
0810
0000
0000
ENDCHAR

STARTCHAR chs_B1CD
ENCODING 45517
SWIDTH 854 0
DWIDTH 16 0
BBX 16 18 0 -2
BITMAP
0820
FFFE
0920
0200
3FF8
2448
2388
2448
3FF8
0000
2088
3E98
20A0
26C4
7884
207C
0000
0000
ENDCHAR

STARTCHAR chs_B1CE
ENCODING 45518
SWIDTH 854 0
DWIDTH 16 0
BBX 16 18 0 -2
BITMAP
0440
0444
FFFE
0440
4920
2A20
0C3E
7F44
49A4
4924
5D24
6B28
4910
4928
4146
4384
0000
0000
ENDCHAR

STARTCHAR chs_B1CF
ENCODING 45519
SWIDTH 854 0
DWIDTH 16 0
BBX 16 18 0 -2
BITMAP
2080
2080
2098
3EE0
2080
2284
2C84
707C
2100
0104
FFFE
0100
0100
0100
0100
0100
0000
0000
ENDCHAR

STARTCHAR chs_B1D0
ENCODING 45520
SWIDTH 854 0
DWIDTH 16 0
BBX 16 18 0 -2
BITMAP
4080
408C
7EF0
4080
4E84
707C
0000
FFFE
1080
1088
3E98
62A0
94C0
0884
1084
607C
0000
0000
ENDCHAR

STARTCHAR chs_B1D1
ENCODING 45521
SWIDTH 854 0
DWIDTH 16 0
BBX 16 18 0 -2
BITMAP
0080
2088
2498
3EA0
20C0
2084
2E84
307C
0400
1240
5088
5106
9612
1810
67F0
0000
0000
0000
ENDCHAR

STARTCHAR chs_B1D2
ENCODING 45522
SWIDTH 854 0
DWIDTH 16 0
BBX 16 18 0 -2
BITMAP
0038
03C0
7D00
0100
0108
3FFC
2108
2108
2108
2108
2108
2128
2110
0100
0100
0100
0000
0000
ENDCHAR

STARTCHAR chs_B1D3
ENCODING 45523
SWIDTH 854 0
DWIDTH 16 0
BBX 16 18 0 -2
BITMAP
0100
0084
3FFE
2000
2440
2440
2444
244C
2750
2460
2440
2440
2542
4E42
843E
0000
0000
0000
ENDCHAR

STARTCHAR chs_B1D4
ENCODING 45524
SWIDTH 854 0
DWIDTH 16 0
BBX 16 18 0 -2
BITMAP
0100
0084
3FFE
2000
AFF8
6888
2FF8
2888
2FF8
6000
BFFE
2410
2410
4410
8810
1010
0000
0000
ENDCHAR

STARTCHAR chs_B1D5
ENCODING 45525
SWIDTH 854 0
DWIDTH 16 0
BBX 16 18 0 -2
BITMAP
2004
1BFE
0804
4084
4084
5FF4
4084
4184
4284
4484
4884
5084
4084
4284
4114
4008
0000
0000
ENDCHAR

STARTCHAR chs_B1D6
ENCODING 45526
SWIDTH 854 0
DWIDTH 16 0
BBX 16 18 0 -2
BITMAP
0820
4920
2B20
2C20
087E
7F84
4944
4944
5D44
5B28
6928
4910
4928
4B48
4086
4104
0000
0000
ENDCHAR

STARTCHAR chs_B1D7
ENCODING 45527
SWIDTH 854 0
DWIDTH 16 0
BBX 16 18 0 -2
BITMAP
0820
4920
2A20
083E
7F44
49C4
5D28
6B10
4928
4346
0820
FFFE
0820
0820
1020
2020
0000
0000
ENDCHAR

STARTCHAR chs_B1D8
ENCODING 45528
SWIDTH 854 0
DWIDTH 16 0
BBX 16 18 0 -2
BITMAP
0200
0100
0120
0130
0820
0840
4848
4846
4882
8900
0A00
0C10
1810
2810
47F0
0000
0000
0000
ENDCHAR

STARTCHAR chs_B1D9
ENCODING 45529
SWIDTH 854 0
DWIDTH 16 0
BBX 16 18 0 -2
BITMAP
0040
0020
3E20
23FC
2200
2288
3E50
23FE
2020
3E20
5220
53FC
9220
1220
1E20
0020
0000
0000
ENDCHAR

STARTCHAR chs_B1DA
ENCODING 45530
SWIDTH 854 0
DWIDTH 16 0
BBX 16 18 0 -2
BITMAP
0020
3E10
22FE
2244
3E28
21FE
3E10
627C
A210
3E90
0080
1FF8
0080
0084
7FFE
0000
0000
0000
ENDCHAR

STARTCHAR chs_B1DB
ENCODING 45531
SWIDTH 854 0
DWIDTH 16 0
BBX 16 18 0 -2
BITMAP
0020
3FFC
2288
3E50
21FE
3E20
52F8
9E20
0020
0FF0
0810
0FF0
0810
0FF0
0810
0830
0000
0000
ENDCHAR

STARTCHAR chs_B1DC
ENCODING 45532
SWIDTH 854 0
DWIDTH 16 0
BBX 16 18 0 -2
BITMAP
0020
4F10
2914
29FE
0900
0F44
E828
28FE
2F10
3910
297C
2910
2F10
5010
8FFE
0000
0000
0000
ENDCHAR

STARTCHAR chs_B1DD
ENCODING 45533
SWIDTH 854 0
DWIDTH 16 0
BBX 16 18 0 -2
BITMAP
0220
7A20
4A24
53AC
5230
6222
52A2
4B1E
4A40
4840
6840
53F8
4040
4044
4FFE
4000
0000
0000
ENDCHAR

STARTCHAR chs_B1DE
ENCODING 45534
SWIDTH 854 0
DWIDTH 16 0
BBX 16 18 0 -2
BITMAP
2880
28FE
FE90
297C
3B54
1554
7D7C
5554
5554
7D7C
1110
FF50
1120
1130
114E
1184
0000
0000
ENDCHAR

STARTCHAR chs_B1DF
ENCODING 45535
SWIDTH 854 0
DWIDTH 16 0
BBX 16 18 0 -2
BITMAP
0080
2080
1080
1088
07FC
0088
F088
1088
1108
1108
1208
1250
1420
2800
47FE
0000
0000
0000
ENDCHAR

STARTCHAR chs_B1E0
ENCODING 45536
SWIDTH 854 0
DWIDTH 16 0
BBX 16 18 0 -2
BITMAP
1080
1048
23FC
2208
4A08
FBF8
1200
2200
43FC
F694
4A94
03FC
1A94
E294
4294
020C
0000
0000
ENDCHAR

STARTCHAR chs_B1E1
ENCODING 45537
SWIDTH 854 0
DWIDTH 16 0
BBX 16 18 0 -2
BITMAP
0008
7C1C
45E0
5400
5440
5420
55FC
5404
5408
5410
5420
1040
2880
4740
823E
0000
0000
0000
ENDCHAR

STARTCHAR chs_B1E2
ENCODING 45538
SWIDTH 854 0
DWIDTH 16 0
BBX 16 18 0 -2
BITMAP
0100
0088
1FFC
1008
1008
1FF8
1000
1004
1FFE
1924
2924
2FFC
4924
8924
0924
080C
0000
0000
ENDCHAR

STARTCHAR chs_B1E3
ENCODING 45539
SWIDTH 854 0
DWIDTH 16 0
BBX 16 18 0 -2
BITMAP
1004
17FE
1040
1040
27FC
2444
67FC
A444
27FC
2444
2240
2140
2080
2160
221E
2C04
0000
0000
ENDCHAR

STARTCHAR chs_B1E4
ENCODING 45540
SWIDTH 854 0
DWIDTH 16 0
BBX 16 18 0 -2
BITMAP
0200
0108
7FFC
0440
1450
1448
2444
4444
1FF0
0820
0440
0280
0100
02C0
0C3C
3008
0000
0000
ENDCHAR

STARTCHAR chs_B1E5
ENCODING 45541
SWIDTH 854 0
DWIDTH 16 0
BBX 16 18 0 -2
BITMAP
0200
0100
0100
0004
FFFE
0100
0100
0140
0120
0110
0110
0100
0100
0100
0100
0100
0000
0000
ENDCHAR

STARTCHAR chs_B1E6
ENCODING 45542
SWIDTH 854 0
DWIDTH 16 0
BBX 16 18 0 -2
BITMAP
2010
1088
1088
7CBE
0884
2A94
2A94
FEBE
1288
1088
FCBE
1108
1108
1208
2408
4008
0000
0000
ENDCHAR

STARTCHAR chs_B1E7
ENCODING 45543
SWIDTH 854 0
DWIDTH 16 0
BBX 16 18 0 -2
BITMAP
2020
1210
1110
7D7C
0808
2F28
2928
FD7E
1110
1110
FD7C
1110
1150
1190
2110
4010
0000
0000
ENDCHAR

STARTCHAR chs_B1E8
ENCODING 45544
SWIDTH 854 0
DWIDTH 16 0
BBX 16 18 0 -2
BITMAP
2010
1088
1088
7D3E
0904
2BD4
2854
FCBE
1108
13C8
FC3E
1008
10C8
1308
2008
4008
0000
0000
ENDCHAR

STARTCHAR chs_B1E9
ENCODING 45545
SWIDTH 854 0
DWIDTH 16 0
BBX 16 18 0 -2
BITMAP
0080
4048
27FC
2408
0408
07F8
E400
27F8
26A8
26A8
2BF8
2AA8
32A8
5000
8FFE
0000
0000
0000
ENDCHAR

STARTCHAR chs_B1EA
ENCODING 45546
SWIDTH 854 0
DWIDTH 16 0
BBX 16 18 0 -2
BITMAP
1000
1010
13F8
1000
FC00
1004
37FE
3840
5440
5150
9148
1244
1444
1040
1140
1080
0000
0000
ENDCHAR

STARTCHAR chs_B1EB
ENCODING 45547
SWIDTH 854 0
DWIDTH 16 0
BBX 16 18 0 -2
BITMAP
0400
0784
040C
3FD0
24A0
2704
3C0C
2790
2020
2F44
290C
2910
2922
4942
90FE
2000
0000
0000
ENDCHAR

STARTCHAR chs_B1EC
ENCODING 45548
SWIDTH 854 0
DWIDTH 16 0
BBX 16 18 0 -2
BITMAP
0004
7BFE
4850
4850
49FC
7954
4954
49FC
4800
79FC
4800
4BFE
48A8
4924
4A22
9860
0000
0000
ENDCHAR

STARTCHAR chs_B1ED
ENCODING 45549
SWIDTH 854 0
DWIDTH 16 0
BBX 16 18 0 -2
BITMAP
0100
0108
7FFC
0100
0110
3FF8
0100
0104
FFFE
0310
04A0
0C40
3430
C48E
0504
0600
0000
0000
ENDCHAR

STARTCHAR chs_B1EE
ENCODING 45550
SWIDTH 854 0
DWIDTH 16 0
BBX 16 18 0 -2
BITMAP
0820
2A20
1C3E
7F44
49A8
5D10
6B2E
47C4
0880
3FF0
5110
1FF0
1110
1FF0
0000
FFFE
0000
0000
ENDCHAR

STARTCHAR chs_B1EF
ENCODING 45551
SWIDTH 854 0
DWIDTH 16 0
BBX 16 18 0 -2
BITMAP
4920
2A20
0820
7F3E
4948
5DA8
6B10
4928
4346
0800
2A10
2988
28A4
4824
07E0
0000
0000
0000
ENDCHAR

STARTCHAR chs_B1F0
ENCODING 45552
SWIDTH 854 0
DWIDTH 16 0
BBX 16 18 0 -2
BITMAP
0104
3F84
2104
2124
2124
3F24
2824
0924
FFA4
0924
0924
1124
1104
2504
4214
0008
0000
0000
ENDCHAR

STARTCHAR chs_B1F1
ENCODING 45553
SWIDTH 854 0
DWIDTH 16 0
BBX 16 18 0 -2
BITMAP
0080
3FFE
2100
A7F8
6408
27F8
2408
27F8
6408
A7F8
2120
2210
266E
3B84
4208
81F8
0000
0000
ENDCHAR

STARTCHAR chs_B1F2
ENCODING 45554
SWIDTH 854 0
DWIDTH 16 0
BBX 16 18 0 -2
BITMAP
1080
1082
1082
1084
FFE8
1090
3182
39C2
52A4
5288
9492
1082
1084
1088
1090
10A0
0000
0000
ENDCHAR

STARTCHAR chs_B1F3
ENCODING 45555
SWIDTH 854 0
DWIDTH 16 0
BBX 16 18 0 -2
BITMAP
0010
2010
11F4
0012
FC10
0BFE
4810
2850
2950
1170
2950
2548
4548
816A
0386
0002
0000
0000
ENDCHAR

STARTCHAR chs_B1F4
ENCODING 45556
SWIDTH 854 0
DWIDTH 16 0
BBX 16 18 0 -2
BITMAP
0200
42FE
2A10
2BA0
0A7C
8A44
5FD4
0254
2A54
2AD4
C354
4254
4410
4828
5046
0182
0000
0000
ENDCHAR

STARTCHAR chs_B1F5
ENCODING 45557
SWIDTH 854 0
DWIDTH 16 0
BBX 16 18 0 -2
BITMAP
0080
4444
27FE
2804
0068
8380
5200
1200
13F8
2220
E224
2FFE
2000
2320
2218
2408
0000
0000
ENDCHAR

STARTCHAR chs_B1F6
ENCODING 45558
SWIDTH 854 0
DWIDTH 16 0
BBX 16 18 0 -2
BITMAP
0200
0100
3FFE
2002
40E4
0F00
0800
0810
0FF8
0840
0844
FFFE
0000
0C40
0830
1010
0000
0000
ENDCHAR

STARTCHAR chs_B1F7
ENCODING 45559
SWIDTH 854 0
DWIDTH 16 0
BBX 16 18 0 -2
BITMAP
1040
1020
17FE
1402
FC34
11C0
1500
1900
31FC
D110
1110
1FFE
1000
1190
510C
2204
0000
0000
ENDCHAR

STARTCHAR chs_B1F8
ENCODING 45560
SWIDTH 854 0
DWIDTH 16 0
BBX 16 18 0 -2
BITMAP
0020
00F0
0F00
0800
0800
0808
0FFC
0840
0840
0844
FFFE
0000
0440
0C30
1018
2008
0000
0000
ENDCHAR

STARTCHAR chs_B1F9
ENCODING 45561
SWIDTH 854 0
DWIDTH 16 0
BBX 16 18 0 -2
BITMAP
0080
4080
3080
1084
008C
0F90
11E0
12C0
22A0
E490
2488
288E
3084
2080
2280
2100
0000
0000
ENDCHAR

STARTCHAR chs_B1FA
ENCODING 45562
SWIDTH 854 0
DWIDTH 16 0
BBX 16 18 0 -2
BITMAP
1000
1004
17FE
1040
FC40
1044
33FE
3A44
5644
5264
929C
130C
1204
1204
1214
1208
0000
0000
ENDCHAR

STARTCHAR chs_B1FB
ENCODING 45563
SWIDTH 854 0
DWIDTH 16 0
BBX 16 18 0 -2
BITMAP
0000
0004
FFFE
0100
0100
0108
3FFC
2108
2108
2188
2248
2428
2828
2008
2028
2010
0000
0000
ENDCHAR

STARTCHAR chs_B1FC
ENCODING 45564
SWIDTH 854 0
DWIDTH 16 0
BBX 16 18 0 -2
BITMAP
0078
3F80
0108
7FFC
0100
3FF0
0110
FFFE
0110
3FF0
0380
0540
0930
110E
6104
0100
0000
0000
ENDCHAR

STARTCHAR chs_B1FD
ENCODING 45565
SWIDTH 854 0
DWIDTH 16 0
BBX 16 18 0 -2
BITMAP
2000
2108
2090
3C00
47FC
4890
A090
2090
27FE
2090
2090
2490
2910
3110
2210
0410
0000
0000
ENDCHAR

STARTCHAR chs_B1FE
ENCODING 45566
SWIDTH 854 0
DWIDTH 16 0
BBX 16 18 0 -2
BITMAP
0000
2004
2FFE
2040
2840
B044
A7FE
A444
2444
2464
2494
2514
5404
4C04
8414
0408
0000
0000
ENDCHAR

STARTCHAR chs_B2A1
ENCODING 45729
SWIDTH 854 0
DWIDTH 16 0
BBX 16 18 0 -2
BITMAP
0080
0044
1FFE
1000
9008
57FC
5040
1040
37FC
5444
9444
14A4
2514
2404
4414
0408
0000
0000
ENDCHAR

STARTCHAR chs_B2A2
ENCODING 45730
SWIDTH 854 0
DWIDTH 16 0
BBX 16 18 0 -2
BITMAP
1010
0C30
0440
3FFC
0420
0420
0420
0424
FFFE
0420
0420
0420
0820
0820
1020
2020
0000
0000
ENDCHAR

STARTCHAR chs_B2A3
ENCODING 45731
SWIDTH 854 0
DWIDTH 16 0
BBX 16 18 0 -2
BITMAP
0020
0020
FC20
11FE
1122
1124
7D20
11FC
1104
1188
1E48
F250
4220
0450
088E
0304
0000
0000
ENDCHAR

STARTCHAR chs_B2A4
ENCODING 45732
SWIDTH 854 0
DWIDTH 16 0
BBX 16 18 0 -2
BITMAP
0440
0444
FFFE
0440
2048
13FC
9248
4250
0A40
13F8
E308
2490
2490
2460
2998
3606
0000
0000
ENDCHAR

STARTCHAR chs_B2A5
ENCODING 45733
SWIDTH 854 0
DWIDTH 16 0
BBX 16 18 0 -2
BITMAP
2038
23C0
2044
2248
F950
27FE
2150
2A48
3446
E3F8
2248
2248
23F8
2248
A248
43F8
0000
0000
ENDCHAR

STARTCHAR chs_B2A6
ENCODING 45734
SWIDTH 854 0
DWIDTH 16 0
BBX 16 18 0 -2
BITMAP
1040
1050
1248
1248
FE40
13FE
1080
1C88
11FC
3108
D288
1250
1420
18D0
530E
2C04
0000
0000
ENDCHAR

STARTCHAR chs_B2A7
ENCODING 45735
SWIDTH 854 0
DWIDTH 16 0
BBX 16 18 0 -2
BITMAP
2040
2040
2040
3844
47FE
8040
78E0
2150
2148
FA4E
2444
21F0
2840
3040
2040
0040
0000
0000
ENDCHAR

STARTCHAR chs_B2A8
ENCODING 45736
SWIDTH 854 0
DWIDTH 16 0
BBX 16 18 0 -2
BITMAP
0040
4040
3044
17FE
0444
8448
6440
2FF8
1508
1510
6490
24A0
2840
28B0
310E
2604
0000
0000
ENDCHAR

STARTCHAR chs_B2A9
ENCODING 45737
SWIDTH 854 0
DWIDTH 16 0
BBX 16 18 0 -2
BITMAP
2050
2048
2FFE
2040
27FC
FC44
27FC
2444
27FC
2444
2010
2FFE
2210
2110
2150
2020
0000
0000
ENDCHAR

STARTCHAR chs_B2AA
ENCODING 45738
SWIDTH 854 0
DWIDTH 16 0
BBX 16 18 0 -2
BITMAP
0820
0820
7F20
0820
0824
7F7E
4124
8024
3E24
0444
0844
7E44
0884
0884
2928
1210
0000
0000
ENDCHAR

STARTCHAR chs_B2AB
ENCODING 45739
SWIDTH 854 0
DWIDTH 16 0
BBX 16 18 0 -2
BITMAP
1050
1048
17FC
1040
FBF8
1248
13F8
1A48
33F8
D248
1010
1FFE
1210
1110
5150
2020
0000
0000
ENDCHAR

STARTCHAR chs_B2AC
ENCODING 45740
SWIDTH 854 0
DWIDTH 16 0
BBX 16 18 0 -2
BITMAP
1040
1040
1084
1DFE
2104
2104
7D04
9104
11FC
7D04
1104
1104
1504
19FC
1104
0000
0000
0000
ENDCHAR

STARTCHAR chs_B2AD
ENCODING 45741
SWIDTH 854 0
DWIDTH 16 0
BBX 16 18 0 -2
BITMAP
1040
1244
1F7E
28A0
4510
2040
1088
83FC
4208
0A08
13F8
E208
2208
2208
23F8
2208
0000
0000
ENDCHAR

STARTCHAR chs_B2AE
ENCODING 45742
SWIDTH 854 0
DWIDTH 16 0
BBX 16 18 0 -2
BITMAP
0840
0840
0884
11FE
1104
3104
5104
9104
11FC
1104
1104
1104
1104
11FC
1104
1000
0000
0000
ENDCHAR

STARTCHAR chs_B2AF
ENCODING 45743
SWIDTH 854 0
DWIDTH 16 0
BBX 16 18 0 -2
BITMAP
0200
0410
1FF8
1010
1FF0
1010
1FF0
0100
0108
3FFC
2108
2108
2108
2128
2110
0100
0000
0000
ENDCHAR

STARTCHAR chs_B2B0
ENCODING 45744
SWIDTH 854 0
DWIDTH 16 0
BBX 16 18 0 -2
BITMAP
0820
0820
1044
3EFE
2284
3284
2A84
2284
FEFC
2284
3284
2A84
2284
22FC
4A84
8400
0000
0000
ENDCHAR

STARTCHAR chs_B2B1
ENCODING 45745
SWIDTH 854 0
DWIDTH 16 0
BBX 16 18 0 -2
BITMAP
0040
7848
4BFC
4840
4840
7BFE
4A04
4C00
49F0
7820
4844
4FFE
4840
4840
4940
9880
0000
0000
ENDCHAR

STARTCHAR chs_B2B2
ENCODING 45746
SWIDTH 854 0
DWIDTH 16 0
BBX 16 18 0 -2
BITMAP
0050
7848
4FFC
4840
4BF8
7A48
4BF8
4A48
4BF8
7A48
4810
4FFE
4A10
4910
4950
9820
0000
0000
ENDCHAR

STARTCHAR chs_B2B3
ENCODING 45747
SWIDTH 854 0
DWIDTH 16 0
BBX 16 18 0 -2
BITMAP
0210
4210
2F90
1210
823C
5FD4
5054
0814
1794
2114
E224
23A4
2E24
2244
2A94
2508
0000
0000
ENDCHAR

STARTCHAR chs_B2B4
ENCODING 45748
SWIDTH 854 0
DWIDTH 16 0
BBX 16 18 0 -2
BITMAP
0040
4040
3088
13FC
8208
6208
2A08
0A08
13F8
1208
6208
2208
2208
23F8
2208
2000
0000
0000
ENDCHAR

STARTCHAR chs_B2B5
ENCODING 45749
SWIDTH 854 0
DWIDTH 16 0
BBX 16 18 0 -2
BITMAP
0000
7D08
0488
2450
2420
2450
2488
2508
3E04
0288
0250
0E20
F250
428E
0B04
0400
0000
0000
ENDCHAR

STARTCHAR chs_B2B6
ENCODING 45750
SWIDTH 854 0
DWIDTH 16 0
BBX 16 18 0 -2
BITMAP
2040
2050
2048
2FFE
F840
27FC
2444
2C44
37FC
E444
2444
27FC
2444
2444
A454
4408
0000
0000
ENDCHAR

STARTCHAR chs_B2B7
ENCODING 45751
SWIDTH 854 0
DWIDTH 16 0
BBX 16 18 0 -2
BITMAP
0200
0200
0200
0200
0200
0280
0260
0230
0210
0200
0200
0200
0200
0200
0200
0200
0000
0000
ENDCHAR

STARTCHAR chs_B2B8
ENCODING 45752
SWIDTH 854 0
DWIDTH 16 0
BBX 16 18 0 -2
BITMAP
0040
0050
7048
57FE
5040
57FC
5444
5444
57FC
5444
5444
77FC
5444
0444
0454
0408
0000
0000
ENDCHAR

STARTCHAR chs_B2B9
ENCODING 45753
SWIDTH 854 0
DWIDTH 16 0
BBX 16 18 0 -2
BITMAP
1040
0840
0840
0240
FF40
0440
0860
0A50
1C4C
2A44
4A40
8840
0840
0840
0840
0840
0000
0000
ENDCHAR

STARTCHAR chs_B2BA
ENCODING 45754
SWIDTH 854 0
DWIDTH 16 0
BBX 16 18 0 -2
BITMAP
2080
2108
23FC
2208
FBF8
2200
23F8
2208
23F8
2240
3844
E7FE
4040
0040
0040
0040
0000
0000
ENDCHAR

STARTCHAR chs_B2BB
ENCODING 45755
SWIDTH 854 0
DWIDTH 16 0
BBX 16 18 0 -2
BITMAP
0004
FFFE
0080
0080
0100
0100
0340
0520
0918
110C
2104
4100
0100
0100
0100
0100
0000
0000
ENDCHAR

STARTCHAR chs_B2BC
ENCODING 45756
SWIDTH 854 0
DWIDTH 16 0
BBX 16 18 0 -2
BITMAP
0200
0200
0208
FFFC
0400
0900
1108
3FFC
5108
9108
1108
1108
1128
1110
0100
0100
0000
0000
ENDCHAR

STARTCHAR chs_B2BD
ENCODING 45757
SWIDTH 854 0
DWIDTH 16 0
BBX 16 18 0 -2
BITMAP
0100
0900
0910
09F8
0900
0904
FFFE
0100
0910
0D18
1120
2120
00C0
0300
0C00
7000
0000
0000
ENDCHAR

STARTCHAR chs_B2BE
ENCODING 45758
SWIDTH 854 0
DWIDTH 16 0
BBX 16 18 0 -2
BITMAP
1040
3EFC
4920
8048
27FC
1040
13F8
8248
43F8
0A48
13F8
E248
2FFE
2110
2090
2030
0000
0000
ENDCHAR

STARTCHAR chs_B2BF
ENCODING 45759
SWIDTH 854 0
DWIDTH 16 0
BBX 16 18 0 -2
BITMAP
1000
087C
0244
7F44
0048
2248
1450
FFC8
0044
3E42
2242
2262
2254
3E48
2240
0040
0000
0000
ENDCHAR

STARTCHAR chs_B2C0
ENCODING 45760
SWIDTH 854 0
DWIDTH 16 0
BBX 16 18 0 -2
BITMAP
1040
1040
1044
13FE
5880
5520
5124
93FE
1524
1924
1124
1124
112C
1020
1020
1020
0000
0000
ENDCHAR

STARTCHAR chs_B2C1
ENCODING 45761
SWIDTH 854 0
DWIDTH 16 0
BBX 16 18 0 -2
BITMAP
2080
2040
2FFE
2A02
FBBC
26A4
2528
2B18
3208
E5F6
2800
27FC
2248
2244
A444
4180
0000
0000
ENDCHAR

STARTCHAR chs_B2C2
ENCODING 45762
SWIDTH 854 0
DWIDTH 16 0
BBX 16 18 0 -2
BITMAP
0040
4848
2FFC
1040
2BF8
4840
0FFE
1800
2BF8
4A08
8BF8
0A08
0BF8
0A08
5208
2218
0000
0000
ENDCHAR

STARTCHAR chs_B2C3
ENCODING 45763
SWIDTH 854 0
DWIDTH 16 0
BBX 16 18 0 -2
BITMAP
0440
0450
3F48
0440
FFFE
1040
0844
7F44
0848
1148
3A50
5420
9360
1992
110A
0206
0000
0000
ENDCHAR

STARTCHAR chs_B2C4
ENCODING 45764
SWIDTH 854 0
DWIDTH 16 0
BBX 16 18 0 -2
BITMAP
0810
0810
0810
0810
FEFE
0810
1810
1C50
2A50
2890
4890
8910
0A10
0810
0850
0820
0000
0000
ENDCHAR

STARTCHAR chs_B2C5
ENCODING 45765
SWIDTH 854 0
DWIDTH 16 0
BBX 16 18 0 -2
BITMAP
0080
0080
0080
0084
FFFE
0080
0180
0180
0280
0480
0880
1080
6080
0080
0280
0100
0000
0000
ENDCHAR

STARTCHAR chs_B2C6
ENCODING 45766
SWIDTH 854 0
DWIDTH 16 0
BBX 16 18 0 -2
BITMAP
0410
7E10
4410
5410
57FE
5410
5430
5430
5450
5490
5510
2810
2410
4410
8050
0020
0000
0000
ENDCHAR

STARTCHAR chs_B2C7
ENCODING 45767
SWIDTH 854 0
DWIDTH 16 0
BBX 16 18 0 -2
BITMAP
001C
7BE0
4888
4A48
4950
7800
4844
4FFE
4840
78C0
48E0
4950
4A4E
7C44
4840
0040
0000
0000
ENDCHAR

STARTCHAR chs_B2C8
ENCODING 45768
SWIDTH 854 0
DWIDTH 16 0
BBX 16 18 0 -2
BITMAP
001C
7DE0
4444
4524
44A8
7C00
1020
13FE
5C20
5060
5070
50A8
5D26
E224
4020
0020
0000
0000
ENDCHAR

STARTCHAR chs_B2C9
ENCODING 45769
SWIDTH 854 0
DWIDTH 16 0
BBX 16 18 0 -2
BITMAP
0008
007C
7F80
0008
1118
08A0
0100
0104
FFFE
0380
0540
0930
110E
6104
0100
0100
0000
0000
ENDCHAR

STARTCHAR chs_B2CA
ENCODING 45770
SWIDTH 854 0
DWIDTH 16 0
BBX 16 18 0 -2
BITMAP
0100
0E08
F118
4920
2A40
2084
080C
FF10
0820
1C40
1B04
290C
4810
8820
08C0
0B00
0000
0000
ENDCHAR

STARTCHAR chs_B2CB
ENCODING 45771
SWIDTH 854 0
DWIDTH 16 0
BBX 16 18 0 -2
BITMAP
0440
0444
FFFE
0440
0038
3FC0
1210
0920
0104
FFFE
0380
0540
0930
110E
6104
0100
0000
0000
ENDCHAR

STARTCHAR chs_B2CC
ENCODING 45772
SWIDTH 854 0
DWIDTH 16 0
BBX 16 18 0 -2
BITMAP
0440
0444
FFFE
1440
16F8
1290
2C60
6820
17D0
200E
4FE4
8100
0920
1918
2108
0300
0000
0000
ENDCHAR

STARTCHAR chs_B2CD
ENCODING 45773
SWIDTH 854 0
DWIDTH 16 0
BBX 16 18 0 -2
BITMAP
1000
1EFC
1088
3E50
4420
2950
128C
6544
0FF0
382E
CFE4
0820
0FE0
0A30
09C0
0C30
0000
0000
ENDCHAR

STARTCHAR chs_B2CE
ENCODING 45774
SWIDTH 854 0
DWIDTH 16 0
BBX 16 18 0 -2
BITMAP
0200
0240
0420
1FF0
0204
FFFE
0440
08A0
1310
2C4E
C184
0E10
0060
0180
0E00
7000
0000
0000
ENDCHAR

STARTCHAR chs_B2CF
ENCODING 45775
SWIDTH 854 0
DWIDTH 16 0
BBX 16 18 0 -2
BITMAP
0010
3FF8
0200
0204
FFFE
0440
0520
0910
3FFE
D114
1110
1FF0
0100
0110
3FF8
0008
0000
0000
ENDCHAR

STARTCHAR chs_B2D0
ENCODING 45776
SWIDTH 854 0
DWIDTH 16 0
BBX 16 18 0 -2
BITMAP
0040
0450
7E48
1040
107C
1FC0
2240
227C
65C0
9448
0850
0820
1060
2092
430A
8006
0000
0000
ENDCHAR

STARTCHAR chs_B2D1
ENCODING 45777
SWIDTH 854 0
DWIDTH 16 0
BBX 16 18 0 -2
BITMAP
2100
2106
2138
27E0
B220
AB20
A53E
2928
2FE8
2128
21E8
3F28
2948
2148
2188
2108
0000
0000
ENDCHAR

STARTCHAR chs_B2D2
ENCODING 45778
SWIDTH 854 0
DWIDTH 16 0
BBX 16 18 0 -2
BITMAP
2080
20A0
2110
23F8
B080
AFFE
A120
2250
2488
3926
2240
2088
2310
2020
20C0
2700
0000
0000
ENDCHAR

STARTCHAR chs_B2D3
ENCODING 45779
SWIDTH 854 0
DWIDTH 16 0
BBX 16 18 0 -2
BITMAP
1020
1020
1020
1420
5420
5924
5124
9124
1124
1124
1124
2924
2524
4524
81FC
0004
0000
0000
ENDCHAR

STARTCHAR chs_B2D4
ENCODING 45780
SWIDTH 854 0
DWIDTH 16 0
BBX 16 18 0 -2
BITMAP
0440
0444
FFFE
0440
0100
0280
0440
1830
2FEE
C824
0920
08C0
0810
0810
07F0
0000
0000
0000
ENDCHAR

STARTCHAR chs_B2D5
ENCODING 45781
SWIDTH 854 0
DWIDTH 16 0
BBX 16 18 0 -2
BITMAP
0820
1020
3C50
2450
3488
2D04
2602
FCF8
2488
3488
2CA8
2490
2480
2484
5484
887C
0000
0000
ENDCHAR

STARTCHAR chs_B2D6
ENCODING 45782
SWIDTH 854 0
DWIDTH 16 0
BBX 16 18 0 -2
BITMAP
0100
0100
0280
0280
0440
0820
301E
CFE4
0820
0820
0920
08C0
0808
0808
07F8
0000
0000
0000
ENDCHAR

STARTCHAR chs_B2D7
ENCODING 45783
SWIDTH 854 0
DWIDTH 16 0
BBX 16 18 0 -2
BITMAP
0040
4040
30A0
10A0
8110
4208
5406
13F4
1210
2210
E290
2260
2200
2204
2204
21FC
0000
0000
ENDCHAR

STARTCHAR chs_B2D8
ENCODING 45784
SWIDTH 854 0
DWIDTH 16 0
BBX 16 18 0 -2
BITMAP
0484
FFFE
04A8
04A4
5FFE
5020
57A0
7524
17A4
74A4
57A8
5528
9510
27B2
444A
8086
0000
0000
ENDCHAR

STARTCHAR chs_B2D9
ENCODING 45785
SWIDTH 854 0
DWIDTH 16 0
BBX 16 18 0 -2
BITMAP
2010
21F8
2110
21F0
F800
27BC
24A4
2FBC
3040
E044
2FFE
20E0
2150
224E
A444
4040
0000
0000
ENDCHAR

STARTCHAR chs_B2DA
ENCODING 45786
SWIDTH 854 0
DWIDTH 16 0
BBX 16 18 0 -2
BITMAP
1010
1050
5550
397C
1090
FC10
10FE
3300
397C
5544
9144
1144
117C
1280
147E
1000
0000
0000
ENDCHAR

STARTCHAR chs_B2DB
ENCODING 45787
SWIDTH 854 0
DWIDTH 16 0
BBX 16 18 0 -2
BITMAP
1090
1090
17FE
1090
FFFC
1294
33FC
3A94
57FC
5400
91F8
1108
11F8
1108
11F8
1108
0000
0000
ENDCHAR

STARTCHAR chs_B2DC
ENCODING 45788
SWIDTH 854 0
DWIDTH 16 0
BBX 16 18 0 -2
BITMAP
0440
0444
FFFE
0440
3FF8
2448
3FF8
2448
3FF8
0000
1FF0
1010
1FF0
1010
1FF0
1010
0000
0000
ENDCHAR

STARTCHAR chs_B2DD
ENCODING 45789
SWIDTH 854 0
DWIDTH 16 0
BBX 16 18 0 -2
BITMAP
0440
0448
7FFC
0440
0440
1FF0
1010
1FF0
1010
1FF0
0100
FFFE
0100
0100
0100
0100
0000
0000
ENDCHAR

STARTCHAR chs_B2DE
ENCODING 45790
SWIDTH 854 0
DWIDTH 16 0
BBX 16 18 0 -2
BITMAP
0004
3FFE
2000
2F84
28A4
2AA4
2AA4
2AA4
2AA4
2AA4
2AA4
2224
4504
4484
8894
1008
0000
0000
ENDCHAR

STARTCHAR chs_B2DF
ENCODING 45791
SWIDTH 854 0
DWIDTH 16 0
BBX 16 18 0 -2
BITMAP
1020
3E7E
50A0
0910
0100
FFFE
0100
3FF8
2108
2388
2558
0520
0910
110E
6104
0100
0000
0000
ENDCHAR

STARTCHAR chs_B2E0
ENCODING 45792
SWIDTH 854 0
DWIDTH 16 0
BBX 16 18 0 -2
BITMAP
1000
1004
17C4
2454
2554
6554
A554
2554
2554
2554
2544
2104
2284
2444
2814
2008
0000
0000
ENDCHAR

STARTCHAR chs_B2E1
ENCODING 45793
SWIDTH 854 0
DWIDTH 16 0
BBX 16 18 0 -2
BITMAP
0008
1E7C
1248
1248
1248
1248
1248
FFFE
1248
1248
1248
1248
1248
1248
26A8
4110
0000
0000
ENDCHAR

STARTCHAR chs_B2E2
ENCODING 45794
SWIDTH 854 0
DWIDTH 16 0
BBX 16 18 0 -2
BITMAP
0004
4004
37C4
1454
8554
6554
2554
0D54
1554
1554
6554
2104
2284
2444
2854
2008
0000
0000
ENDCHAR

STARTCHAR chs_B2E3
ENCODING 45795
SWIDTH 854 0
DWIDTH 16 0
BBX 16 18 0 -2
BITMAP
0004
1FFE
1004
1004
1FFC
1000
1010
17F8
1000
1004
1FFE
1100
2210
2408
4FFC
8404
0000
0000
ENDCHAR

STARTCHAR chs_B2E4
ENCODING 45796
SWIDTH 854 0
DWIDTH 16 0
BBX 16 18 0 -2
BITMAP
0088
0050
7800
4BFE
4A22
4AAA
7A72
1222
53FE
5C00
51FC
5104
5DFC
F104
41FC
0104
0000
0000
ENDCHAR

STARTCHAR chs_B2E5
ENCODING 45797
SWIDTH 854 0
DWIDTH 16 0
BBX 16 18 0 -2
BITMAP
1008
103C
17C0
1040
F844
17FE
1040
1940
365C
D444
1444
175C
1444
1444
57FC
2404
0000
0000
ENDCHAR

STARTCHAR chs_B2E6
ENCODING 45798
SWIDTH 854 0
DWIDTH 16 0
BBX 16 18 0 -2
BITMAP
0000
0008
3FFC
0008
1208
1110
0910
0420
0440
0280
0100
0280
0440
0830
300E
C004
0000
0000
ENDCHAR

STARTCHAR chs_B2E7
ENCODING 45799
SWIDTH 854 0
DWIDTH 16 0
BBX 16 18 0 -2
BITMAP
0820
0824
FFFE
0A20
0204
FFFE
0400
0840
1048
17FC
3040
5040
9040
1044
1FFE
1000
0000
0000
ENDCHAR

STARTCHAR chs_B2E8
ENCODING 45800
SWIDTH 854 0
DWIDTH 16 0
BBX 16 18 0 -2
BITMAP
0440
0444
FFFE
0440
0100
0280
0440
1930
210E
DFF4
0100
0920
1918
2108
0500
0200
0000
0000
ENDCHAR

STARTCHAR chs_B2E9
ENCODING 45801
SWIDTH 854 0
DWIDTH 16 0
BBX 16 18 0 -2
BITMAP
0100
0104
FFFE
0340
0520
1918
E106
1FF0
1010
1FF0
1010
1FF0
1010
0004
FFFE
0000
0000
0000
ENDCHAR

STARTCHAR chs_B2EA
ENCODING 45802
SWIDTH 854 0
DWIDTH 16 0
BBX 16 18 0 -2
BITMAP
0040
0040
FC44
17FE
10E0
2150
224E
7C44
ABF8
2A08
2BF8
2A08
2BF8
3800
27FE
0000
0000
0000
ENDCHAR

STARTCHAR chs_B2EB
ENCODING 45803
SWIDTH 854 0
DWIDTH 16 0
BBX 16 18 0 -2
BITMAP
1110
1110
17FC
1110
FC40
10A0
1510
1A4E
3444
D3F8
1040
1250
124C
1444
5140
2080
0000
0000
ENDCHAR

STARTCHAR chs_B2EC
ENCODING 45804
SWIDTH 854 0
DWIDTH 16 0
BBX 16 18 0 -2
BITMAP
0200
0100
7FFE
4802
8EF4
1290
2C60
6820
17D0
200E
4FE4
8100
0920
1118
2508
0200
0000
0000
ENDCHAR

STARTCHAR chs_B2ED
ENCODING 45805
SWIDTH 854 0
DWIDTH 16 0
BBX 16 18 0 -2
BITMAP
00C0
0440
0820
1010
2FEE
C424
0420
08A0
3040
0100
2108
2108
2108
2108
3FF8
0008
0000
0000
ENDCHAR

STARTCHAR chs_B2EE
ENCODING 45806
SWIDTH 854 0
DWIDTH 16 0
BBX 16 18 0 -2
BITMAP
0820
0440
7FFC
0100
0100
3FF8
0100
0204
FFFE
0400
0800
17F0
2080
4080
8088
1FFC
0000
0000
ENDCHAR

STARTCHAR chs_B2EF
ENCODING 45807
SWIDTH 854 0
DWIDTH 16 0
BBX 16 18 0 -2
BITMAP
0080
4040
37FE
1402
0024
0070
F780
1080
1088
10FC
1780
1080
1482
1882
107E
0000
0000
0000
ENDCHAR

STARTCHAR chs_B2F0
ENCODING 45808
SWIDTH 854 0
DWIDTH 16 0
BBX 16 18 0 -2
BITMAP
1008
101C
11E0
1100
FD00
1104
11FE
1D20
3120
D130
112C
1124
1120
1220
5420
2020
0000
0000
ENDCHAR

STARTCHAR chs_B2F1
ENCODING 45809
SWIDTH 854 0
DWIDTH 16 0
BBX 16 18 0 -2
BITMAP
0880
0888
2898
2EA0
28C0
2884
2E84
717C
0100
FFFF
0380
0540
0930
310E
C104
0100
0000
0000
ENDCHAR

STARTCHAR chs_B2F2
ENCODING 45810
SWIDTH 854 0
DWIDTH 16 0
BBX 16 18 0 -2
BITMAP
0408
0808
1208
EA08
2C08
29FE
1408
E618
0A18
1228
6648
0A88
1308
E208
1428
0810
0000
0000
ENDCHAR

STARTCHAR chs_B2F3
ENCODING 45811
SWIDTH 854 0
DWIDTH 16 0
BBX 16 18 0 -2
BITMAP
2100
21F8
2110
2220
F3FC
2644
2244
2BFC
30A2
E322
2C1E
21C0
2030
2180
A060
4010
0000
0000
ENDCHAR

STARTCHAR chs_B2F4
ENCODING 45812
SWIDTH 854 0
DWIDTH 16 0
BBX 16 18 0 -2
BITMAP
1080
10A0
1110
13F8
F880
17FE
10A0
1910
3248
D48E
1924
1240
1090
1120
5040
2380
0000
0000
ENDCHAR

STARTCHAR chs_B2F5
ENCODING 45813
SWIDTH 854 0
DWIDTH 16 0
BBX 16 18 0 -2
BITMAP
1104
108C
1050
7DFC
5524
5524
55FC
5524
7D24
11FC
1420
1FFE
E420
4020
0020
0020
0000
0000
ENDCHAR

STARTCHAR chs_B2F6
ENCODING 45814
SWIDTH 854 0
DWIDTH 16 0
BBX 16 18 0 -2
BITMAP
2100
21F8
2110
3A20
4BFC
5644
8244
23FC
20A2
2322
2C1E
21C0
2830
3180
2060
0010
0000
0000
ENDCHAR

STARTCHAR chs_B2F7
ENCODING 45815
SWIDTH 854 0
DWIDTH 16 0
BBX 16 18 0 -2
BITMAP
0100
21F8
1110
1220
07FC
0A44
F244
13FC
10A2
1322
1C1E
11C0
1030
1580
1860
0010
0000
0000
ENDCHAR

STARTCHAR chs_B2F8
ENCODING 45816
SWIDTH 854 0
DWIDTH 16 0
BBX 16 18 0 -2
BITMAP
1040
1024
27FE
2400
4DFC
F524
2524
45FC
FD24
0524
05FC
1C20
E5FC
4820
13FE
2000
0000
0000
ENDCHAR

STARTCHAR chs_B2F9
ENCODING 45817
SWIDTH 854 0
DWIDTH 16 0
BBX 16 18 0 -2
BITMAP
1020
1010
1010
1DFE
2000
2084
7C48
91FE
1100
FD00
1100
1100
1500
1900
1200
0400
0000
0000
ENDCHAR

STARTCHAR chs_B2FA
ENCODING 45818
SWIDTH 854 0
DWIDTH 16 0
BBX 16 18 0 -2
BITMAP
0200
0100
0108
7FFC
0810
0420
2440
3FFC
2000
2000
2000
2000
2000
4000
4000
8000
0000
0000
ENDCHAR

STARTCHAR chs_B2FB
ENCODING 45819
SWIDTH 854 0
DWIDTH 16 0
BBX 16 18 0 -2
BITMAP
2004
17FE
5004
4444
4284
4FE4
4924
4FE4
4924
4FE4
4104
5FF4
4104
4104
4104
400C
0000
0000
ENDCHAR

STARTCHAR chs_B2FC
ENCODING 45820
SWIDTH 854 0
DWIDTH 16 0
BBX 16 18 0 -2
BITMAP
0804
FF7E
0010
7F20
5D7C
5544
5D54
7F54
0054
3E54
3254
2A54
3E10
0028
FF46
0082
0000
0000
ENDCHAR

STARTCHAR chs_B2FD
ENCODING 45821
SWIDTH 854 0
DWIDTH 16 0
BBX 16 18 0 -2
BITMAP
1FF0
1010
1010
1FF0
1010
1010
1FF0
0000
3FF8
2008
2008
3FF8
2008
2008
3FF8
2008
0000
0000
ENDCHAR

STARTCHAR chs_B2FE
ENCODING 45822
SWIDTH 854 0
DWIDTH 16 0
BBX 16 18 0 -2
BITMAP
01F8
4508
2908
11F8
2908
4908
09F8
1800
2BFC
4A04
8A04
0BFC
0A04
0A04
53FC
2204
0000
0000
ENDCHAR

STARTCHAR chs_B3A1
ENCODING 45985
SWIDTH 854 0
DWIDTH 16 0
BBX 16 18 0 -2
BITMAP
2000
27F0
2020
2040
F880
2104
23FE
2124
2124
2124
3A24
E244
4444
0884
1128
0010
0000
0000
ENDCHAR

STARTCHAR chs_B3A2
ENCODING 45986
SWIDTH 854 0
DWIDTH 16 0
BBX 16 18 0 -2
BITMAP
0100
1110
0920
0100
7FFE
4002
8024
1FF0
0000
0008
7FFC
0200
0440
0820
1FF0
0810
0000
0000
ENDCHAR

STARTCHAR chs_B3A3
ENCODING 45987
SWIDTH 854 0
DWIDTH 16 0
BBX 16 18 0 -2
BITMAP
0100
1110
0920
7FFE
4002
8FE4
0820
0FE0
0100
1FF0
1110
1110
1150
1120
0100
0100
0000
0000
ENDCHAR

STARTCHAR chs_B3A4
ENCODING 45988
SWIDTH 854 0
DWIDTH 16 0
BBX 16 18 0 -2
BITMAP
0800
0810
0830
0840
0880
0900
0804
FFFE
0900
0900
0880
0840
0820
0918
0E06
0800
0000
0000
ENDCHAR

STARTCHAR chs_B3A5
ENCODING 45989
SWIDTH 854 0
DWIDTH 16 0
BBX 16 18 0 -2
BITMAP
0840
0A48
0950
1040
17FE
3402
5804
91F0
1000
1004
17FE
1080
1090
1108
13FC
1104
0000
0000
ENDCHAR

STARTCHAR chs_B3A6
ENCODING 45990
SWIDTH 854 0
DWIDTH 16 0
BBX 16 18 0 -2
BITMAP
0020
7BF0
4820
4840
4880
7900
4BFC
4894
4894
7924
4924
4A44
4C44
4884
4928
9810
0000
0000
ENDCHAR

STARTCHAR chs_B3A7
ENCODING 45991
SWIDTH 854 0
DWIDTH 16 0
BBX 16 18 0 -2
BITMAP
0000
0008
1FFC
1000
1000
1000
1000
1000
1000
1000
1000
2000
2000
4000
8000
0000
0000
0000
ENDCHAR

STARTCHAR chs_B3A8
ENCODING 45992
SWIDTH 854 0
DWIDTH 16 0
BBX 16 18 0 -2
BITMAP
0820
4920
2920
2A20
087E
7F84
4144
4144
5D48
5528
5528
5510
5D28
4128
4546
4284
0000
0000
ENDCHAR

STARTCHAR chs_B3A9
ENCODING 45993
SWIDTH 854 0
DWIDTH 16 0
BBX 16 18 0 -2
BITMAP
1000
13F0
1020
7C40
5480
5504
57FE
7C94
5494
5524
5524
7E44
5444
1084
1128
1010
0000
0000
ENDCHAR

STARTCHAR chs_B3AA
ENCODING 45994
SWIDTH 854 0
DWIDTH 16 0
BBX 16 18 0 -2
BITMAP
01F8
0908
7D08
49F8
4908
4908
49F8
4800
4BFC
4A04
7A04
4BFC
0204
0204
03FC
0204
0000
0000
ENDCHAR

STARTCHAR chs_B3AB
ENCODING 45995
SWIDTH 854 0
DWIDTH 16 0
BBX 16 18 0 -2
BITMAP
13F8
1208
1208
23F8
2208
6208
A3F8
2000
27FC
2404
2404
27FC
2404
2404
27FC
2404
0000
0000
ENDCHAR

STARTCHAR chs_B3AC
ENCODING 45996
SWIDTH 854 0
DWIDTH 16 0
BBX 16 18 0 -2
BITMAP
1008
13FC
1088
7C88
1088
10A8
FD10
1200
51F8
5D08
5108
5108
71F8
5800
87FE
0000
0000
0000
ENDCHAR

STARTCHAR chs_B3AD
ENCODING 45997
SWIDTH 854 0
DWIDTH 16 0
BBX 16 18 0 -2
BITMAP
1040
1040
1040
1040
FD50
1148
1546
1A42
3248
D448
1048
1050
1010
1020
50C0
2700
0000
0000
ENDCHAR

STARTCHAR chs_B3AE
ENCODING 45998
SWIDTH 854 0
DWIDTH 16 0
BBX 16 18 0 -2
BITMAP
1040
1040
1040
1C40
2150
2148
7D46
9242
1248
7C48
1048
1050
1410
1820
10C0
0700
0000
0000
ENDCHAR

STARTCHAR chs_B3AF
ENCODING 45999
SWIDTH 854 0
DWIDTH 16 0
BBX 16 18 0 -2
BITMAP
0804
087E
7F44
0844
0844
7F7C
4144
7F44
4144
7F7C
0844
0844
FF44
0844
0894
0908
0000
0000
ENDCHAR

STARTCHAR chs_B3B0
ENCODING 46000
SWIDTH 854 0
DWIDTH 16 0
BBX 16 18 0 -2
BITMAP
0204
023E
EFA4
A224
A224
AFBC
A8A4
AFA4
A8A4
AFBC
A224
E224
9FE4
0224
0244
028C
0000
0000
ENDCHAR

STARTCHAR chs_B3B1
ENCODING 46001
SWIDTH 854 0
DWIDTH 16 0
BBX 16 18 0 -2
BITMAP
0204
423E
2FA4
2224
0224
8FBC
48A4
4FA4
18A4
2FBC
2224
C224
5FE4
4224
4244
428C
0000
0000
ENDCHAR

STARTCHAR chs_B3B2
ENCODING 46002
SWIDTH 854 0
DWIDTH 16 0
BBX 16 18 0 -2
BITMAP
1110
1110
2220
1110
3FF8
2108
3FF8
2108
3FF8
0100
FFFE
0540
0920
3118
C106
0100
0000
0000
ENDCHAR

STARTCHAR chs_B3B3
ENCODING 46003
SWIDTH 854 0
DWIDTH 16 0
BBX 16 18 0 -2
BITMAP
0040
0840
7C40
4840
4950
4948
4946
4A42
4A48
4C48
7848
4810
0010
0020
00C0
0700
0000
0000
ENDCHAR

STARTCHAR chs_B3B4
ENCODING 46004
SWIDTH 854 0
DWIDTH 16 0
BBX 16 18 0 -2
BITMAP
1040
1040
1040
1040
5550
5948
5146
9242
1248
1448
1048
2810
2410
4420
80C0
0700
0000
0000
ENDCHAR

STARTCHAR chs_B3B5
ENCODING 46005
SWIDTH 854 0
DWIDTH 16 0
BBX 16 18 0 -2
BITMAP
0200
0208
7FFC
0400
0900
1100
2110
3FF8
0100
0104
FFFE
0100
0100
0100
0100
0100
0000
0000
ENDCHAR

STARTCHAR chs_B3B6
ENCODING 46006
SWIDTH 854 0
DWIDTH 16 0
BBX 16 18 0 -2
BITMAP
1020
1020
1020
1020
FC20
1120
153C
1920
3120
D120
1120
1120
1124
17FE
5000
2000
0000
0000
ENDCHAR

STARTCHAR chs_B3B7
ENCODING 46007
SWIDTH 854 0
DWIDTH 16 0
BBX 16 18 0 -2
BITMAP
2210
2110
2FD0
2210
F4BE
2FC4
2024
37A8
24A8
E7A8
2490
2790
24A8
24A8
A4C6
4584
0000
0000
ENDCHAR

STARTCHAR chs_B3B8
ENCODING 46008
SWIDTH 854 0
DWIDTH 16 0
BBX 16 18 0 -2
BITMAP
2404
3F84
4424
FFE4
0424
3FA4
24A4
258C
0060
3F80
0100
1FF0
0100
7FFC
0100
0300
0000
0000
ENDCHAR

STARTCHAR chs_B3B9
ENCODING 46009
SWIDTH 854 0
DWIDTH 16 0
BBX 16 18 0 -2
BITMAP
1000
1204
12FE
2224
4224
9224
13E4
2E24
6224
A264
22A4
2724
2244
2044
2094
2308
0000
0000
ENDCHAR

STARTCHAR chs_B3BA
ENCODING 46010
SWIDTH 854 0
DWIDTH 16 0
BBX 16 18 0 -2
BITMAP
0210
4110
2FD0
2210
04BE
8FC4
4024
47A8
14A8
27A8
E490
2790
24A8
24A8
24C6
2584
0000
0000
ENDCHAR

STARTCHAR chs_B3BB
ENCODING 46011
SWIDTH 854 0
DWIDTH 16 0
BBX 16 18 0 -2
BITMAP
1100
113E
1122
1124
FFE4
1128
3328
3BA4
5562
5522
9922
1132
112A
1124
1120
1120
0000
0000
ENDCHAR

STARTCHAR chs_B3BC
ENCODING 46012
SWIDTH 854 0
DWIDTH 16 0
BBX 16 18 0 -2
BITMAP
0008
3FFC
2100
2100
2108
3FFC
2008
2008
2008
3FF8
2108
2100
2100
2108
3FFC
0000
0000
0000
ENDCHAR

STARTCHAR chs_B3BD
ENCODING 46013
SWIDTH 854 0
DWIDTH 16 0
BBX 16 18 0 -2
BITMAP
0010
3FF8
2000
2020
3FF0
2000
2008
3FFC
2900
2910
28A0
2840
4830
490E
8E04
0800
0000
0000
ENDCHAR

STARTCHAR chs_B3BE
ENCODING 46014
SWIDTH 854 0
DWIDTH 16 0
BBX 16 18 0 -2
BITMAP
0100
0100
0900
0920
1110
210C
4104
0000
0100
0108
7FFC
0100
0100
0104
FFFE
0000
0000
0000
ENDCHAR

STARTCHAR chs_B3BF
ENCODING 46015
SWIDTH 854 0
DWIDTH 16 0
BBX 16 18 0 -2
BITMAP
1FF0
1010
1FF0
1010
1FF0
0000
3FF8
2000
2FF0
2000
3FFC
2908
4890
4860
8A1E
0C04
0000
0000
ENDCHAR

STARTCHAR chs_B3C0
ENCODING 46016
SWIDTH 854 0
DWIDTH 16 0
BBX 16 18 0 -2
BITMAP
1040
1040
1040
1040
53FC
5A44
5448
9040
1040
10A0
10A0
1120
1122
1222
141E
1800
0000
0000
ENDCHAR

STARTCHAR chs_B3C1
ENCODING 46017
SWIDTH 854 0
DWIDTH 16 0
BBX 16 18 0 -2
BITMAP
0000
4004
37FE
1404
8408
4000
21E0
0920
1120
2120
E120
2120
2222
2222
241E
2800
0000
0000
ENDCHAR

STARTCHAR chs_B3C2
ENCODING 46018
SWIDTH 854 0
DWIDTH 16 0
BBX 16 18 0 -2
BITMAP
0040
7840
4844
57FE
5080
60A0
5120
4A20
4BFC
4820
6928
5124
4226
4422
40A0
4040
0000
0000
ENDCHAR

STARTCHAR chs_B3C3
ENCODING 46019
SWIDTH 854 0
DWIDTH 16 0
BBX 16 18 0 -2
BITMAP
1040
1040
10A0
7D10
1128
126E
FC84
1120
1060
5C88
5118
5020
7040
4880
87FE
0000
0000
0000
ENDCHAR

STARTCHAR chs_B3C4
ENCODING 46020
SWIDTH 854 0
DWIDTH 16 0
BBX 16 18 0 -2
BITMAP
2010
1010
1010
0010
FC10
0BFE
1010
3410
5910
9490
1490
1010
1010
1010
1050
1020
0000
0000
ENDCHAR

STARTCHAR chs_B3C5
ENCODING 46021
SWIDTH 854 0
DWIDTH 16 0
BBX 16 18 0 -2
BITMAP
1248
1150
17FE
1402
F9F4
1110
11F0
1818
33E0
D040
13F8
1040
17FC
1040
5140
2080
0000
0000
ENDCHAR

STARTCHAR chs_B3C6
ENCODING 46022
SWIDTH 854 0
DWIDTH 16 0
BBX 16 18 0 -2
BITMAP
0440
0E40
7840
0884
08FE
FE84
0928
1C20
1AA8
28A4
2922
4922
8A20
0820
08A0
0840
0000
0000
ENDCHAR

STARTCHAR chs_B3C7
ENCODING 46023
SWIDTH 854 0
DWIDTH 16 0
BBX 16 18 0 -2
BITMAP
2020
2028
2024
27FE
FC20
2420
2424
27A4
24A8
24A8
3C90
E690
4530
0852
088A
1006
0000
0000
ENDCHAR

STARTCHAR chs_B3C8
ENCODING 46024
SWIDTH 854 0
DWIDTH 16 0
BBX 16 18 0 -2
BITMAP
1000
13A8
10B4
12A8
FD10
1208
37FE
3004
5BF8
5608
9208
13F8
1110
10A0
1FFE
1000
0000
0000
ENDCHAR

STARTCHAR chs_B3C9
ENCODING 46025
SWIDTH 854 0
DWIDTH 16 0
BBX 16 18 0 -2
BITMAP
0080
00A0
0090
3FFC
2080
2080
2084
3E44
2248
2248
2230
2A20
2462
4092
810A
0006
0000
0000
ENDCHAR

STARTCHAR chs_B3CA
ENCODING 46026
SWIDTH 854 0
DWIDTH 16 0
BBX 16 18 0 -2
BITMAP
0010
1FF8
1010
1010
1010
1FF0
1010
0000
7FFC
0100
0110
3FF8
0100
0104
FFFE
0000
0000
0000
ENDCHAR

STARTCHAR chs_B3CB
ENCODING 46027
SWIDTH 854 0
DWIDTH 16 0
BBX 16 18 0 -2
BITMAP
0020
00F0
1F00
0104
FFFE
0540
3D58
0560
0D44
753C
0380
0540
0920
3118
C106
0100
0000
0000
ENDCHAR

STARTCHAR chs_B3CC
ENCODING 46028
SWIDTH 854 0
DWIDTH 16 0
BBX 16 18 0 -2
BITMAP
0804
1DFE
F104
1104
1104
FDFC
1104
3800
35FC
5420
5020
91FC
1020
1020
17FE
1000
0000
0000
ENDCHAR

STARTCHAR chs_B3CD
ENCODING 46029
SWIDTH 854 0
DWIDTH 16 0
BBX 16 18 0 -2
BITMAP
1008
13FC
2040
4840
1278
3240
5240
9244
17FE
1000
2A08
2984
2892
4812
07F0
0000
0000
0000
ENDCHAR

STARTCHAR chs_B3CE
ENCODING 46030
SWIDTH 854 0
DWIDTH 16 0
BBX 16 18 0 -2
BITMAP
0040
4750
3160
1544
8228
4410
4BE8
1006
17F0
2410
E410
27F0
2220
2144
3FFE
2000
0000
0000
ENDCHAR

STARTCHAR chs_B3CF
ENCODING 46031
SWIDTH 854 0
DWIDTH 16 0
BBX 16 18 0 -2
BITMAP
0020
4028
2024
27FE
0420
0420
E424
27A4
24A8
24A8
2490
2E90
3530
244A
088A
1006
0000
0000
ENDCHAR

STARTCHAR chs_B3D0
ENCODING 46032
SWIDTH 854 0
DWIDTH 16 0
BBX 16 18 0 -2
BITMAP
1FF0
0020
0040
0184
792C
0FF0
0920
1110
17D0
2110
2108
4FE6
8100
0100
0500
0200
0000
0000
ENDCHAR

STARTCHAR chs_B3D1
ENCODING 46033
SWIDTH 854 0
DWIDTH 16 0
BBX 16 18 0 -2
BITMAP
0010
47F8
2410
2410
07F0
0000
EFF8
2080
2080
27F0
2080
2080
2FF8
5000
8FFE
0000
0000
0000
ENDCHAR

STARTCHAR chs_B3D2
ENCODING 46034
SWIDTH 854 0
DWIDTH 16 0
BBX 16 18 0 -2
BITMAP
0820
FC24
09FE
4924
49FC
4924
49FC
4800
7DFE
0440
04FC
1C04
E404
4404
1448
0830
0000
0000
ENDCHAR

STARTCHAR chs_B3D3
ENCODING 46035
SWIDTH 854 0
DWIDTH 16 0
BBX 16 18 0 -2
BITMAP
0800
1C04
F1FE
1020
1124
FCA4
10A8
3820
37FE
5420
5020
9020
1020
1020
1020
1020
0000
0000
ENDCHAR

STARTCHAR chs_B3D4
ENCODING 46036
SWIDTH 854 0
DWIDTH 16 0
BBX 16 18 0 -2
BITMAP
0080
0080
0104
79FE
4A00
4C10
4BF8
4810
4820
4840
7880
4900
0202
0202
01FE
0000
0000
0000
ENDCHAR

STARTCHAR chs_B3D5
ENCODING 46037
SWIDTH 854 0
DWIDTH 16 0
BBX 16 18 0 -2
BITMAP
0100
0084
1FFE
1200
9200
57BC
5524
1924
3124
57E4
D124
1124
22A4
22BC
4424
0800
0000
0000
ENDCHAR

STARTCHAR chs_B3D6
ENCODING 46038
SWIDTH 854 0
DWIDTH 16 0
BBX 16 18 0 -2
BITMAP
1040
1040
1048
13FC
FC40
1044
17FE
1810
3010
D7FE
1210
1110
1110
1010
5050
2020
0000
0000
ENDCHAR

STARTCHAR chs_B3D7
ENCODING 46039
SWIDTH 854 0
DWIDTH 16 0
BBX 16 18 0 -2
BITMAP
0240
3F40
2240
2240
3E48
2258
3E60
0040
FF40
0844
2844
2F3C
2800
5800
87FE
0000
0000
0000
ENDCHAR

STARTCHAR chs_B3D8
ENCODING 46040
SWIDTH 854 0
DWIDTH 16 0
BBX 16 18 0 -2
BITMAP
0040
4040
3240
1248
827C
63C8
2E48
0248
1248
2248
E268
2250
2242
2202
21FE
2000
0000
0000
ENDCHAR

STARTCHAR chs_B3D9
ENCODING 46041
SWIDTH 854 0
DWIDTH 16 0
BBX 16 18 0 -2
BITMAP
0008
43FC
2208
2208
0208
03F8
E208
2240
2230
2208
2404
2404
2800
5000
8FFE
0000
0000
0000
ENDCHAR

STARTCHAR chs_B3DA
ENCODING 46042
SWIDTH 854 0
DWIDTH 16 0
BBX 16 18 0 -2
BITMAP
0820
7C20
0920
0920
0924
793E
41E4
4724
4124
7924
0934
0928
0922
0902
50FE
2000
0000
0000
ENDCHAR

STARTCHAR chs_B3DB
ENCODING 46043
SWIDTH 854 0
DWIDTH 16 0
BBX 16 18 0 -2
BITMAP
0820
FC20
0920
4920
4924
493E
49E4
4B24
7D24
0524
0534
1D28
E522
0502
28FE
1000
0000
0000
ENDCHAR

STARTCHAR chs_B3DC
ENCODING 46044
SWIDTH 854 0
DWIDTH 16 0
BBX 16 18 0 -2
BITMAP
0210
FF18
2410
2410
3C90
249E
2490
3C90
2490
2490
3F90
E490
4490
07FE
0400
0400
0000
0000
ENDCHAR

STARTCHAR chs_B3DD
ENCODING 46045
SWIDTH 854 0
DWIDTH 16 0
BBX 16 18 0 -2
BITMAP
0100
1110
11F8
1100
1100
1104
FFFE
0000
2108
2108
2288
2468
2828
2008
3FF8
2008
0000
0000
ENDCHAR

STARTCHAR chs_B3DE
ENCODING 46046
SWIDTH 854 0
DWIDTH 16 0
BBX 16 18 0 -2
BITMAP
0880
08FC
0908
1310
10A0
3040
5090
9110
1620
107E
1084
1348
1030
1020
10C0
1700
0000
0000
ENDCHAR

STARTCHAR chs_B3DF
ENCODING 46047
SWIDTH 854 0
DWIDTH 16 0
BBX 16 18 0 -2
BITMAP
0010
1FF8
1010
1010
1010
1010
1FF0
1410
1400
1200
1100
1080
2040
2030
400E
8004
0000
0000
ENDCHAR

STARTCHAR chs_B3E0
ENCODING 46048
SWIDTH 854 0
DWIDTH 16 0
BBX 16 18 0 -2
BITMAP
0100
0100
0110
3FF8
0100
0104
FFFE
0440
0440
1450
1448
2446
4842
8840
1140
2080
0000
0000
ENDCHAR

STARTCHAR chs_B3E1
ENCODING 46049
SWIDTH 854 0
DWIDTH 16 0
BBX 16 18 0 -2
BITMAP
2000
2004
27BE
F884
24A4
2294
F884
8884
8A94
94A4
5084
2294
2108
5000
4FFE
8000
0000
0000
ENDCHAR

STARTCHAR chs_B3E2
ENCODING 46050
SWIDTH 854 0
DWIDTH 16 0
BBX 16 18 0 -2
BITMAP
0010
0078
3F80
2000
2000
2008
3FFC
2080
2080
2380
20E0
20B0
4090
4080
8080
0080
0000
0000
ENDCHAR

STARTCHAR chs_B3E3
ENCODING 46051
SWIDTH 854 0
DWIDTH 16 0
BBX 16 18 0 -2
BITMAP
1000
1008
11FC
1508
5908
5108
5108
9108
11F8
1108
1000
2890
2588
420C
8404
0000
0000
0000
ENDCHAR

STARTCHAR chs_B3E4
ENCODING 46052
SWIDTH 854 0
DWIDTH 16 0
BBX 16 18 0 -2
BITMAP
0200
0100
0104
FFFE
0200
0440
0820
1FF0
0450
0440
0440
0440
0842
0842
103E
6000
0000
0000
ENDCHAR

STARTCHAR chs_B3E5
ENCODING 46053
SWIDTH 854 0
DWIDTH 16 0
BBX 16 18 0 -2
BITMAP
0040
4040
2040
2044
07FE
1444
1444
1444
1444
27FC
E444
2040
2040
2040
2040
0040
0000
0000
ENDCHAR

STARTCHAR chs_B3E6
ENCODING 46054
SWIDTH 854 0
DWIDTH 16 0
BBX 16 18 0 -2
BITMAP
0100
0100
0100
0108
3FFC
2108
2108
2108
2108
3FF8
2108
0110
0108
01FC
7E04
2004
0000
0000
ENDCHAR

STARTCHAR chs_B3E7
ENCODING 46055
SWIDTH 854 0
DWIDTH 16 0
BBX 16 18 0 -2
BITMAP
0100
2108
2108
3FF8
2208
0100
7FFE
4002
9FF4
0000
7FFC
0100
1120
1118
2508
0200
0000
0000
ENDCHAR

STARTCHAR chs_B3E8
ENCODING 46056
SWIDTH 854 0
DWIDTH 16 0
BBX 16 18 0 -2
BITMAP
0200
0100
7FFE
4202
8284
0240
3FF8
0280
0290
04B0
04C0
0880
0982
1282
207E
4000
0000
0000
ENDCHAR

STARTCHAR chs_B3E9
ENCODING 46057
SWIDTH 854 0
DWIDTH 16 0
BBX 16 18 0 -2
BITMAP
1020
1020
1020
1024
FDFE
1124
1524
1924
3124
D1FC
1124
1124
1124
1124
51FC
2104
0000
0000
ENDCHAR

STARTCHAR chs_B3EA
ENCODING 46058
SWIDTH 854 0
DWIDTH 16 0
BBX 16 18 0 -2
BITMAP
0244
FF44
2854
2854
FE54
AA54
AAFC
AA54
AE54
C254
8254
FE54
8294
8294
FF04
8204
0000
0000
ENDCHAR

STARTCHAR chs_B3EB
ENCODING 46059
SWIDTH 854 0
DWIDTH 16 0
BBX 16 18 0 -2
BITMAP
0040
0048
7DFC
5440
55F8
5440
57FE
7C88
5488
55FE
5508
5548
7E28
4208
0428
0010
0000
0000
ENDCHAR

STARTCHAR chs_B3EC
ENCODING 46060
SWIDTH 854 0
DWIDTH 16 0
BBX 16 18 0 -2
BITMAP
0040
7C48
45FC
4440
45F8
4440
7FFE
5488
1088
1DFE
5108
5548
5A28
E208
4428
0010
0000
0000
ENDCHAR

STARTCHAR chs_B3ED
ENCODING 46061
SWIDTH 854 0
DWIDTH 16 0
BBX 16 18 0 -2
BITMAP
0400
1BFE
7222
1222
12FA
FE22
1222
3BFE
3602
52FA
528A
928A
128A
12FA
1402
180C
0000
0000
ENDCHAR

STARTCHAR chs_B3EE
ENCODING 46062
SWIDTH 854 0
DWIDTH 16 0
BBX 16 18 0 -2
BITMAP
0420
0E20
7820
08A4
FEAC
08B0
1D50
2A48
488E
0904
0200
0900
2888
28A4
4824
07E0
0000
0000
ENDCHAR

STARTCHAR chs_B3EF
ENCODING 46063
SWIDTH 854 0
DWIDTH 16 0
BBX 16 18 0 -2
BITMAP
1040
1F7C
28A0
4510
0100
7FFC
0200
3FF8
0400
FFFE
0810
1FFC
2410
4210
0250
0020
0000
0000
ENDCHAR

STARTCHAR chs_B3F0
ENCODING 46064
SWIDTH 854 0
DWIDTH 16 0
BBX 16 18 0 -2
BITMAP
0900
0900
0900
1110
17F8
3110
5110
9110
1110
1110
1110
1210
1212
1412
180E
1000
0000
0000
ENDCHAR

STARTCHAR chs_B3F1
ENCODING 46065
SWIDTH 854 0
DWIDTH 16 0
BBX 16 18 0 -2
BITMAP
1004
17FE
2444
2444
4DF4
F444
1444
27FC
4404
FDF4
4514
0D14
1514
E5F4
4904
1018
0000
0000
ENDCHAR

STARTCHAR chs_B3F2
ENCODING 46066
SWIDTH 854 0
DWIDTH 16 0
BBX 16 18 0 -2
BITMAP
0080
09D0
7F10
4912
4956
7FB8
4910
4B90
4B50
7D10
4928
4928
4928
7946
4984
0100
0000
0000
ENDCHAR

STARTCHAR chs_B3F3
ENCODING 46067
SWIDTH 854 0
DWIDTH 16 0
BBX 16 18 0 -2
BITMAP
0010
3FF8
0210
0210
0210
0210
0210
1FF0
0410
0410
0410
0410
0410
0414
FFFE
0000
0000
0000
ENDCHAR

STARTCHAR chs_B3F4
ENCODING 46068
SWIDTH 854 0
DWIDTH 16 0
BBX 16 18 0 -2
BITMAP
0200
0410
1FF8
1010
1FF0
1010
1FF0
1010
1FF0
0120
0110
FFFE
0280
0440
1830
600C
0000
0000
ENDCHAR

STARTCHAR chs_B3F5
ENCODING 46069
SWIDTH 854 0
DWIDTH 16 0
BBX 16 18 0 -2
BITMAP
2000
1000
1004
05FE
FC44
0844
1044
3444
5844
9844
1444
1084
1084
1104
1228
1410
0000
0000
ENDCHAR

STARTCHAR chs_B3F6
ENCODING 46070
SWIDTH 854 0
DWIDTH 16 0
BBX 16 18 0 -2
BITMAP
0100
0100
2108
2108
2108
2108
3FF8
2108
0100
4104
4104
4104
4104
4104
7FFC
4004
0000
0000
ENDCHAR

STARTCHAR chs_B3F7
ENCODING 46071
SWIDTH 854 0
DWIDTH 16 0
BBX 16 18 0 -2
BITMAP
2004
27FE
2400
2404
FFE4
2404
75DE
6D44
A544
25D4
240C
2544
2944
2BE4
3014
2008
0000
0000
ENDCHAR

STARTCHAR chs_B3F8
ENCODING 46072
SWIDTH 854 0
DWIDTH 16 0
BBX 16 18 0 -2
BITMAP
0004
3FFE
2000
3F88
2008
2F08
29FE
2908
2908
2F48
2028
2908
2A08
4388
5C28
8010
0000
0000
ENDCHAR

STARTCHAR chs_B3F9
ENCODING 46073
SWIDTH 854 0
DWIDTH 16 0
BBX 16 18 0 -2
BITMAP
0090
7DFC
4490
4440
45FC
7C48
1050
17FE
5040
5C88
51FC
5308
5DF8
F108
41F8
0108
0000
0000
ENDCHAR

STARTCHAR chs_B3FA
ENCODING 46074
SWIDTH 854 0
DWIDTH 16 0
BBX 16 18 0 -2
BITMAP
2010
2010
23D0
7A50
827C
0254
FBD4
2254
2254
FBD4
2254
2254
2FF4
3024
2054
0088
0000
0000
ENDCHAR

STARTCHAR chs_B3FB
ENCODING 46075
SWIDTH 854 0
DWIDTH 16 0
BBX 16 18 0 -2
BITMAP
1040
1060
2090
3CFE
4590
8A90
10FC
FC90
0490
04FC
7C90
0490
0490
FCFE
0480
0080
0000
0000
ENDCHAR

STARTCHAR chs_B3FC
ENCODING 46076
SWIDTH 854 0
DWIDTH 16 0
BBX 16 18 0 -2
BITMAP
0020
5E20
3250
3450
1488
9506
5AFC
1420
3220
33FE
DA20
54A8
5126
5222
50A0
1040
0000
0000
ENDCHAR

STARTCHAR chs_B3FD
ENCODING 46077
SWIDTH 854 0
DWIDTH 16 0
BBX 16 18 0 -2
BITMAP
0040
7840
48A0
50A0
5110
6208
55F6
4840
4840
4FFC
6840
5150
424C
4444
4140
4080
0000
0000
ENDCHAR

STARTCHAR chs_B3FE
ENCODING 46078
SWIDTH 854 0
DWIDTH 16 0
BBX 16 18 0 -2
BITMAP
0820
0820
7EFC
0820
1C78
2AA4
4820
0820
7FFC
0108
0900
09F0
1100
1100
2900
47FE
0000
0000
ENDCHAR

STARTCHAR chs_B4A1
ENCODING 46241
SWIDTH 854 0
DWIDTH 16 0
BBX 16 18 0 -2
BITMAP
0020
0420
FE20
1124
1124
2124
2124
7DFC
A420
2524
2524
2524
2524
3D24
25FC
0104
0000
0000
ENDCHAR

STARTCHAR chs_B4A2
ENCODING 46242
SWIDTH 854 0
DWIDTH 16 0
BBX 16 18 0 -2
BITMAP
1040
1440
1244
22FC
2048
7C50
A5FE
2440
24F8
2588
2688
24F8
2588
2688
20F8
2088
0000
0000
ENDCHAR

STARTCHAR chs_B4A3
ENCODING 46243
SWIDTH 854 0
DWIDTH 16 0
BBX 16 18 0 -2
BITMAP
0110
3FF8
0100
0FE0
0820
0920
0920
7FFC
0820
7EFC
0820
3EF8
2288
2AA8
2AA8
FFFE
0000
0000
ENDCHAR

STARTCHAR chs_B4A4
ENCODING 46244
SWIDTH 854 0
DWIDTH 16 0
BBX 16 18 0 -2
BITMAP
1080
1044
1FFE
1080
FD10
13F0
1040
1890
33F8
D008
17FC
1444
17FC
1444
57FC
2404
0000
0000
ENDCHAR

STARTCHAR chs_B4A5
ENCODING 46245
SWIDTH 854 0
DWIDTH 16 0
BBX 16 18 0 -2
BITMAP
2020
2020
3C20
4824
51FE
FD24
5524
5524
7D24
5524
55FC
7D20
5428
543C
55E2
8C82
0000
0000
ENDCHAR

STARTCHAR chs_B4A6
ENCODING 46246
SWIDTH 854 0
DWIDTH 16 0
BBX 16 18 0 -2
BITMAP
0040
1040
1040
1040
1E40
2260
2250
224C
5444
9440
0840
1440
1440
2200
41FE
8000
0000
0000
ENDCHAR

STARTCHAR chs_B4A7
ENCODING 46247
SWIDTH 854 0
DWIDTH 16 0
BBX 16 18 0 -2
BITMAP
2040
2040
2444
2444
F7FC
2000
27FE
2840
3080
E7FC
24A4
24A4
24A4
24A4
A4A4
440C
0000
0000
ENDCHAR

STARTCHAR chs_B4A8
ENCODING 46248
SWIDTH 854 0
DWIDTH 16 0
BBX 16 18 0 -2
BITMAP
0004
1004
1084
1084
1084
1084
1084
1084
1084
1084
1084
1084
1084
2004
4004
0004
0000
0000
ENDCHAR

STARTCHAR chs_B4A9
ENCODING 46249
SWIDTH 854 0
DWIDTH 16 0
BBX 16 18 0 -2
BITMAP
0200
0100
7FFE
4442
8824
0000
3FF8
0840
1040
3FFC
0140
0240
0440
1840
6140
0080
0000
0000
ENDCHAR

STARTCHAR chs_B4AA
ENCODING 46250
SWIDTH 854 0
DWIDTH 16 0
BBX 16 18 0 -2
BITMAP
1080
10F8
1088
11F8
FC10
13FE
3080
3944
566C
50B0
9130
1668
10A6
1724
10A0
1040
0000
0000
ENDCHAR

STARTCHAR chs_B4AB
ENCODING 46251
SWIDTH 854 0
DWIDTH 16 0
BBX 16 18 0 -2
BITMAP
0840
0840
0840
17FC
1040
3044
5FFE
9080
1108
13FC
1008
1110
10A0
1040
1060
1020
0000
0000
ENDCHAR

STARTCHAR chs_B4AC
ENCODING 46252
SWIDTH 854 0
DWIDTH 16 0
BBX 16 18 0 -2
BITMAP
0808
107C
3E48
2248
3248
2A48
2286
2300
FE04
22FE
3284
2A84
2284
4284
8AFC
0484
0000
0000
ENDCHAR

STARTCHAR chs_B4AD
ENCODING 46253
SWIDTH 854 0
DWIDTH 16 0
BBX 16 18 0 -2
BITMAP
0040
0040
0444
F444
97FC
9004
9000
9FFE
9040
9080
97FC
F4A4
94A4
04A4
04A4
040C
0000
0000
ENDCHAR

STARTCHAR chs_B4AE
ENCODING 46254
SWIDTH 854 0
DWIDTH 16 0
BBX 16 18 0 -2
BITMAP
0100
0108
3FFC
2108
2108
3FF8
0100
0104
7FFE
4104
4104
7FFC
4104
0100
0100
0100
0000
0000
ENDCHAR

STARTCHAR chs_B4AF
ENCODING 46255
SWIDTH 854 0
DWIDTH 16 0
BBX 16 18 0 -2
BITMAP
0100
0084
1FFE
1080
9140
5220
5410
1BEE
3224
5220
D2A0
1240
2208
2208
41F8
0000
0000
0000
ENDCHAR

STARTCHAR chs_B4B0
ENCODING 46256
SWIDTH 854 0
DWIDTH 16 0
BBX 16 18 0 -2
BITMAP
0200
0100
7FFE
4822
9214
0400
3FF8
2208
23C8
2448
2A88
2108
2288
2408
3FF8
2008
0000
0000
ENDCHAR

STARTCHAR chs_B4B1
ENCODING 46257
SWIDTH 854 0
DWIDTH 16 0
BBX 16 18 0 -2
BITMAP
2080
2040
27FC
F910
A8A0
AFFE
A800
ABF8
AA48
ABF8
AA48
BBF8
2040
23F8
2040
2FFE
0000
0000
ENDCHAR

STARTCHAR chs_B4B2
ENCODING 46258
SWIDTH 854 0
DWIDTH 16 0
BBX 16 18 0 -2
BITMAP
0100
0084
3FFE
2080
2080
2088
3FFC
2080
21C0
21A0
2290
2488
488E
5084
8080
0080
0000
0000
ENDCHAR

STARTCHAR chs_B4B3
ENCODING 46259
SWIDTH 854 0
DWIDTH 16 0
BBX 16 18 0 -2
BITMAP
2004
17FE
5004
4004
4FC4
4044
4244
4244
4444
47F4
4014
5FD4
4014
4054
4024
400C
0000
0000
ENDCHAR

STARTCHAR chs_B4B4
ENCODING 46260
SWIDTH 854 0
DWIDTH 16 0
BBX 16 18 0 -2
BITMAP
0804
0804
1404
1224
21A4
20A4
7E24
A224
2224
2A24
2424
2004
2104
2104
1F14
0008
0000
0000
ENDCHAR

STARTCHAR chs_B4B5
ENCODING 46261
SWIDTH 854 0
DWIDTH 16 0
BBX 16 18 0 -2
BITMAP
0080
0880
7C88
49FC
4908
4A50
4A40
4C40
4840
4840
78A0
48A0
0090
0108
060E
1804
0000
0000
ENDCHAR

STARTCHAR chs_B4B6
ENCODING 46262
SWIDTH 854 0
DWIDTH 16 0
BBX 16 18 0 -2
BITMAP
1080
1080
1088
11FC
5508
5A50
5440
9040
1040
1040
1040
18A0
2490
2108
460E
9804
0000
0000
ENDCHAR

STARTCHAR chs_B4B7
ENCODING 46263
SWIDTH 854 0
DWIDTH 16 0
BBX 16 18 0 -2
BITMAP
1008
103C
13C0
1040
FC40
17FC
1150
1950
37FE
D150
1150
17FC
1040
1040
53F8
2000
0000
0000
ENDCHAR

STARTCHAR chs_B4B8
ENCODING 46264
SWIDTH 854 0
DWIDTH 16 0
BBX 16 18 0 -2
BITMAP
1008
103C
13C0
1C40
2040
23FC
7D50
9150
17FE
7950
1150
13FC
1440
1840
13F8
0000
0000
0000
ENDCHAR

STARTCHAR chs_B4B9
ENCODING 46265
SWIDTH 854 0
DWIDTH 16 0
BBX 16 18 0 -2
BITMAP
0010
0078
3F80
0100
0108
7FFC
0920
0920
FFFE
0920
0920
7FFC
0100
0100
3FF8
0000
0000
0000
ENDCHAR

STARTCHAR chs_B4BA
ENCODING 46266
SWIDTH 854 0
DWIDTH 16 0
BBX 16 18 0 -2
BITMAP
0200
7FFC
0200
3FF8
0400
FFFE
0840
0820
1FF0
282E
C824
0FE0
0820
0820
0FE0
0820
0000
0000
ENDCHAR

STARTCHAR chs_B4BB
ENCODING 46267
SWIDTH 854 0
DWIDTH 16 0
BBX 16 18 0 -2
BITMAP
1040
17FC
1040
13F8
FC80
17FE
3110
3A08
57FC
5A0A
9208
13F8
1208
1208
13F8
1208
0000
0000
ENDCHAR

STARTCHAR chs_B4BC
ENCODING 46268
SWIDTH 854 0
DWIDTH 16 0
BBX 16 18 0 -2
BITMAP
0020
FE10
29FE
2800
FEFC
AA84
AAFC
AA00
AEFC
C208
8230
FE24
83FE
8220
FEA0
8240
0000
0000
ENDCHAR

STARTCHAR chs_B4BD
ENCODING 46269
SWIDTH 854 0
DWIDTH 16 0
BBX 16 18 0 -2
BITMAP
0010
3FF8
2000
2FF0
2000
3FFC
2A10
29A0
2860
2E1E
2004
4FF0
4810
8810
0FF0
0810
0000
0000
ENDCHAR

STARTCHAR chs_B4BE
ENCODING 46270
SWIDTH 854 0
DWIDTH 16 0
BBX 16 18 0 -2
BITMAP
0080
4044
37FE
1000
83F8
6208
2BF8
0800
13F8
1010
6064
2FFE
2040
2040
2140
2080
0000
0000
ENDCHAR

STARTCHAR chs_B4BF
ENCODING 46271
SWIDTH 854 0
DWIDTH 16 0
BBX 16 18 0 -2
BITMAP
1040
1040
2044
27FE
4840
FA48
1248
2248
4248
FBF8
4248
0040
1842
E042
403E
0000
0000
0000
ENDCHAR

STARTCHAR chs_B4C0
ENCODING 46272
SWIDTH 854 0
DWIDTH 16 0
BBX 16 18 0 -2
BITMAP
0108
7FFC
0100
3FF8
0200
7FFC
0820
1FF0
E92E
0FE4
1020
7CF8
54A8
7CF8
1224
FEFC
0000
0000
ENDCHAR

STARTCHAR chs_B4C1
ENCODING 46273
SWIDTH 854 0
DWIDTH 16 0
BBX 16 18 0 -2
BITMAP
0020
F7A0
52A8
31A4
52A0
94AE
10F0
2420
3FA4
6424
BF18
2410
3F30
244A
3F8A
2006
0000
0000
ENDCHAR

STARTCHAR chs_B4C2
ENCODING 46274
SWIDTH 854 0
DWIDTH 16 0
BBX 16 18 0 -2
BITMAP
1048
107C
2040
2040
4BF8
FA08
13F8
2208
43F8
F840
4044
07FE
1840
E040
4040
0040
0000
0000
ENDCHAR

STARTCHAR chs_B4C3
ENCODING 46275
SWIDTH 854 0
DWIDTH 16 0
BBX 16 18 0 -2
BITMAP
0100
0084
1FFE
1120
9120
5120
5524
152C
35F0
5520
D520
1520
2522
25E2
4E1E
0400
0000
0000
ENDCHAR

STARTCHAR chs_B4C4
ENCODING 46276
SWIDTH 854 0
DWIDTH 16 0
BBX 16 18 0 -2
BITMAP
0820
0824
FFFE
0820
0100
4108
33FC
1208
0490
1080
E080
20C0
2120
2218
240E
1804
0000
0000
ENDCHAR

STARTCHAR chs_B4C5
ENCODING 46277
SWIDTH 854 0
DWIDTH 16 0
BBX 16 18 0 -2
BITMAP
0208
0198
F8A0
27FE
2108
4108
4252
74A4
D7BC
5108
5108
5210
54A4
77FE
5042
0000
0000
0000
ENDCHAR

STARTCHAR chs_B4C6
ENCODING 46278
SWIDTH 854 0
DWIDTH 16 0
BBX 16 18 0 -2
BITMAP
1440
1460
1490
54FE
5590
5E90
54FC
5490
5490
54FC
5490
5490
5D90
E6FE
4480
0080
0000
0000
ENDCHAR

STARTCHAR chs_B4C7
ENCODING 46279
SWIDTH 854 0
DWIDTH 16 0
BBX 16 18 0 -2
BITMAP
0840
1C20
F020
11FC
1000
1088
FE50
1000
11FE
7C20
4420
45FC
4420
7C20
4420
0020
0000
0000
ENDCHAR

STARTCHAR chs_B4C8
ENCODING 46280
SWIDTH 854 0
DWIDTH 16 0
BBX 16 18 0 -2
BITMAP
0820
0444
FFFE
0820
0820
1244
7CF8
0810
1224
7EFC
2040
0A00
2988
28A4
4824
07E0
0000
0000
ENDCHAR

STARTCHAR chs_B4C9
ENCODING 46281
SWIDTH 854 0
DWIDTH 16 0
BBX 16 18 0 -2
BITMAP
2100
1108
01FC
0A48
7040
20A0
271C
0000
FFFE
1000
1FE0
1020
1320
10A4
1624
381C
0000
0000
ENDCHAR

STARTCHAR chs_B4CA
ENCODING 46282
SWIDTH 854 0
DWIDTH 16 0
BBX 16 18 0 -2
BITMAP
2004
13FE
1004
0004
07F4
F004
1004
13E4
1224
1224
1224
13E4
1404
1804
1014
0008
0000
0000
ENDCHAR

ENDFONT
